<?xml version="1.0" encoding="utf-8" standalone="no"?>
<!DOCTYPE svg PUBLIC "-//W3C//DTD SVG 1.1//EN"
  "http://www.w3.org/Graphics/SVG/1.1/DTD/svg11.dtd">
<!-- Created with matplotlib (https://matplotlib.org/) -->
<svg height="211.759697pt" version="1.1" viewBox="0 0 267.984375 211.759697" width="267.984375pt" xmlns="http://www.w3.org/2000/svg" xmlns:xlink="http://www.w3.org/1999/xlink">
 <defs>
  <style type="text/css">
*{stroke-linecap:butt;stroke-linejoin:round;}
  </style>
 </defs>
 <g id="figure_1">
  <g id="patch_1">
   <path d="M 0 211.759697 
L 267.984375 211.759697 
L 267.984375 0 
L 0 0 
z
" style="fill:none;"/>
  </g>
  <g id="axes_1">
   <g id="patch_2">
    <path d="M 37.584375 171.55501 
L 260.784375 171.55501 
L 260.784375 8.47501 
L 37.584375 8.47501 
z
" style="fill:none;"/>
   </g>
   <g id="matplotlib.axis_1">
    <g id="xtick_1">
     <g id="text_1">
      <!-- $\mathdefault{10^{0}}$ -->
      <g style="fill:#808080;" transform="translate(41.27983 187.034697)">
       <text>
        <tspan style="font-family:Linux Libertine O;font-size:10px;font-style:regular;font-weight:regular;" x="0 4.649994" y="-0.234375">10</tspan>
        <tspan style="font-family:Linux Libertine O;font-size:7px;font-style:regular;font-weight:regular;" x="9.381472" y="-3.4937500000000004">0</tspan>
       </text>
      </g>
     </g>
    </g>
    <g id="xtick_2">
     <g id="text_2">
      <!-- $\mathdefault{10^{1}}$ -->
      <g style="fill:#808080;" transform="translate(84.630595 187.034697)">
       <text>
        <tspan style="font-family:Linux Libertine O;font-size:10px;font-style:regular;font-weight:regular;" x="0 4.649994" y="-0.25624999999999964">10</tspan>
        <tspan style="font-family:Linux Libertine O;font-size:7px;font-style:regular;font-weight:regular;" x="9.381472" y="-3.515625">1</tspan>
       </text>
      </g>
     </g>
    </g>
    <g id="xtick_3">
     <g id="text_3">
      <!-- $\mathdefault{10^{2}}$ -->
      <g style="fill:#808080;" transform="translate(127.981359 187.034697)">
       <text>
        <tspan style="font-family:Linux Libertine O;font-size:10px;font-style:regular;font-weight:regular;" x="0 4.649994" y="-0.234375">10</tspan>
        <tspan style="font-family:Linux Libertine O;font-size:7px;font-style:regular;font-weight:regular;" x="9.381472" y="-3.4937500000000004">2</tspan>
       </text>
      </g>
     </g>
    </g>
    <g id="xtick_4">
     <g id="text_4">
      <!-- $\mathdefault{10^{3}}$ -->
      <g style="fill:#808080;" transform="translate(171.332124 187.034697)">
       <text>
        <tspan style="font-family:Linux Libertine O;font-size:10px;font-style:regular;font-weight:regular;" x="0 4.649994" y="-0.234375">10</tspan>
        <tspan style="font-family:Linux Libertine O;font-size:7px;font-style:regular;font-weight:regular;" x="9.381472" y="-3.4937500000000004">3</tspan>
       </text>
      </g>
     </g>
    </g>
    <g id="xtick_5">
     <g id="text_5">
      <!-- $\mathdefault{10^{4}}$ -->
      <g style="fill:#808080;" transform="translate(214.682889 187.034697)">
       <text>
        <tspan style="font-family:Linux Libertine O;font-size:10px;font-style:regular;font-weight:regular;" x="0 4.649994" y="-0.234375">10</tspan>
        <tspan style="font-family:Linux Libertine O;font-size:7px;font-style:regular;font-weight:regular;" x="9.381472" y="-3.4937500000000004">4</tspan>
       </text>
      </g>
     </g>
    </g>
    <g id="xtick_6"/>
    <g id="xtick_7"/>
    <g id="xtick_8"/>
    <g id="xtick_9"/>
    <g id="xtick_10"/>
    <g id="xtick_11"/>
    <g id="xtick_12"/>
    <g id="xtick_13"/>
    <g id="xtick_14"/>
    <g id="xtick_15"/>
    <g id="xtick_16"/>
    <g id="xtick_17"/>
    <g id="xtick_18"/>
    <g id="xtick_19"/>
    <g id="xtick_20"/>
    <g id="xtick_21"/>
    <g id="xtick_22"/>
    <g id="xtick_23"/>
    <g id="xtick_24"/>
    <g id="xtick_25"/>
    <g id="xtick_26"/>
    <g id="xtick_27"/>
    <g id="xtick_28"/>
    <g id="xtick_29"/>
    <g id="xtick_30"/>
    <g id="xtick_31"/>
    <g id="xtick_32"/>
    <g id="xtick_33"/>
    <g id="xtick_34"/>
    <g id="xtick_35"/>
    <g id="xtick_36"/>
    <g id="xtick_37"/>
    <g id="xtick_38"/>
    <g id="xtick_39"/>
    <g id="xtick_40"/>
    <g id="xtick_41"/>
    <g id="xtick_42"/>
    <g id="xtick_43"/>
    <g id="xtick_44"/>
    <g id="xtick_45"/>
    <g id="xtick_46"/>
    <g id="xtick_47"/>
    <g id="xtick_48"/>
    <g id="text_6">
     <text style="font-family:Linux Libertine O;font-size:12px;font-style:normal;font-weight:normal;text-anchor:middle;" transform="rotate(-0, 149.184375, 201.750947)" x="149.184375" y="201.750947">Rank</text>
    </g>
   </g>
   <g id="matplotlib.axis_2">
    <g id="ytick_1">
     <g id="text_7">
      <!-- $\mathdefault{10^{-2}}$ -->
      <g style="fill:#808080;" transform="translate(22.384375 164.556548)">
       <text>
        <tspan style="font-family:Linux Libertine O;font-size:10px;font-style:regular;font-weight:regular;" x="0 4.649994" y="-0.234375">10</tspan>
        <tspan style="font-family:Linux Libertine O;font-size:7px;font-style:regular;font-weight:regular;" x="9.381472 13.231461" y="-3.4937500000000004">−2</tspan>
       </text>
      </g>
     </g>
    </g>
    <g id="ytick_2">
     <g id="text_8">
      <!-- $\mathdefault{10^{-1}}$ -->
      <g style="fill:#808080;" transform="translate(22.384375 139.493738)">
       <text>
        <tspan style="font-family:Linux Libertine O;font-size:10px;font-style:regular;font-weight:regular;" x="0 4.649994" y="-0.25624999999999964">10</tspan>
        <tspan style="font-family:Linux Libertine O;font-size:7px;font-style:regular;font-weight:regular;" x="9.381472 13.231461" y="-3.515625">−1</tspan>
       </text>
      </g>
     </g>
    </g>
    <g id="ytick_3">
     <g id="text_9">
      <!-- $\mathdefault{10^{0}}$ -->
      <g style="fill:#808080;" transform="translate(26.184375 114.430928)">
       <text>
        <tspan style="font-family:Linux Libertine O;font-size:10px;font-style:regular;font-weight:regular;" x="0 4.649994" y="-0.234375">10</tspan>
        <tspan style="font-family:Linux Libertine O;font-size:7px;font-style:regular;font-weight:regular;" x="9.381472" y="-3.4937500000000004">0</tspan>
       </text>
      </g>
     </g>
    </g>
    <g id="ytick_4">
     <g id="text_10">
      <!-- $\mathdefault{10^{1}}$ -->
      <g style="fill:#808080;" transform="translate(26.184375 89.368118)">
       <text>
        <tspan style="font-family:Linux Libertine O;font-size:10px;font-style:regular;font-weight:regular;" x="0 4.649994" y="-0.25624999999999964">10</tspan>
        <tspan style="font-family:Linux Libertine O;font-size:7px;font-style:regular;font-weight:regular;" x="9.381472" y="-3.515625">1</tspan>
       </text>
      </g>
     </g>
    </g>
    <g id="ytick_5">
     <g id="text_11">
      <!-- $\mathdefault{10^{2}}$ -->
      <g style="fill:#808080;" transform="translate(26.184375 64.305308)">
       <text>
        <tspan style="font-family:Linux Libertine O;font-size:10px;font-style:regular;font-weight:regular;" x="0 4.649994" y="-0.234375">10</tspan>
        <tspan style="font-family:Linux Libertine O;font-size:7px;font-style:regular;font-weight:regular;" x="9.381472" y="-3.4937500000000004">2</tspan>
       </text>
      </g>
     </g>
    </g>
    <g id="ytick_6">
     <g id="text_12">
      <!-- $\mathdefault{10^{3}}$ -->
      <g style="fill:#808080;" transform="translate(26.184375 39.242498)">
       <text>
        <tspan style="font-family:Linux Libertine O;font-size:10px;font-style:regular;font-weight:regular;" x="0 4.649994" y="-0.234375">10</tspan>
        <tspan style="font-family:Linux Libertine O;font-size:7px;font-style:regular;font-weight:regular;" x="9.381472" y="-3.4937500000000004">3</tspan>
       </text>
      </g>
     </g>
    </g>
    <g id="ytick_7">
     <g id="text_13">
      <!-- $\mathdefault{10^{4}}$ -->
      <g style="fill:#808080;" transform="translate(26.184375 14.179688)">
       <text>
        <tspan style="font-family:Linux Libertine O;font-size:10px;font-style:regular;font-weight:regular;" x="0 4.649994" y="-0.234375">10</tspan>
        <tspan style="font-family:Linux Libertine O;font-size:7px;font-style:regular;font-weight:regular;" x="9.381472" y="-3.4937500000000004">4</tspan>
       </text>
      </g>
     </g>
    </g>
    <g id="ytick_8"/>
    <g id="ytick_9"/>
    <g id="ytick_10"/>
    <g id="ytick_11"/>
    <g id="ytick_12"/>
    <g id="ytick_13"/>
    <g id="ytick_14"/>
    <g id="ytick_15"/>
    <g id="ytick_16"/>
    <g id="ytick_17"/>
    <g id="ytick_18"/>
    <g id="ytick_19"/>
    <g id="ytick_20"/>
    <g id="ytick_21"/>
    <g id="ytick_22"/>
    <g id="ytick_23"/>
    <g id="ytick_24"/>
    <g id="ytick_25"/>
    <g id="ytick_26"/>
    <g id="ytick_27"/>
    <g id="ytick_28"/>
    <g id="ytick_29"/>
    <g id="ytick_30"/>
    <g id="ytick_31"/>
    <g id="ytick_32"/>
    <g id="ytick_33"/>
    <g id="ytick_34"/>
    <g id="ytick_35"/>
    <g id="ytick_36"/>
    <g id="ytick_37"/>
    <g id="ytick_38"/>
    <g id="ytick_39"/>
    <g id="ytick_40"/>
    <g id="ytick_41"/>
    <g id="ytick_42"/>
    <g id="ytick_43"/>
    <g id="ytick_44"/>
    <g id="ytick_45"/>
    <g id="ytick_46"/>
    <g id="ytick_47"/>
    <g id="ytick_48"/>
    <g id="ytick_49"/>
    <g id="ytick_50"/>
    <g id="ytick_51"/>
    <g id="ytick_52"/>
    <g id="ytick_53"/>
    <g id="ytick_54"/>
    <g id="ytick_55"/>
    <g id="ytick_56"/>
    <g id="ytick_57"/>
    <g id="ytick_58"/>
    <g id="ytick_59"/>
    <g id="ytick_60"/>
    <g id="ytick_61"/>
    <g id="text_14">
     <text style="font-family:Linux Libertine O;font-size:12px;font-style:normal;font-weight:normal;text-anchor:middle;" transform="rotate(-90, 15.575625, 90.01501)" x="15.575625" y="90.01501">Frequency per 100,000</text>
    </g>
   </g>
   <g id="line2d_1">
    <path clip-path="url(#p43ea1dd185)" d="M 47.72983 15.887737 
L 60.77971 19.604072 
L 68.413401 22.646646 
L 73.829591 23.373386 
L 78.030714 25.397384 
L 84.365476 27.447999 
L 86.879471 30.121503 
L 89.096972 34.036167 
L 91.080595 35.498673 
L 92.874999 37.016064 
L 94.513162 37.083823 
L 96.020126 38.854823 
L 97.415357 39.368224 
L 98.714285 40.223487 
L 99.929352 40.405653 
L 101.070732 40.832783 
L 102.146853 42.572839 
L 103.164776 43.20924 
L 104.130475 43.430917 
L 105.049047 44.175153 
L 107.563043 44.502361 
L 108.331598 46.421325 
L 109.780544 47.95824 
L 110.465237 48.274552 
L 111.125901 49.15573 
L 111.764166 49.56358 
L 112.3815 49.588122 
L 112.979232 49.734476 
L 113.55857 49.750794 
L 114.66636 50.017998 
L 115.712574 50.643279 
L 116.214657 50.663925 
L 118.098928 51.470961 
L 118.97476 51.496375 
L 119.397857 51.807866 
L 120.216551 52.252617 
L 120.612923 52.506257 
L 121.381479 53.291529 
L 122.119887 53.498601 
L 122.478508 53.966857 
L 123.515118 54.095765 
L 125.732619 54.868277 
L 126.029113 55.285739 
L 126.32101 55.327784 
L 126.891569 55.849584 
L 127.170493 56.805467 
L 127.445344 56.844137 
L 127.716241 57.008881 
L 127.983295 57.394474 
L 129.510646 57.715563 
L 129.993416 57.937528 
L 130.464115 58.619869 
L 130.923333 58.723642 
L 131.148809 59.19266 
L 131.809473 59.367239 
L 132.237378 59.838452 
L 132.655772 59.953068 
L 133.662804 60.296514 
L 133.857904 60.361643 
L 134.051003 60.593916 
L 134.431359 60.673806 
L 134.618694 60.94774 
L 135.169768 61.020241 
L 135.349932 61.141313 
L 135.528388 61.458722 
L 135.880305 61.561928 
L 136.053827 61.932874 
L 136.396145 62.071044 
L 136.732351 62.424819 
L 137.062657 62.620633 
L 137.225663 62.945043 
L 137.706378 63.144434 
L 138.020169 63.42444 
L 138.481261 63.521854 
L 138.782499 63.759053 
L 139.078994 63.949978 
L 139.225508 63.982859 
L 139.658332 64.44706 
L 139.94145 64.607462 
L 140.081428 64.634233 
L 140.358301 64.824681 
L 141.165296 65.085123 
L 141.684694 65.168035 
L 143.513996 65.978346 
L 143.745005 66.294059 
L 143.973213 66.416912 
L 144.198689 66.567581 
L 144.641698 66.744388 
L 146.114952 67.374862 
L 146.515541 67.531891 
L 147.57514 67.820069 
L 147.761548 68.127324 
L 148.128916 68.3792 
L 148.128916 68.3792 
L 148.930185 68.566571 
L 149.614879 68.989461 
L 149.948109 69.097801 
L 150.517435 69.393298 
L 151.455073 69.63598 
L 152.636762 70.303702 
L 152.779392 70.477733 
L 153.339344 70.660672 
L 153.613196 70.770702 
L 153.950003 70.964928 
L 154.862216 71.507776 
L 155.426128 71.668935 
L 155.610407 71.843811 
L 156.211959 72.17423 
L 156.4473 72.338547 
L 156.794885 72.510188 
L 157.079717 72.723714 
L 157.5818 72.851886 
L 158.017125 73.062175 
L 158.231071 73.163759 
L 158.755534 73.403672 
L 160.006126 74.048399 
L 160.246576 74.156871 
L 162.19672 75.075028 
L 162.495906 75.194288 
L 162.748622 75.342886 
L 163.325424 75.652722 
L 163.527216 75.717052 
L 164.543026 76.154801 
L 166.320134 77.017644 
L 166.320134 77.017644 
L 166.629062 77.149315 
L 167.688153 77.673205 
L 167.816447 77.844436 
L 168.227464 78.094395 
L 168.506847 78.309217 
L 169.053476 78.540902 
L 169.467923 78.889308 
L 169.467923 78.889308 
L 169.700718 79.041483 
L 169.902078 79.2047 
L 170.242334 79.365891 
L 170.465803 79.575392 
L 171.779535 80.117498 
L 172.714132 80.688024 
L 172.714132 80.688024 
L 172.93462 80.86777 
L 173.296457 81.09803 
L 173.296457 81.09803 
L 174.228677 81.612446 
L 174.432214 81.735123 
L 175.116907 82.01343 
L 175.545787 82.328611 
L 175.756618 82.423778 
L 176.006537 82.507737 
L 176.293978 82.60449 
L 176.516785 82.782077 
L 177.324766 83.139806 
L 177.554834 83.26171 
L 177.894749 83.463585 
L 177.894749 83.463585 
L 178.228635 83.6961 
L 178.411601 83.80407 
L 178.556704 83.913122 
L 178.861383 84.127571 
L 179.143705 84.367735 
L 179.370015 84.475398 
L 179.542267 84.613318 
L 180.182817 85.037884 
L 180.182817 85.037884 
L 180.397044 85.144746 
L 180.961977 85.511372 
L 181.167566 85.687322 
L 181.664267 86.039659 
L 181.847203 86.148465 
L 182.207827 86.386576 
L 182.851548 86.879018 
L 183.108673 87.133854 
L 183.334318 87.263545 
L 183.334318 87.263545 
L 183.473984 87.36654 
L 184.089972 87.916435 
L 184.089972 87.916435 
L 184.621093 88.176798 
L 184.84236 88.278619 
L 184.84236 88.278619 
L 185.40326 88.53742 
L 186.736487 89.512161 
L 186.91119 89.61577 
L 186.91119 89.61577 
L 187.425777 89.992358 
L 187.549454 90.112764 
L 187.549454 90.112764 
L 188.274927 90.532406 
L 188.274927 90.532406 
L 188.627443 90.787029 
L 188.627443 90.787029 
L 188.796013 90.890569 
L 189.128691 91.127201 
L 189.128691 91.127201 
L 189.303063 91.234045 
L 189.435326 91.301359 
L 189.435326 91.301359 
L 189.586791 91.409935 
L 189.98484 91.784587 
L 189.98484 91.784587 
L 190.161252 91.883861 
L 190.509194 92.231273 
L 190.509194 92.231273 
L 190.652294 92.319886 
L 190.652294 92.319886 
L 190.991358 92.529501 
L 190.991358 92.529501 
L 191.177122 92.635841 
L 191.324424 92.820592 
L 191.324424 92.820592 
L 193.157971 94.245235 
L 193.157971 94.245235 
L 193.315382 94.351948 
L 193.528674 94.550348 
L 193.528674 94.550348 
L 193.658741 94.66011 
L 193.771816 94.78958 
L 193.771816 94.78958 
L 193.884216 94.883011 
L 193.884216 94.883011 
L 194.311581 95.226163 
L 194.311581 95.226163 
L 194.459673 95.323435 
L 194.459673 95.323435 
L 194.889497 95.701205 
L 194.889497 95.701205 
L 195.339386 96.050695 
L 195.538382 96.282965 
L 195.538382 96.282965 
L 195.698985 96.390204 
L 195.85823 96.520301 
L 196.03043 96.629916 
L 196.03043 96.629916 
L 196.264661 96.807628 
L 196.264661 96.807628 
L 196.370174 96.897584 
L 196.544726 97.102746 
L 196.544726 97.102746 
L 196.641772 97.195185 
L 196.793271 97.335332 
L 196.793271 97.335332 
L 196.89587 97.429777 
L 196.89587 97.429777 
L 197.220482 97.815968 
L 197.220482 97.815968 
L 197.380713 97.914696 
L 197.532998 98.064487 
L 197.638214 98.165505 
L 197.794943 98.344575 
L 197.943927 98.448239 
L 198.091742 98.60561 
L 198.282816 98.711803 
L 198.282816 98.711803 
L 201.184105 101.021246 
L 201.184105 101.021246 
L 201.28703 101.12065 
L 201.28703 101.12065 
L 202.15795 101.878747 
L 202.15795 101.878747 
L 202.291585 101.986339 
L 202.291585 101.986339 
L 202.495342 102.13147 
L 202.495342 102.13147 
L 202.68689 102.241602 
L 202.776948 102.35286 
L 202.776948 102.35286 
L 202.876509 102.427669 
L 202.876509 102.427669 
L 203.108427 102.655231 
L 203.108427 102.655231 
L 203.22576 102.732154 
L 203.327829 102.848569 
L 203.327829 102.848569 
L 204.310002 103.827623 
L 204.310002 103.827623 
L 204.442958 103.913329 
L 204.442958 103.913329 
L 204.574982 104.043167 
L 204.574982 104.043167 
L 204.737596 104.174573 
L 204.737596 104.174573 
L 204.876509 104.263067 
L 204.983354 104.397171 
L 204.983354 104.397171 
L 205.102835 104.4875 
L 205.102835 104.4875 
L 205.322113 104.763075 
L 205.322113 104.763075 
L 205.491394 104.856506 
L 205.491394 104.856506 
L 205.620583 104.998174 
L 205.620583 104.998174 
L 205.757414 105.093654 
L 205.757414 105.093654 
L 205.889027 105.238463 
L 205.889027 105.238463 
L 206.015525 105.336083 
L 206.137003 105.484176 
L 206.137003 105.484176 
L 206.332232 105.584036 
L 206.451691 105.735565 
L 206.451691 105.735565 
L 206.603011 105.837769 
L 206.603011 105.837769 
L 206.797523 105.992897 
L 206.797523 105.992897 
L 206.92609 106.097558 
L 206.92609 106.097558 
L 207.069687 106.25646 
L 207.069687 106.25646 
L 207.275189 106.472005 
L 207.275189 106.472005 
L 207.459021 106.581399 
L 207.459021 106.581399 
L 207.637221 106.74758 
L 207.637221 106.74758 
L 207.752536 106.803542 
L 207.752536 106.803542 
L 207.886183 106.973176 
L 207.886183 106.973176 
L 207.999987 107.030314 
L 207.999987 107.030314 
L 208.176909 107.203548 
L 208.176909 107.203548 
L 208.28525 107.261911 
L 208.385562 107.379583 
L 208.385562 107.379583 
L 208.485342 107.4389 
L 208.485342 107.4389 
L 208.628542 107.618816 
L 208.628542 107.618816 
L 208.737959 107.679455 
L 208.857588 107.863425 
L 208.857588 107.863425 
L 208.958499 107.925446 
L 209.08031 108.113658 
L 209.187141 108.177125 
L 209.307487 108.369779 
L 209.307487 108.369779 
L 209.472591 108.434762 
L 209.472591 108.434762 
L 209.691653 108.698645 
L 209.691653 108.698645 
L 209.795079 108.765627 
L 209.795079 108.765627 
L 209.962797 108.969084 
L 209.962797 108.969084 
L 210.085072 109.037757 
L 210.085072 109.037757 
L 210.263657 109.246415 
L 210.263657 109.246415 
L 210.363996 109.316866 
L 210.363996 109.316866 
L 210.648707 109.530997 
L 210.648707 109.530997 
L 210.740483 109.60332 
L 210.740483 109.60332 
L 210.92594 109.749425 
L 210.92594 109.749425 
L 211.029261 109.82322 
L 211.125612 109.972327 
L 211.125612 109.972327 
L 211.484172 110.276812 
L 211.484172 110.276812 
L 211.590734 110.354283 
L 211.590734 110.354283 
L 211.75875 110.510899 
L 211.75875 110.510899 
L 211.900702 110.590061 
L 211.900702 110.590061 
L 212.05989 110.750132 
L 212.05989 110.750132 
L 212.145053 110.831059 
L 212.145053 110.831059 
L 212.671717 111.329679 
L 212.671717 111.329679 
L 212.859636 111.415049 
L 212.859636 111.415049 
L 212.97614 111.587825 
L 212.97614 111.587825 
L 213.060157 111.675252 
L 213.060157 111.675252 
L 213.181175 111.852242 
L 213.181175 111.852242 
L 213.36979 111.941828 
L 213.36979 111.941828 
L 213.460564 112.123243 
L 213.460564 112.123243 
L 213.615566 112.215097 
L 213.615566 112.215097 
L 213.830447 112.495404 
L 213.830447 112.495404 
L 214.001703 112.590467 
L 214.108636 112.78312 
L 214.108636 112.78312 
L 214.236702 112.880741 
L 214.236702 112.880741 
L 214.374689 113.078649 
L 214.374689 113.078649 
L 214.56245 113.178969 
L 214.56245 113.178969 
L 214.6636 113.382426 
L 214.6636 113.382426 
L 214.824843 113.485599 
L 214.824843 113.485599 
L 214.874785 113.589759 
L 214.874785 113.589759 
L 215.010796 113.694925 
L 215.010796 113.694925 
L 215.17169 113.908357 
L 215.17169 113.908357 
L 215.438525 114.016662 
L 215.438525 114.016662 
L 215.545223 114.236561 
L 215.545223 114.236561 
L 215.63872 114.236561 
L 215.63872 114.236561 
L 215.668944 114.3482 
L 215.668944 114.3482 
L 215.764334 114.3482 
L 215.764334 114.3482 
L 215.864226 114.574971 
L 215.864226 114.574971 
L 215.968545 114.574971 
L 215.9834 114.690154 
L 215.9834 114.690154 
L 216.094445 114.690154 
L 216.094445 114.690154 
L 216.13868 114.806568 
L 216.13868 114.806568 
L 216.243935 114.806568 
L 216.243935 114.806568 
L 216.351031 115.0432 
L 216.351031 115.0432 
L 216.401931 115.0432 
L 216.401931 115.0432 
L 216.644832 115.285091 
L 216.644832 115.285091 
L 216.72828 115.285091 
L 216.72828 115.285091 
L 216.766305 115.408083 
L 216.766305 115.408083 
L 216.861032 115.408083 
L 216.931766 115.53248 
L 216.931766 115.53248 
L 217.149368 115.785622 
L 217.149368 115.785622 
L 217.26995 115.785622 
L 217.26995 115.785622 
L 217.318429 115.914436 
L 217.318429 115.914436 
L 217.421893 115.914436 
L 217.421893 115.914436 
L 217.490554 116.044793 
L 217.490554 116.044793 
L 217.719892 116.310285 
L 217.719892 116.310285 
L 217.827912 116.310285 
L 217.827912 116.310285 
L 217.883928 116.4455 
L 217.883928 116.4455 
L 217.979888 116.4455 
L 218.057635 116.582415 
L 218.057635 116.582415 
L 218.112973 116.582415 
L 218.220965 116.721075 
L 218.220965 116.721075 
L 218.251707 116.861524 
L 218.251707 116.861524 
L 218.411194 116.861524 
L 218.411194 116.861524 
L 218.536953 117.147978 
L 218.536953 117.147978 
L 218.657584 117.147978 
L 218.659731 117.294083 
L 218.659731 117.294083 
L 218.77318 117.294083 
L 218.77318 117.294083 
L 218.824328 117.442175 
L 218.824328 117.442175 
L 218.951596 117.442175 
L 218.951596 117.442175 
L 219.000154 117.592311 
L 219.000154 117.592311 
L 219.092701 117.592311 
L 219.092701 117.592311 
L 219.243168 117.898941 
L 219.243168 117.898941 
L 219.353164 117.898941 
L 219.353164 117.898941 
L 219.406891 118.055557 
L 219.406891 118.055557 
L 219.558971 118.055557 
L 219.558971 118.055557 
L 219.579428 118.21446 
L 219.579428 118.21446 
L 219.715923 118.21446 
L 219.715923 118.21446 
L 219.746346 118.375716 
L 219.746346 118.375716 
L 220.352563 119.045752 
L 220.352563 119.045752 
L 220.503063 119.045752 
L 220.503063 119.045752 
L 220.602086 119.21991 
L 220.602086 119.21991 
L 220.6543 119.21991 
L 220.6543 119.21991 
L 220.723694 119.3969 
L 220.723694 119.3969 
L 220.821567 119.3969 
L 220.821567 119.3969 
L 220.875085 119.576815 
L 220.875085 119.576815 
L 220.981668 119.576815 
L 220.981668 119.576815 
L 221.131007 119.759755 
L 221.131007 119.759755 
L 221.213672 119.759755 
L 221.213672 119.759755 
L 221.254869 119.945822 
L 221.254869 119.945822 
L 221.422469 119.945822 
L 221.507559 120.135124 
L 221.507559 120.135124 
L 221.603287 120.135124 
L 221.603287 120.135124 
L 221.72409 120.327778 
L 221.72409 120.327778 
L 221.85681 120.523903 
L 221.85681 120.523903 
L 221.952585 120.523903 
L 221.952585 120.523903 
L 222.010176 120.723627 
L 222.010176 120.723627 
L 222.123047 120.723627 
L 222.123047 120.723627 
L 222.254767 120.927084 
L 222.254767 120.927084 
L 222.339717 120.927084 
L 222.339717 120.927084 
L 222.357367 121.134417 
L 222.357367 121.134417 
L 222.560904 121.134417 
L 222.560904 121.134417 
L 222.665325 121.345775 
L 222.665325 121.345775 
L 222.757084 121.345775 
L 222.757084 121.345775 
L 222.819157 121.56132 
L 222.819157 121.56132 
L 222.917022 121.56132 
L 222.917022 121.56132 
L 223.04162 121.781219 
L 223.04162 121.781219 
L 223.182291 122.005653 
L 223.182291 122.005653 
L 223.353737 122.005653 
L 223.353737 122.005653 
L 223.373805 122.234811 
L 223.373805 122.234811 
L 223.505387 122.234811 
L 223.505387 122.234811 
L 223.632759 122.468899 
L 223.632759 122.468899 
L 223.767461 122.468899 
L 223.767461 122.468899 
L 223.791998 122.708131 
L 223.791998 122.708131 
L 223.928815 122.708131 
L 223.928815 122.708131 
L 224.019478 122.95274 
L 224.019478 122.95274 
L 224.220288 122.95274 
L 224.220288 122.95274 
L 224.249029 123.202973 
L 224.249029 123.202973 
L 224.491573 123.202973 
L 224.491573 123.202973 
L 224.496298 123.459094 
L 224.496298 123.459094 
L 224.723254 123.459094 
L 224.723254 123.459094 
L 224.755898 123.721387 
L 224.755898 123.721387 
L 224.975161 123.721387 
L 225.004306 123.990157 
L 225.004306 123.990157 
L 225.223741 123.990157 
L 225.223741 123.990157 
L 225.244939 124.265732 
L 225.244939 124.265732 
L 225.461603 124.265732 
L 225.461603 124.265732 
L 225.570494 124.548466 
L 225.570494 124.548466 
L 225.706837 124.548466 
L 225.706837 124.548466 
L 225.751083 124.83874 
L 225.751083 124.83874 
L 225.928497 124.83874 
L 225.928497 124.83874 
L 226.084003 125.136968 
L 226.084003 125.136968 
L 226.317024 125.136968 
L 226.317024 125.136968 
L 226.435303 125.443598 
L 226.435303 125.443598 
L 226.635953 125.443598 
L 226.672462 125.759117 
L 226.672462 125.759117 
L 226.91221 125.759117 
L 226.91221 125.759117 
L 226.971674 126.084056 
L 226.971674 126.084056 
L 227.174914 126.084056 
L 227.174914 126.084056 
L 227.283867 126.418994 
L 227.283867 126.418994 
L 227.425917 126.418994 
L 227.425917 126.418994 
L 227.635004 126.764568 
L 227.635004 126.764568 
L 227.841794 126.764568 
L 227.841794 126.764568 
L 227.877355 127.121473 
L 227.877355 127.121473 
L 228.180181 127.121473 
L 228.180181 127.121473 
L 228.264158 127.490479 
L 228.264158 127.490479 
L 228.497321 127.490479 
L 228.497321 127.490479 
L 228.624213 127.872436 
L 228.624213 127.872436 
L 228.814215 127.872436 
L 228.814215 127.872436 
L 229.027092 128.268284 
L 229.027092 128.268284 
L 229.277942 128.268284 
L 229.277942 128.268284 
L 229.293815 128.679074 
L 229.293815 128.679074 
L 229.457862 128.679074 
L 229.457862 128.679074 
L 229.7174 129.105978 
L 229.7174 129.105978 
L 230.073205 129.105978 
L 230.073205 129.105978 
L 230.133998 129.55031 
L 230.133998 129.55031 
L 230.460305 129.55031 
L 230.460305 129.55031 
L 230.523293 130.013556 
L 230.523293 130.013556 
L 230.829485 130.013556 
L 230.829485 130.013556 
L 230.839606 130.497398 
L 230.839606 130.497398 
L 231.256556 130.497398 
L 231.256556 130.497398 
L 231.260954 131.003751 
L 231.260954 131.003751 
L 231.701022 131.003751 
L 231.701022 131.003751 
L 231.815589 131.534815 
L 231.815589 131.534815 
L 232.197056 131.534815 
L 232.197056 131.534815 
L 232.202285 132.093124 
L 232.202285 132.093124 
L 232.667097 132.093124 
L 232.667097 132.093124 
L 232.719058 132.681626 
L 232.719058 132.681626 
L 233.17938 132.681626 
L 233.17938 132.681626 
L 233.221034 133.303775 
L 233.221034 133.303775 
L 233.64325 133.303775 
L 233.64325 133.303775 
L 233.779346 133.963652 
L 233.779346 133.963652 
L 233.972622 133.963652 
L 233.972622 133.963652 
L 234.315035 134.666131 
L 234.315035 134.666131 
L 234.582339 134.666131 
L 234.582339 134.666131 
L 234.867699 135.417093 
L 234.867699 135.417093 
L 236.116151 137.094968 
L 236.116151 137.094968 
L 236.247362 137.094968 
L 236.247362 137.094968 
L 236.819797 138.042055 
L 236.819797 138.042055 
L 236.982753 138.042055 
L 236.982753 138.042055 
L 237.605137 139.079472 
L 237.605137 139.079472 
L 238.098584 139.079472 
L 238.098584 139.079472 
L 238.4538 140.226284 
L 238.4538 140.226284 
L 239.302466 141.50831 
L 239.302466 141.50831 
L 239.943383 141.50831 
L 239.943383 141.50831 
L 240.241177 142.961751 
L 240.241177 142.961751 
L 240.383925 142.961751 
L 240.383925 142.961751 
L 241.281138 144.639625 
L 241.281138 144.639625 
L 241.662708 144.639625 
L 241.662708 144.639625 
L 242.493824 146.62413 
L 242.493824 146.62413 
L 243.327479 146.62413 
L 243.327479 146.62413 
L 243.860233 149.052967 
L 243.860233 149.052967 
L 245.513357 149.052967 
L 245.513357 149.052967 
L 245.517997 152.184283 
L 245.517997 152.184283 
L 247.547705 152.184283 
L 247.547705 152.184283 
L 247.593935 156.597625 
L 247.593935 156.597625 
L 250.078414 156.597625 
L 250.078414 156.597625 
L 250.63892 164.142282 
L 250.63892 164.142282 
" style="fill:none;stroke:#76a254;stroke-linecap:square;stroke-width:1.5;"/>
   </g>
  </g>
 </g>
 <defs>
  <clipPath id="p43ea1dd185">
   <rect height="163.08" width="223.2" x="37.584375" y="8.47501"/>
  </clipPath>
 </defs>
</svg>
