<svg width="211pt" height="404pt" viewBox="0 0 210.5 404" xmlns="http://www.w3.org/2000/svg">
    <g class="graph">
        <path fill="#fff" stroke="transparent" d="M0 404V0h210.5v404H0z"/>
        <text text-anchor="middle" x="78" y="-374.2" font-family="Linux Libertine O" font-size="16" transform="translate(4 400)">
            Vectorized document
        </text>
        <text text-anchor="middle" x="78" y="-302.2" font-family="Linux Libertine O" font-size="16" transform="translate(4 400)">
            Embedding layer
        </text>
        <g class="edge" stroke="#000">
            <path fill="none" d="M82 40.2v25.4"/>
            <path d="M85.5 65.6l-3.5 10-3.5-10h7z"/>
        </g>
        <text text-anchor="middle" x="78" y="-230.2" font-family="Linux Libertine O" font-size="16" transform="translate(4 400)">
            GRU
        </text>
        <g class="edge" stroke="#000">
            <path fill="none" d="M82 112.2v25.4"/>
            <path d="M85.5 137.6l-3.5 10-3.5-10h7z"/>
        </g>
        <text text-anchor="middle" x="120" y="-158.2" font-family="Linux Libertine O" font-size="16" transform="translate(4 400)">
            Concatenate
        </text>
        <g class="edge" stroke="#000">
            <path fill="none" d="M92.6 184.2l15.5 26.5"/>
            <path d="M111.2 209.2l2 10.4-8-6.9 6-3.5z"/>
        </g>
        <text text-anchor="middle" x="120" y="-86.2" font-family="Linux Libertine O" font-size="16" transform="translate(4 400)">
            Dense layers
        </text>
        <g class="edge" stroke="#000">
            <path fill="none" d="M124 256.2v25.4"/>
            <path d="M127.5 281.6l-3.5 10-3.5-10h7z"/>
        </g>
        <text text-anchor="middle" x="120" y="-14.2" font-family="Linux Libertine O" font-size="16" transform="translate(4 400)">
            Output
        </text>
        <g class="edge" stroke="#000">
            <path fill="none" d="M124 328.2v25.4"/>
            <path d="M127.5 353.6l-3.5 10-3.5-10h7z"/>
        </g>
        <text text-anchor="middle" x="163" y="-230.2" font-family="Linux Libertine O" font-size="16" transform="translate(4 400)">
            Metadata
        </text>
        <g class="edge" stroke="#000">
            <path fill="none" d="M156.1 184.2l-16 26.8"/>
            <path d="M143.1 212.8l-8.1 6.8 2.1-10.4 6 3.6z"/>
        </g>
    </g>
</svg>
