<?xml version="1.0" encoding="utf-8" standalone="no"?>
<!DOCTYPE svg PUBLIC "-//W3C//DTD SVG 1.1//EN"
  "http://www.w3.org/Graphics/SVG/1.1/DTD/svg11.dtd">
<!-- Created with matplotlib (https://matplotlib.org/) -->
<svg height="144.274099pt" version="1.1" viewBox="0 0 363.370312 144.274099" width="363.370312pt" xmlns="http://www.w3.org/2000/svg" xmlns:xlink="http://www.w3.org/1999/xlink">
 <defs>
  <style type="text/css">
*{stroke-linecap:butt;stroke-linejoin:round;}
  </style>
 </defs>
 <g id="figure_1">
  <g id="patch_1">
   <path d="M 0 144.274099 
L 363.370312 144.274099 
L 363.370312 0 
L 0 0 
z
" style="fill:none;"/>
  </g>
  <g id="axes_1">
   <g id="patch_2">
    <path d="M 21.370313 119.253786 
L 356.170313 119.253786 
L 356.170313 10.533786 
L 21.370313 10.533786 
z
" style="fill:none;"/>
   </g>
   <g id="matplotlib.axis_1">
    <g id="xtick_1">
     <g id="text_1">
      <text style="fill:#808080;font-family:Linux Libertine O;font-size:10px;font-style:normal;font-weight:normal;text-anchor:middle;" transform="rotate(-0, 34.732618, 134.733474)" x="34.732618" y="134.733474">1850</text>
     </g>
    </g>
    <g id="xtick_2">
     <g id="text_2">
      <text style="fill:#808080;font-family:Linux Libertine O;font-size:10px;font-style:normal;font-weight:normal;text-anchor:middle;" transform="rotate(-0, 81.129514, 134.733474)" x="81.129514" y="134.733474">1875</text>
     </g>
    </g>
    <g id="xtick_3">
     <g id="text_3">
      <text style="fill:#808080;font-family:Linux Libertine O;font-size:10px;font-style:normal;font-weight:normal;text-anchor:middle;" transform="rotate(-0, 127.52641, 134.733474)" x="127.52641" y="134.733474">1900</text>
     </g>
    </g>
    <g id="xtick_4">
     <g id="text_4">
      <text style="fill:#808080;font-family:Linux Libertine O;font-size:10px;font-style:normal;font-weight:normal;text-anchor:middle;" transform="rotate(-0, 173.923306, 134.733474)" x="173.923306" y="134.733474">1925</text>
     </g>
    </g>
    <g id="xtick_5">
     <g id="text_5">
      <text style="fill:#808080;font-family:Linux Libertine O;font-size:10px;font-style:normal;font-weight:normal;text-anchor:middle;" transform="rotate(-0, 220.320202, 134.733474)" x="220.320202" y="134.733474">1950</text>
     </g>
    </g>
    <g id="xtick_6">
     <g id="text_6">
      <text style="fill:#808080;font-family:Linux Libertine O;font-size:10px;font-style:normal;font-weight:normal;text-anchor:middle;" transform="rotate(-0, 266.717097, 134.733474)" x="266.717097" y="134.733474">1975</text>
     </g>
    </g>
    <g id="xtick_7">
     <g id="text_7">
      <text style="fill:#808080;font-family:Linux Libertine O;font-size:10px;font-style:normal;font-weight:normal;text-anchor:middle;" transform="rotate(-0, 313.113993, 134.733474)" x="313.113993" y="134.733474">2000</text>
     </g>
    </g>
   </g>
   <g id="matplotlib.axis_2">
    <g id="ytick_1">
     <g id="text_8">
      <text style="fill:#808080;font-family:Linux Libertine O;font-size:10px;font-style:normal;font-weight:normal;text-anchor:end;" transform="rotate(-0, 22.870313, 117.801812)" x="22.870313" y="117.801812">0%</text>
     </g>
    </g>
    <g id="ytick_2">
     <g id="text_9">
      <text style="fill:#808080;font-family:Linux Libertine O;font-size:10px;font-style:normal;font-weight:normal;text-anchor:end;" transform="rotate(-0, 22.870313, 91.896281)" x="22.870313" y="91.896281">10%</text>
     </g>
    </g>
    <g id="ytick_3">
     <g id="text_10">
      <text style="fill:#808080;font-family:Linux Libertine O;font-size:10px;font-style:normal;font-weight:normal;text-anchor:end;" transform="rotate(-0, 22.870313, 65.99075)" x="22.870313" y="65.99075">20%</text>
     </g>
    </g>
    <g id="ytick_4">
     <g id="text_11">
      <text style="fill:#808080;font-family:Linux Libertine O;font-size:10px;font-style:normal;font-weight:normal;text-anchor:end;" transform="rotate(-0, 22.870313, 40.085219)" x="22.870313" y="40.085219">30%</text>
     </g>
    </g>
    <g id="ytick_5">
     <g id="text_12">
      <text style="fill:#808080;font-family:Linux Libertine O;font-size:10px;font-style:normal;font-weight:normal;text-anchor:end;" transform="rotate(-0, 22.870313, 14.179688)" x="22.870313" y="14.179688">40%</text>
     </g>
    </g>
   </g>
   <g id="line2d_1">
    <path clip-path="url(#pf92a94532a)" d="M 36.588494 114.311968 
L 40.300246 114.311968 
L 42.156122 111.747064 
L 44.011998 110.713978 
L 45.867873 113.802017 
L 47.723749 112.421053 
L 49.579625 112.52538 
L 51.435501 114.311968 
L 55.147253 114.311968 
L 57.003128 110.869373 
L 60.71488 109.314116 
L 62.570756 113.695537 
L 64.426632 111.48591 
L 69.994259 83.834873 
L 77.417763 114.311968 
L 90.408893 109.62554 
L 92.264769 112.36125 
L 94.120645 110.285921 
L 95.976521 109.93262 
L 97.832397 109.151504 
L 99.688273 109.075001 
L 101.544148 102.158756 
L 103.400024 108.886726 
L 105.2559 106.548481 
L 107.111776 110.049033 
L 108.967652 109.915468 
L 110.823528 109.444032 
L 114.535279 110.172602 
L 116.391155 109.566343 
L 118.247031 110.191174 
L 120.102907 108.808517 
L 121.958783 108.682423 
L 123.814658 108.271818 
L 125.670534 110.066085 
L 127.52641 111.241462 
L 129.382286 111.14778 
L 134.949913 114.311968 
L 136.805789 109.194704 
L 138.661665 107.754996 
L 140.517541 109.632774 
L 142.373417 107.627483 
L 144.229293 111.668547 
L 146.085168 111.772492 
L 149.79692 109.253484 
L 151.652796 110.297645 
L 153.508672 110.850824 
L 155.364548 111.191796 
L 157.220423 110.326502 
L 159.076299 110.44288 
L 160.932175 106.695943 
L 162.788051 109.182737 
L 164.643927 107.523067 
L 166.499803 110.097564 
L 168.355678 114.311968 
L 172.06743 109.514648 
L 173.923306 111.018892 
L 177.635058 106.29168 
L 179.490933 110.04246 
L 181.346809 109.931325 
L 183.202685 112.647801 
L 185.058561 106.624867 
L 186.914437 108.845493 
L 188.770312 108.825329 
L 190.626188 107.525515 
L 194.33794 114.311968 
L 196.193816 110.186579 
L 198.049692 110.262964 
L 201.761443 111.027105 
L 203.617319 111.21695 
L 205.473195 112.863113 
L 207.329071 111.349517 
L 209.184947 110.01636 
L 211.040822 112.316677 
L 212.896698 110.784505 
L 214.752574 110.843789 
L 216.60845 111.466896 
L 218.464326 111.82013 
L 222.176077 110.109178 
L 224.031953 111.04504 
L 225.887829 108.976982 
L 227.743705 111.087071 
L 229.599581 109.237244 
L 231.455457 107.815283 
L 233.311332 110.70563 
L 235.167208 111.566005 
L 237.023084 110.068706 
L 238.87896 110.350205 
L 242.590712 109.61042 
L 244.446587 110.6496 
L 246.302463 107.166797 
L 248.158339 111.786734 
L 250.014215 106.369235 
L 251.870091 105.547187 
L 253.725967 104.212346 
L 255.581842 108.697933 
L 257.437718 112.224496 
L 261.14947 105.621817 
L 263.005346 109.877355 
L 264.861222 110.790068 
L 266.717097 112.088317 
L 268.572973 109.170039 
L 270.428849 107.278192 
L 272.284725 108.133477 
L 274.140601 107.796805 
L 275.996477 107.288571 
L 277.852352 110.564784 
L 279.708228 107.798005 
L 281.564104 113.152019 
L 283.41998 113.212413 
L 285.275856 111.068709 
L 287.131732 108.238534 
L 288.987607 111.186217 
L 290.843483 112.802908 
L 292.699359 112.309432 
L 294.555235 97.836959 
L 296.411111 84.60379 
L 298.266987 114.311968 
L 300.122862 81.557848 
L 301.978738 114.311968 
L 303.834614 108.655739 
L 305.69049 83.533119 
L 307.546366 102.216 
L 309.402242 112.214354 
L 311.258117 107.403827 
L 313.113993 114.311968 
L 314.969869 112.329402 
L 316.825745 114.311968 
L 322.393372 114.311968 
L 324.249248 107.889109 
L 327.961 100.677478 
L 335.384503 109.968053 
L 340.952131 114.311968 
L 340.952131 114.311968 
" style="fill:none;stroke:#e7298a;stroke-linecap:square;stroke-width:1.5;"/>
   </g>
   <g id="line2d_2">
    <path clip-path="url(#pf92a94532a)" d="M 36.588494 114.311968 
L 114.535279 114.311968 
L 116.391155 113.381453 
L 118.247031 114.311968 
L 120.102907 113.918864 
L 123.814658 114.311968 
L 125.670534 114.199121 
L 129.382286 114.311968 
L 140.517541 114.280494 
L 142.373417 113.807479 
L 144.229293 114.311968 
L 149.79692 114.311968 
L 164.643927 114.311968 
L 166.499803 114.162786 
L 168.355678 114.311968 
L 173.923306 114.311968 
L 175.779182 112.996967 
L 177.635058 114.311968 
L 185.058561 114.311968 
L 186.914437 111.439753 
L 188.770312 114.27192 
L 190.626188 114.311968 
L 192.482064 112.559317 
L 194.33794 114.311968 
L 225.887829 114.311968 
L 227.743705 113.419975 
L 229.599581 113.363153 
L 231.455457 107.612262 
L 233.311332 113.879208 
L 235.167208 114.234068 
L 240.734836 114.311968 
L 242.590712 113.998532 
L 244.446587 111.221845 
L 246.302463 114.311968 
L 248.158339 114.210959 
L 250.014215 113.177292 
L 251.870091 113.982465 
L 253.725967 114.311968 
L 255.581842 114.311968 
L 257.437718 112.850738 
L 259.293594 114.225616 
L 261.14947 113.106765 
L 263.005346 113.141723 
L 264.861222 114.311968 
L 266.717097 112.24715 
L 268.572973 112.720419 
L 270.428849 114.046543 
L 272.284725 112.840899 
L 274.140601 114.311968 
L 275.996477 104.587264 
L 277.852352 114.311968 
L 279.708228 114.311968 
L 281.564104 110.445471 
L 283.41998 114.311968 
L 285.275856 110.825465 
L 287.131732 114.311968 
L 288.987607 112.783823 
L 290.843483 114.060458 
L 292.699359 114.311968 
L 303.834614 114.311968 
L 305.69049 111.747064 
L 307.546366 113.303971 
L 309.402242 114.311968 
L 311.258117 112.009254 
L 313.113993 113.288034 
L 314.969869 110.346836 
L 316.825745 114.311968 
L 327.961 114.311968 
L 335.384503 112.140011 
L 340.952131 114.311968 
L 340.952131 114.311968 
" style="fill:none;stroke:#66a61e;stroke-linecap:square;stroke-width:1.5;"/>
   </g>
   <g id="line2d_3">
    <path clip-path="url(#pf92a94532a)" d="M 36.588494 114.311968 
L 92.264769 114.311968 
L 94.120645 113.617822 
L 95.976521 114.311968 
L 97.832397 114.311968 
L 99.688273 112.915444 
L 101.544148 113.032683 
L 103.400024 114.311968 
L 105.2559 112.67755 
L 107.111776 114.311968 
L 108.967652 113.297391 
L 110.823528 113.419513 
L 112.679403 114.311968 
L 114.535279 114.139495 
L 116.391155 113.567556 
L 118.247031 114.232722 
L 120.102907 114.115416 
L 123.814658 114.241323 
L 125.670534 112.591045 
L 127.52641 113.962847 
L 129.382286 112.838636 
L 134.949913 114.311968 
L 136.805789 113.839987 
L 138.661665 113.880588 
L 142.373417 114.311968 
L 144.229293 114.311968 
L 146.085168 108.343481 
L 149.79692 113.080452 
L 151.652796 113.937837 
L 153.508672 114.195407 
L 159.076299 114.309026 
L 173.923306 114.311968 
L 175.779182 113.325717 
L 177.635058 113.910954 
L 179.490933 114.311968 
L 181.346809 108.338364 
L 183.202685 114.311968 
L 188.770312 114.311968 
L 190.626188 114.19496 
L 192.482064 109.391063 
L 194.33794 114.311968 
L 196.193816 113.977477 
L 198.049692 113.502167 
L 199.905567 114.130867 
L 201.761443 114.311968 
L 220.320202 114.311968 
L 222.176077 110.576155 
L 224.031953 114.311968 
L 225.887829 114.311968 
L 227.743705 93.212906 
L 229.599581 105.628871 
L 231.455457 90.964507 
L 233.311332 108.085024 
L 235.167208 92.577964 
L 237.023084 105.276316 
L 238.87896 114.09187 
L 240.734836 104.350136 
L 242.590712 105.09171 
L 244.446587 109.734008 
L 246.302463 106.709506 
L 248.158339 100.978734 
L 250.014215 108.813153 
L 251.870091 106.140292 
L 253.725967 101.098296 
L 255.581842 107.942198 
L 257.437718 98.655926 
L 259.293594 79.857612 
L 261.14947 100.927867 
L 263.005346 101.624048 
L 264.861222 81.18002 
L 266.717097 91.757796 
L 268.572973 74.523227 
L 270.428849 112.055851 
L 272.284725 77.682342 
L 274.140601 101.591887 
L 275.996477 113.906772 
L 277.852352 105.193821 
L 279.708228 71.720669 
L 281.564104 83.76664 
L 283.41998 114.092057 
L 285.275856 113.420072 
L 287.131732 88.850265 
L 288.987607 110.109569 
L 290.843483 84.130767 
L 292.699359 114.311968 
L 294.555235 101.813686 
L 296.411111 114.311968 
L 298.266987 46.957587 
L 300.122862 114.311968 
L 301.978738 114.311968 
L 303.834614 91.121427 
L 305.69049 106.617256 
L 307.546366 112.295974 
L 309.402242 114.311968 
L 311.258117 96.657828 
L 313.113993 114.311968 
L 320.537497 114.311968 
L 322.393372 15.475605 
L 324.249248 114.311968 
L 327.961 114.311968 
L 335.384503 105.229236 
L 340.952131 114.311968 
L 340.952131 114.311968 
" style="fill:none;stroke:#e6ab02;stroke-linecap:square;stroke-width:1.5;"/>
   </g>
  </g>
 </g>
 <defs>
  <clipPath id="pf92a94532a">
   <rect height="108.72" width="334.8" x="21.370313" y="10.533786"/>
  </clipPath>
 </defs>
</svg>
