<?xml version="1.0" encoding="utf-8" standalone="no"?>
<!DOCTYPE svg PUBLIC "-//W3C//DTD SVG 1.1//EN"
  "http://www.w3.org/Graphics/SVG/1.1/DTD/svg11.dtd">
<!-- Created with matplotlib (https://matplotlib.org/) -->
<svg height="140.940313pt" version="1.1" viewBox="0 0 350.721307 140.940313" width="350.721307pt" xmlns="http://www.w3.org/2000/svg" xmlns:xlink="http://www.w3.org/1999/xlink">
 <defs>
  <style type="text/css">
*{stroke-linecap:butt;stroke-linejoin:round;}
  </style>
 </defs>
 <g id="figure_1">
  <g id="patch_1">
   <path d="M 0 140.940313 
L 350.721307 140.940313 
L 350.721307 -0 
L 0 -0 
z
" style="fill:none;"/>
  </g>
  <g id="axes_1">
   <g id="patch_2">
    <path d="M 51.753125 43.140313 
L 330.753125 43.140313 
L 330.753125 25.020313 
L 51.753125 25.020313 
z
" style="fill:none;"/>
   </g>
   <g id="QuadMesh_1">
    <path clip-path="url(#p3eabbc1c97)" d="M 51.753125 43.140313 
L 102.480398 43.140313 
L 102.480398 25.020313 
L 51.753125 25.020313 
L 51.753125 43.140313 
" style="fill:#cc72b9;stroke:#ffffff;"/>
    <path clip-path="url(#p3eabbc1c97)" d="M 102.480398 43.140313 
L 153.20767 43.140313 
L 153.20767 25.020313 
L 102.480398 25.020313 
L 102.480398 43.140313 
" style="fill:#e3b3d9;stroke:#ffffff;"/>
    <path clip-path="url(#p3eabbc1c97)" d="M 153.20767 43.140313 
L 203.934943 43.140313 
L 203.934943 25.020313 
L 153.20767 25.020313 
L 153.20767 43.140313 
" style="fill:#eccbe5;stroke:#ffffff;"/>
    <path clip-path="url(#p3eabbc1c97)" d="M 203.934943 43.140313 
L 254.662216 43.140313 
L 254.662216 25.020313 
L 203.934943 25.020313 
L 203.934943 43.140313 
" style="fill:#f0d7eb;stroke:#ffffff;"/>
    <path clip-path="url(#p3eabbc1c97)" d="M 254.662216 43.140313 
L 305.389489 43.140313 
L 305.389489 25.020313 
L 254.662216 25.020313 
L 254.662216 43.140313 
" style="fill:#f5e5f2;stroke:#ffffff;"/>
   </g>
   <g id="matplotlib.axis_1">
    <g id="xtick_1">
     <g id="text_1">
      <text style="fill:#808080;font-family:Linux Libertine O;font-size:10px;font-style:normal;font-weight:normal;text-anchor:middle;" transform="rotate(-0, 77.116761, 14.179688)" x="77.116761" y="14.179688">Choice 1</text>
     </g>
    </g>
    <g id="xtick_2">
     <g id="text_2">
      <text style="fill:#808080;font-family:Linux Libertine O;font-size:10px;font-style:normal;font-weight:normal;text-anchor:middle;" transform="rotate(-0, 127.844034, 14.179688)" x="127.844034" y="14.179688">Choice 2</text>
     </g>
    </g>
    <g id="xtick_3">
     <g id="text_3">
      <text style="fill:#808080;font-family:Linux Libertine O;font-size:10px;font-style:normal;font-weight:normal;text-anchor:middle;" transform="rotate(-0, 178.571307, 14.179688)" x="178.571307" y="14.179688">Choice 3</text>
     </g>
    </g>
    <g id="xtick_4">
     <g id="text_4">
      <text style="fill:#808080;font-family:Linux Libertine O;font-size:10px;font-style:normal;font-weight:normal;text-anchor:middle;" transform="rotate(-0, 229.29858, 14.179688)" x="229.29858" y="14.179688">Choice 4</text>
     </g>
    </g>
    <g id="xtick_5">
     <g id="text_5">
      <text style="fill:#808080;font-family:Linux Libertine O;font-size:10px;font-style:normal;font-weight:normal;text-anchor:middle;" transform="rotate(-0, 280.025852, 14.179688)" x="280.025852" y="14.179688">Choice 5</text>
     </g>
    </g>
    <g id="xtick_6">
     <g id="text_6">
      <text style="fill:#808080;font-family:Linux Libertine O;font-size:10px;font-style:normal;font-weight:normal;text-anchor:middle;" transform="rotate(-0, 330.753125, 14.179688)" x="330.753125" y="14.179688">Score</text>
     </g>
    </g>
   </g>
   <g id="matplotlib.axis_2">
    <g id="ytick_1">
     <g id="text_7">
      <text style="fill:#808080;font-family:Linux Libertine O;font-size:10px;font-style:normal;font-weight:normal;text-anchor:end;" transform="rotate(-0, 43.253125, 37.570156)" x="43.253125" y="37.570156">Kiss</text>
     </g>
    </g>
   </g>
   <g id="text_8">
    <text style="fill:#ffffff;font-family:Linux Libertine O;font-size:8px;font-style:normal;font-weight:normal;text-anchor:middle;" transform="rotate(-0, 77.116761, 35.935938)" x="77.116761" y="35.935938">2,586</text>
   </g>
   <g id="text_9">
    <text style="font-family:Linux Libertine O;font-size:8px;font-style:normal;font-weight:normal;text-anchor:middle;" transform="rotate(-0, 127.844034, 35.935938)" x="127.844034" y="35.935938">1,404</text>
   </g>
   <g id="text_10">
    <text style="font-family:Linux Libertine O;font-size:8px;font-style:normal;font-weight:normal;text-anchor:middle;" transform="rotate(-0, 178.571307, 35.935938)" x="178.571307" y="35.935938">962</text>
   </g>
   <g id="text_11">
    <text style="font-family:Linux Libertine O;font-size:8px;font-style:normal;font-weight:normal;text-anchor:middle;" transform="rotate(-0, 229.29858, 35.935938)" x="229.29858" y="35.935938">741</text>
   </g>
   <g id="text_12">
    <text style="font-family:Linux Libertine O;font-size:8px;font-style:normal;font-weight:normal;text-anchor:middle;" transform="rotate(-0, 280.025852, 35.935938)" x="280.025852" y="35.935938">491</text>
   </g>
   <g id="text_13">
    <text style="font-family:Linux Libertine O;font-size:10px;font-style:normal;font-weight:normal;text-anchor:start;" transform="rotate(-0, 318.071307, 36.399844)" x="318.071307" y="36.399844">23,405</text>
   </g>
  </g>
  <g id="axes_2">
   <g id="patch_3">
    <path d="M 51.753125 61.260312 
L 330.753125 61.260312 
L 330.753125 43.140313 
L 51.753125 43.140313 
z
" style="fill:none;"/>
   </g>
   <g id="QuadMesh_2">
    <path clip-path="url(#p76c38136ef)" d="M 51.753125 61.260312 
L 102.480398 61.260312 
L 102.480398 43.140313 
L 51.753125 43.140313 
L 51.753125 61.260312 
" style="fill:#9da5dd;stroke:#ffffff;"/>
    <path clip-path="url(#p76c38136ef)" d="M 102.480398 61.260312 
L 153.20767 61.260312 
L 153.20767 43.140313 
L 102.480398 43.140313 
L 102.480398 61.260312 
" style="fill:#818cd4;stroke:#ffffff;"/>
    <path clip-path="url(#p76c38136ef)" d="M 153.20767 61.260312 
L 203.934943 61.260312 
L 203.934943 43.140313 
L 153.20767 43.140313 
L 153.20767 61.260312 
" style="fill:#bcc2e8;stroke:#ffffff;"/>
    <path clip-path="url(#p76c38136ef)" d="M 203.934943 61.260312 
L 254.662216 61.260312 
L 254.662216 43.140313 
L 203.934943 43.140313 
L 203.934943 61.260312 
" style="fill:#e7e9f7;stroke:#ffffff;"/>
    <path clip-path="url(#p76c38136ef)" d="M 254.662216 61.260312 
L 305.389489 61.260312 
L 305.389489 43.140313 
L 254.662216 43.140313 
L 254.662216 61.260312 
" style="fill:#fafafd;stroke:#ffffff;"/>
   </g>
   <g id="matplotlib.axis_3"/>
   <g id="matplotlib.axis_4">
    <g id="ytick_2">
     <g id="text_14">
      <text style="fill:#808080;font-family:Linux Libertine O;font-size:10px;font-style:normal;font-weight:normal;text-anchor:end;" transform="rotate(-0, 43.253125, 55.690156)" x="43.253125" y="55.690156">Montroll</text>
     </g>
    </g>
   </g>
   <g id="text_15">
    <text style="font-family:Linux Libertine O;font-size:8px;font-style:normal;font-weight:normal;text-anchor:middle;" transform="rotate(-0, 77.116761, 54.055937)" x="77.116761" y="54.055937">2,063</text>
   </g>
   <g id="text_16">
    <text style="fill:#ffffff;font-family:Linux Libertine O;font-size:8px;font-style:normal;font-weight:normal;text-anchor:middle;" transform="rotate(-0, 127.844034, 54.055937)" x="127.844034" y="54.055937">2,637</text>
   </g>
   <g id="text_17">
    <text style="font-family:Linux Libertine O;font-size:8px;font-style:normal;font-weight:normal;text-anchor:middle;" transform="rotate(-0, 178.571307, 54.055937)" x="178.571307" y="54.055937">1,397</text>
   </g>
   <g id="text_18">
    <text style="font-family:Linux Libertine O;font-size:8px;font-style:normal;font-weight:normal;text-anchor:middle;" transform="rotate(-0, 229.29858, 54.055937)" x="229.29858" y="54.055937">499</text>
   </g>
   <g id="text_19">
    <text style="font-family:Linux Libertine O;font-size:8px;font-style:normal;font-weight:normal;text-anchor:middle;" transform="rotate(-0, 280.025852, 54.055937)" x="280.025852" y="54.055937">110</text>
   </g>
   <g id="text_20">
    <text style="font-family:Linux Libertine O;font-size:10px;font-style:normal;font-weight:normal;text-anchor:start;" transform="rotate(-0, 318.071307, 54.519844)" x="318.071307" y="54.519844">26,162</text>
   </g>
  </g>
  <g id="axes_3">
   <g id="patch_4">
    <path d="M 51.753125 79.380312 
L 330.753125 79.380312 
L 330.753125 61.260312 
L 51.753125 61.260312 
z
" style="fill:none;"/>
   </g>
   <g id="QuadMesh_3">
    <path clip-path="url(#p0d2e98ebad)" d="M 51.753125 79.380312 
L 102.480398 79.380312 
L 102.480398 61.260312 
L 51.753125 61.260312 
L 51.753125 79.380312 
" style="fill:#fdfefd;stroke:#ffffff;"/>
    <path clip-path="url(#p0d2e98ebad)" d="M 102.480398 79.380312 
L 153.20767 79.380312 
L 153.20767 61.260312 
L 102.480398 61.260312 
L 102.480398 79.380312 
" style="fill:#f1f6ee;stroke:#ffffff;"/>
    <path clip-path="url(#p0d2e98ebad)" d="M 153.20767 79.380312 
L 203.934943 79.380312 
L 203.934943 61.260312 
L 153.20767 61.260312 
L 153.20767 79.380312 
" style="fill:#e0ead9;stroke:#ffffff;"/>
    <path clip-path="url(#p0d2e98ebad)" d="M 203.934943 79.380312 
L 254.662216 79.380312 
L 254.662216 61.260312 
L 203.934943 61.260312 
L 203.934943 79.380312 
" style="fill:#cfdfc3;stroke:#ffffff;"/>
    <path clip-path="url(#p0d2e98ebad)" d="M 254.662216 79.380312 
L 305.389489 79.380312 
L 305.389489 61.260312 
L 254.662216 61.260312 
L 254.662216 79.380312 
" style="fill:#c0d4b1;stroke:#ffffff;"/>
   </g>
   <g id="matplotlib.axis_5"/>
   <g id="matplotlib.axis_6">
    <g id="ytick_3">
     <g id="text_21">
      <text style="fill:#808080;font-family:Linux Libertine O;font-size:10px;font-style:normal;font-weight:normal;text-anchor:end;" transform="rotate(-0, 43.253125, 73.810156)" x="43.253125" y="73.810156">Simpson</text>
     </g>
    </g>
   </g>
   <g id="text_22">
    <text style="font-family:Linux Libertine O;font-size:8px;font-style:normal;font-weight:normal;text-anchor:middle;" transform="rotate(-0, 77.116761, 72.175937)" x="77.116761" y="72.175937">35</text>
   </g>
   <g id="text_23">
    <text style="font-family:Linux Libertine O;font-size:8px;font-style:normal;font-weight:normal;text-anchor:middle;" transform="rotate(-0, 127.844034, 72.175937)" x="127.844034" y="72.175937">307</text>
   </g>
   <g id="text_24">
    <text style="font-family:Linux Libertine O;font-size:8px;font-style:normal;font-weight:normal;text-anchor:middle;" transform="rotate(-0, 178.571307, 72.175937)" x="178.571307" y="72.175937">659</text>
   </g>
   <g id="text_25">
    <text style="font-family:Linux Libertine O;font-size:8px;font-style:normal;font-weight:normal;text-anchor:middle;" transform="rotate(-0, 229.29858, 72.175937)" x="229.29858" y="72.175937">1,036</text>
   </g>
   <g id="text_26">
    <text style="font-family:Linux Libertine O;font-size:8px;font-style:normal;font-weight:normal;text-anchor:middle;" transform="rotate(-0, 280.025852, 72.175937)" x="280.025852" y="72.175937">1,353</text>
   </g>
   <g id="text_27">
    <text style="font-family:Linux Libertine O;font-size:10px;font-style:normal;font-weight:normal;text-anchor:start;" transform="rotate(-0, 318.071307, 72.639844)" x="318.071307" y="72.639844">6,805</text>
   </g>
  </g>
  <g id="axes_4">
   <g id="patch_5">
    <path d="M 51.753125 97.500312 
L 330.753125 97.500312 
L 330.753125 79.380312 
L 51.753125 79.380312 
z
" style="fill:none;"/>
   </g>
   <g id="QuadMesh_4">
    <path clip-path="url(#pcf4c32bd3c)" d="M 51.753125 97.500312 
L 102.480398 97.500312 
L 102.480398 79.380312 
L 51.753125 79.380312 
L 51.753125 97.500312 
" style="fill:#edc58e;stroke:#ffffff;"/>
    <path clip-path="url(#pcf4c32bd3c)" d="M 102.480398 97.500312 
L 153.20767 97.500312 
L 153.20767 79.380312 
L 102.480398 79.380312 
L 102.480398 97.500312 
" style="fill:#e2a249;stroke:#ffffff;"/>
    <path clip-path="url(#pcf4c32bd3c)" d="M 153.20767 97.500312 
L 203.934943 97.500312 
L 203.934943 79.380312 
L 153.20767 79.380312 
L 153.20767 97.500312 
" style="fill:#e6af63;stroke:#ffffff;"/>
    <path clip-path="url(#pcf4c32bd3c)" d="M 203.934943 97.500312 
L 254.662216 97.500312 
L 254.662216 79.380312 
L 203.934943 79.380312 
L 203.934943 97.500312 
" style="fill:#f5debf;stroke:#ffffff;"/>
    <path clip-path="url(#pcf4c32bd3c)" d="M 254.662216 97.500312 
L 305.389489 97.500312 
L 305.389489 79.380312 
L 254.662216 79.380312 
L 254.662216 97.500312 
" style="fill:#fdf9f4;stroke:#ffffff;"/>
   </g>
   <g id="matplotlib.axis_7"/>
   <g id="matplotlib.axis_8">
    <g id="ytick_4">
     <g id="text_28">
      <text style="fill:#808080;font-family:Linux Libertine O;font-size:10px;font-style:normal;font-weight:normal;text-anchor:end;" transform="rotate(-0, 43.253125, 91.930156)" x="43.253125" y="91.930156">Smith</text>
     </g>
    </g>
   </g>
   <g id="text_29">
    <text style="font-family:Linux Libertine O;font-size:8px;font-style:normal;font-weight:normal;text-anchor:middle;" transform="rotate(-0, 77.116761, 90.295937)" x="77.116761" y="90.295937">1,306</text>
   </g>
   <g id="text_30">
    <text style="font-family:Linux Libertine O;font-size:8px;font-style:normal;font-weight:normal;text-anchor:middle;" transform="rotate(-0, 127.844034, 90.295937)" x="127.844034" y="90.295937">2,107</text>
   </g>
   <g id="text_31">
    <text style="font-family:Linux Libertine O;font-size:8px;font-style:normal;font-weight:normal;text-anchor:middle;" transform="rotate(-0, 178.571307, 90.295937)" x="178.571307" y="90.295937">1,806</text>
   </g>
   <g id="text_32">
    <text style="font-family:Linux Libertine O;font-size:8px;font-style:normal;font-weight:normal;text-anchor:middle;" transform="rotate(-0, 229.29858, 90.295937)" x="229.29858" y="90.295937">747</text>
   </g>
   <g id="text_33">
    <text style="font-family:Linux Libertine O;font-size:8px;font-style:normal;font-weight:normal;text-anchor:middle;" transform="rotate(-0, 280.025852, 90.295937)" x="280.025852" y="90.295937">128</text>
   </g>
   <g id="text_34">
    <text style="font-family:Linux Libertine O;font-size:10px;font-style:normal;font-weight:normal;text-anchor:start;" transform="rotate(-0, 318.071307, 90.759844)" x="318.071307" y="90.759844">21,998</text>
   </g>
  </g>
  <g id="axes_5">
   <g id="patch_6">
    <path d="M 51.753125 115.620312 
L 330.753125 115.620312 
L 330.753125 97.500312 
L 51.753125 97.500312 
z
" style="fill:none;"/>
   </g>
   <g id="QuadMesh_5">
    <path clip-path="url(#pc31cd6a662)" d="M 51.753125 115.620312 
L 102.480398 115.620312 
L 102.480398 97.500312 
L 51.753125 97.500312 
L 51.753125 115.620312 
" style="fill:#e93834;stroke:#ffffff;"/>
    <path clip-path="url(#pc31cd6a662)" d="M 102.480398 115.620312 
L 153.20767 115.620312 
L 153.20767 97.500312 
L 102.480398 97.500312 
L 102.480398 115.620312 
" style="fill:#f8bcbb;stroke:#ffffff;"/>
    <path clip-path="url(#pc31cd6a662)" d="M 153.20767 115.620312 
L 203.934943 115.620312 
L 203.934943 97.500312 
L 153.20767 97.500312 
L 153.20767 115.620312 
" style="fill:#facfce;stroke:#ffffff;"/>
    <path clip-path="url(#pc31cd6a662)" d="M 203.934943 115.620312 
L 254.662216 115.620312 
L 254.662216 97.500312 
L 203.934943 97.500312 
L 203.934943 115.620312 
" style="fill:#facfce;stroke:#ffffff;"/>
    <path clip-path="url(#pc31cd6a662)" d="M 254.662216 115.620312 
L 305.389489 115.620312 
L 305.389489 97.500312 
L 254.662216 97.500312 
L 254.662216 115.620312 
" style="fill:#facfce;stroke:#ffffff;"/>
   </g>
   <g id="matplotlib.axis_9"/>
   <g id="matplotlib.axis_10">
    <g id="ytick_5">
     <g id="text_35">
      <text style="fill:#808080;font-family:Linux Libertine O;font-size:10px;font-style:normal;font-weight:normal;text-anchor:end;" transform="rotate(-0, 43.253125, 110.050156)" x="43.253125" y="110.050156">Wright</text>
     </g>
    </g>
   </g>
   <g id="text_36">
    <text style="fill:#ffffff;font-family:Linux Libertine O;font-size:8px;font-style:normal;font-weight:normal;text-anchor:middle;" transform="rotate(-0, 77.116761, 108.415937)" x="77.116761" y="108.415937">2,954</text>
   </g>
   <g id="text_37">
    <text style="font-family:Linux Libertine O;font-size:8px;font-style:normal;font-weight:normal;text-anchor:middle;" transform="rotate(-0, 127.844034, 108.415937)" x="127.844034" y="108.415937">994</text>
   </g>
   <g id="text_38">
    <text style="font-family:Linux Libertine O;font-size:8px;font-style:normal;font-weight:normal;text-anchor:middle;" transform="rotate(-0, 178.571307, 108.415937)" x="178.571307" y="108.415937">721</text>
   </g>
   <g id="text_39">
    <text style="font-family:Linux Libertine O;font-size:8px;font-style:normal;font-weight:normal;text-anchor:middle;" transform="rotate(-0, 229.29858, 108.415937)" x="229.29858" y="108.415937">717</text>
   </g>
   <g id="text_40">
    <text style="font-family:Linux Libertine O;font-size:8px;font-style:normal;font-weight:normal;text-anchor:middle;" transform="rotate(-0, 280.025852, 108.415937)" x="280.025852" y="108.415937">704</text>
   </g>
   <g id="text_41">
    <text style="font-family:Linux Libertine O;font-size:10px;font-style:normal;font-weight:normal;text-anchor:start;" transform="rotate(-0, 318.071307, 108.879844)" x="318.071307" y="108.879844">23,047</text>
   </g>
  </g>
  <g id="axes_6">
   <g id="patch_7">
    <path d="M 51.753125 133.740313 
L 330.753125 133.740313 
L 330.753125 115.620313 
L 51.753125 115.620313 
z
" style="fill:none;"/>
   </g>
   <g id="QuadMesh_6">
    <path clip-path="url(#p58fd6c1f86)" d="M 51.753125 133.740313 
L 102.480398 133.740313 
L 102.480398 115.620313 
L 51.753125 115.620313 
L 51.753125 133.740313 
" style="fill:#fdfdfd;stroke:#ffffff;"/>
    <path clip-path="url(#p58fd6c1f86)" d="M 102.480398 133.740313 
L 153.20767 133.740313 
L 153.20767 115.620313 
L 102.480398 115.620313 
L 102.480398 133.740313 
" style="fill:#fdfdfd;stroke:#ffffff;"/>
    <path clip-path="url(#p58fd6c1f86)" d="M 153.20767 133.740313 
L 203.934943 133.740313 
L 203.934943 115.620313 
L 153.20767 115.620313 
L 153.20767 133.740313 
" style="fill:#fdfdfd;stroke:#ffffff;"/>
    <path clip-path="url(#p58fd6c1f86)" d="M 203.934943 133.740313 
L 254.662216 133.740313 
L 254.662216 115.620313 
L 203.934943 115.620313 
L 203.934943 133.740313 
" style="fill:#fdfdfd;stroke:#ffffff;"/>
    <path clip-path="url(#p58fd6c1f86)" d="M 254.662216 133.740313 
L 305.389489 133.740313 
L 305.389489 115.620313 
L 254.662216 115.620313 
L 254.662216 133.740313 
" style="fill:#fbfbfb;stroke:#ffffff;"/>
   </g>
   <g id="matplotlib.axis_11"/>
   <g id="matplotlib.axis_12">
    <g id="ytick_6">
     <g id="text_42">
      <text style="fill:#808080;font-family:Linux Libertine O;font-size:10px;font-style:normal;font-weight:normal;text-anchor:end;" transform="rotate(-0, 43.253125, 128.170156)" x="43.253125" y="128.170156">Write-in</text>
     </g>
    </g>
   </g>
   <g id="text_43">
    <text style="font-family:Linux Libertine O;font-size:8px;font-style:normal;font-weight:normal;text-anchor:middle;" transform="rotate(-0, 77.116761, 126.535938)" x="77.116761" y="126.535938">36</text>
   </g>
   <g id="text_44">
    <text style="font-family:Linux Libertine O;font-size:8px;font-style:normal;font-weight:normal;text-anchor:middle;" transform="rotate(-0, 127.844034, 126.535938)" x="127.844034" y="126.535938">50</text>
   </g>
   <g id="text_45">
    <text style="font-family:Linux Libertine O;font-size:8px;font-style:normal;font-weight:normal;text-anchor:middle;" transform="rotate(-0, 178.571307, 126.535938)" x="178.571307" y="126.535938">42</text>
   </g>
   <g id="text_46">
    <text style="font-family:Linux Libertine O;font-size:8px;font-style:normal;font-weight:normal;text-anchor:middle;" transform="rotate(-0, 229.29858, 126.535938)" x="229.29858" y="126.535938">44</text>
   </g>
   <g id="text_47">
    <text style="font-family:Linux Libertine O;font-size:8px;font-style:normal;font-weight:normal;text-anchor:middle;" transform="rotate(-0, 280.025852, 126.535938)" x="280.025852" y="126.535938">71</text>
   </g>
  </g>
 </g>
 <defs>
  <clipPath id="p3eabbc1c97">
   <rect height="18.12" width="279" x="51.753125" y="25.020313"/>
  </clipPath>
  <clipPath id="p76c38136ef">
   <rect height="18.12" width="279" x="51.753125" y="43.140313"/>
  </clipPath>
  <clipPath id="p0d2e98ebad">
   <rect height="18.12" width="279" x="51.753125" y="61.260312"/>
  </clipPath>
  <clipPath id="pcf4c32bd3c">
   <rect height="18.12" width="279" x="51.753125" y="79.380312"/>
  </clipPath>
  <clipPath id="pc31cd6a662">
   <rect height="18.12" width="279" x="51.753125" y="97.500312"/>
  </clipPath>
  <clipPath id="p58fd6c1f86">
   <rect height="18.12" width="279" x="51.753125" y="115.620312"/>
  </clipPath>
 </defs>
</svg>
