<svg height="288" viewBox="0 0 504 216" width="672" xmlns="http://www.w3.org/2000/svg">
    <defs>
        <style>
            *{stroke-linecap:butt;stroke-linejoin:round}
        </style>
    </defs>
    <g id="figure_1">
        <path d="M0 216h504V0H0z" fill="none" id="patch_1"/>
        <g id="axes_1">
            <path d="M29 190.7h456V10.8H29.1z" fill="none" id="patch_2"/>
            <g id="matplotlib.axis_1">
                <g id="xtick_1">
                    <text x="69" y="201.2" fill="gray" font-family="Linux Libertine O" font-size="10" font-weight="400" text-anchor="middle" id="text_1">
                        Feb
                    </text>
                </g>
                <g id="xtick_2">
                    <text x="187.1" y="201.2" fill="gray" font-family="Linux Libertine O" font-size="10" font-weight="400" text-anchor="middle" id="text_2">
                        Mar
                    </text>
                </g>
                <g id="xtick_3">
                    <text x="313.2" y="201.2" fill="gray" font-family="Linux Libertine O" font-size="10" font-weight="400" text-anchor="middle" id="text_3">
                        Apr
                    </text>
                </g>
                <g id="xtick_4">
                    <text x="435.3" y="201.2" fill="gray" font-family="Linux Libertine O" font-size="10" font-weight="400" text-anchor="middle" id="text_4">
                        May
                    </text>
                </g>
            </g>
            <g id="matplotlib.axis_2">
                <g id="ytick_1">
                    <text x="25.6" y="176.2" fill="gray" font-family="Linux Libertine O" font-size="10" font-weight="400" text-anchor="end" id="text_5">
                        −40
                    </text>
                </g>
                <g id="ytick_2">
                    <text x="25.6" y="140.2" fill="gray" font-family="Linux Libertine O" font-size="10" font-weight="400" text-anchor="end" id="text_6">
                        −20
                    </text>
                </g>
                <g id="ytick_3">
                    <text x="25.6" y="104.2" fill="gray" font-family="Linux Libertine O" font-size="10" font-weight="400" text-anchor="end" id="text_7">
                        0
                    </text>
                </g>
                <g id="ytick_4">
                    <text x="25.6" y="68.3" fill="gray" font-family="Linux Libertine O" font-size="10" font-weight="400" text-anchor="end" id="text_8">
                        20
                    </text>
                </g>
                <g id="ytick_5">
                    <text x="25.6" y="32.3" fill="gray" font-family="Linux Libertine O" font-size="10" font-weight="400" text-anchor="end" id="text_9">
                        40
                    </text>
                </g>
            </g>
            <path clip-path="url(#p06509d54e3)" d="M244.8 133.1v-32.3" fill="none" stroke="#909090" stroke-dasharray="1,1.65" id="LineCollection_1"/>
            <path clip-path="url(#p06509d54e3)" d="M314 178.1v-77.3" fill="none" stroke="#909090" stroke-dasharray="1,1.65" id="LineCollection_2"/>
            <path clip-path="url(#p06509d54e3)" d="M375 160.1v-59.3" fill="none" stroke="#909090" stroke-dasharray="1,1.65" id="LineCollection_3"/>
            <path clip-path="url(#p06509d54e3)" d="M428 46.8v54" fill="none" stroke="#909090" stroke-dasharray="1,1.65" id="LineCollection_4"/>
            <path clip-path="url(#p06509d54e3)" d="M183.7 82.8v18" fill="none" stroke="#909090" stroke-dasharray="1,1.65" id="LineCollection_5"/>
            <path clip-path="url(#p06509d54e3)" d="M240.7 28.8v72" fill="none" stroke="#909090" stroke-dasharray="1,1.65" id="LineCollection_6"/>
            <path clip-path="url(#p06509d54e3)" d="M261 55.8v45" fill="none" stroke="#909090" stroke-dasharray="1,1.65" id="LineCollection_7"/>
            <path clip-path="url(#p06509d54e3)" d="M244.8 133.1v-32.3" fill="none" stroke="#909090" stroke-dasharray="1,1.65" id="LineCollection_8"/>
            <path clip-path="url(#p06509d54e3)" d="M314 178.1v-77.3" fill="none" stroke="#909090" stroke-dasharray="1,1.65" id="LineCollection_9"/>
            <path clip-path="url(#p06509d54e3)" d="M375 160.1v-59.3" fill="none" stroke="#909090" stroke-dasharray="1,1.65" id="LineCollection_10"/>
            <path clip-path="url(#p06509d54e3)" d="M428 46.8v54" fill="none" stroke="#909090" stroke-dasharray="1,1.65" id="LineCollection_11"/>
            <path clip-path="url(#p06509d54e3)" d="M183.7 82.8v18" fill="none" stroke="#909090" stroke-dasharray="1,1.65" id="LineCollection_12"/>
            <path clip-path="url(#p06509d54e3)" d="M240.7 28.8v72" fill="none" stroke="#909090" stroke-dasharray="1,1.65" id="LineCollection_13"/>
            <path clip-path="url(#p06509d54e3)" d="M261 55.8v45" fill="none" stroke="#909090" stroke-dasharray="1,1.65" id="LineCollection_14"/>
            <path clip-path="url(#p06509d54e3)" d="M29 100.8h456" fill="none" stroke="gray" stroke-linecap="square" stroke-width="1.5" id="line2d_10"/>
            <path clip-path="url(#p06509d54e3)" d="M49.4 87.4l4 12 4.1-14.6 8.2.1 8.1 21.4 4 7.4 4.2-11.3 69.2 1.8 8-17.4 4.2-2.4 4-6.4 4.1 3.2 4 17.9 4.1 11.8 4.1-2.6 4 1.9 4.2-2.2 4 5 4-2 4.2-2 4-3.2 4.1-.8 4-10.7 4.1 3 4.1-1 4-.3 4.2-.2 4-.1 4-2 4.2-3.1 4-3.1 4.1-2 4-2.5 4.1-.5 4.1.3 4 1.2 4.2 1.1 4 4 4.1.4 4-.8 4.1.1 4.1 1 4 .3 4.1 2 4.1 2.7h4l4.2-2 4-.3 4.1-5.2 4 .3 4.1-.2 4.1.8 4-2.7 4.1 6.4 4.1-3 4 4 4.2-1.8 4 1 4.1-3.9 4 4.2L371 89l4.1 2.7 4 3 4.1.3 4.1-6.3 4 3.2 4.2-1.2 4-2.8 4.1-.7 4 5.1 4.1-7.5 4.1.7 4 .4 4.1 2.4 4.1.5 4 10.1 4.2 3.4 4-3 4.1.7 4-.3 4.1-6.9 4.1-2 4 1.4 4.1-.4 4.1 1.1 4 5.3 4.2-2.1 4 3.1" fill="none" stroke="#0658cf" stroke-linecap="square" stroke-width="2" id="line2d_11"/>
            <path clip-path="url(#p06509d54e3)" d="M69.8 73.4l4 13.3 4 5.5 4.2 45.4 12.2-7.5 4-15.1 4.1-.6 8.2-7.3 4-22.3 4 6.1 4.2-2.7 8.1-34 16.3 17 4 7.8 12.3.8 4 14.7 4.1 38.2 4-17.8 4.1-7.4 4.1-5.8 4-.4 4.2-7.8 4 3.7 4 .5 4.2 4 4 5 4.1 2.9 4 .4 4.1-.3 4.1-.3 4-3 4.2-1.1 4-1.6 4 1.9 4.2-4.6 4-2.7 4.1-.3 4-4.2 4.1-1 4.1-1 4 .9 4.2-2.2 4 2 4.1.2 4 2.8 4.1 1.2 4.1 1.8 4 .4 4.1.3 4.1 1.1 4-3.2 4.2 1 4 .2 4.1-1.8 4-2.8 4.1 1.9 4.1 3.4 4 1 4.1 3.3 4.1-.9 4 1.2 4.2-5.2 4-.7 4.1-4.2 4 2h4.1l4.1 1.3 4-2 4.1 1.4 4.1-.1 4-.3 4.2-1 4 4.6 4.1 1.3 4 5 4.1-.3 4.1 4.6 4-3.2 4.1-1.4 4.1-4 4-.1 4.2-4.2 4-3 4.1-1 4-.5 4.1-.7 4.1-1.1 4 3.8 4.1 2.8 4.1-3.2 4 2 4.2.3 4-.4" fill="none" stroke="#f50" stroke-linecap="square" stroke-width="2" id="line2d_12"/>
            <g id="text_10" fill="#0658cf" font-family="Linux Libertine O" font-size="8" font-weight="400">
                <text transform="translate(244.8 137.2)">
                    First reported
                </text>
                <text transform="translate(244.8 145.7)">
                    death in Texas
                </text>
            </g>
            <g id="text_11" fill="#0658cf" font-family="Linux Libertine O" font-size="8" font-weight="400">
                <text transform="translate(314 182.1)">
                    Texas stay-at-home
                </text>
                <text transform="translate(314 190.7)">
                    order begins
                </text>
            </g>
            <g id="text_12" fill="#0658cf" font-family="Linux Libertine O" font-size="8" font-weight="400">
                <text transform="translate(375 164.1)">
                    Abbott announces end
                </text>
                <text transform="translate(375 172.7)">
                    of stay-at-home order
                </text>
            </g>
            <g id="text_13" fill="#0658cf" font-family="Linux Libertine O" font-size="8" font-weight="400">
                <text transform="translate(428 38.2)">
                    Texas stay-at-home
                </text>
                <text transform="translate(428 46.8)">
                    order ends
                </text>
            </g>
            <g id="text_14" fill="#f50" font-family="Linux Libertine O" font-size="8" font-weight="400">
                <text transform="translate(183.7 74.2)">
                    First reported
                </text>
                <text transform="translate(183.7 82.8)">
                    case in NYS
                </text>
            </g>
            <g id="text_15" fill="#f50" font-family="Linux Libertine O" font-size="8" font-weight="400">
                <text transform="translate(240.7 20.2)">
                    NYC public schools
                </text>
                <text transform="translate(240.7 28.8)">
                    ordered to close
                </text>
            </g>
            <g id="text_16" fill="#f50" font-family="Linux Libertine O" font-size="8" font-weight="400">
                <text transform="translate(261 47.2)">
                    Cuomo issues
                </text>
                <text transform="translate(261 55.8)">
                    stay-at-home order
                </text>
            </g>
            <g id="text_17" fill="#0658cf" font-family="Linux Libertine O" font-size="8" font-weight="400">
                <text transform="translate(244.8 137.2)">
                    First reported
                </text>
                <text transform="translate(244.8 145.7)">
                    death in Texas
                </text>
            </g>
            <g id="text_18" fill="#0658cf" font-family="Linux Libertine O" font-size="8" font-weight="400">
                <text transform="translate(314 182.1)">
                    Texas stay-at-home
                </text>
                <text transform="translate(314 190.7)">
                    order begins
                </text>
            </g>
            <g id="text_19" fill="#0658cf" font-family="Linux Libertine O" font-size="8" font-weight="400">
                <text transform="translate(375 164.1)">
                    Abbott announces end
                </text>
                <text transform="translate(375 172.7)">
                    of stay-at-home order
                </text>
            </g>
            <g id="text_20" fill="#0658cf" font-family="Linux Libertine O" font-size="8" font-weight="400">
                <text transform="translate(428 38.2)">
                    Texas stay-at-home
                </text>
                <text transform="translate(428 46.8)">
                    order ends
                </text>
            </g>
            <g id="text_21" fill="#f50" font-family="Linux Libertine O" font-size="8" font-weight="400">
                <text transform="translate(183.7 74.2)">
                    First reported
                </text>
                <text transform="translate(183.7 82.8)">
                    case in NYS
                </text>
            </g>
            <g id="text_22" fill="#f50" font-family="Linux Libertine O" font-size="8" font-weight="400">
                <text transform="translate(240.7 20.2)">
                    NYC public schools
                </text>
                <text transform="translate(240.7 28.8)">
                    ordered to close
                </text>
            </g>
            <g id="text_23" fill="#f50" font-family="Linux Libertine O" font-size="8" font-weight="400">
                <text transform="translate(261 47.2)">
                    Cuomo issues
                </text>
                <text transform="translate(261 55.8)">
                    stay-at-home order
                </text>
            </g>
        </g>
    </g>
    <defs>
        <clipPath id="p06509d54e3">
            <path d="M29.1 10.8H485v179.9H29.1z"/>
        </clipPath>
    </defs>
</svg>
