<?xml version="1.0" encoding="utf-8" standalone="no"?>
<!DOCTYPE svg PUBLIC "-//W3C//DTD SVG 1.1//EN"
  "http://www.w3.org/Graphics/SVG/1.1/DTD/svg11.dtd">
<!-- Created with matplotlib (https://matplotlib.org/) -->
<svg height="195.300313pt" version="1.1" viewBox="0 0 375.181818 195.300313" width="375.181818pt" xmlns="http://www.w3.org/2000/svg" xmlns:xlink="http://www.w3.org/1999/xlink">
 <defs>
  <style type="text/css">
*{stroke-linecap:butt;stroke-linejoin:round;}
  </style>
 </defs>
 <g id="figure_1">
  <g id="patch_1">
   <path d="M 0 195.300313 
L 375.181818 195.300313 
L 375.181818 0 
L 0 0 
z
" style="fill:none;"/>
  </g>
  <g id="axes_1">
   <g id="patch_2">
    <path d="M 20.379688 170.28 
L 355.179688 170.28 
L 355.179688 7.2 
L 20.379688 7.2 
z
" style="fill:none;"/>
   </g>
   <g id="patch_3">
    <path clip-path="url(#p80795f2a04)" d="M 109.607264 170.28 
L 109.607264 7.2 
L 271.965374 7.2 
L 271.965374 170.28 
z
" style="fill:#e8e8e8;stroke:#e8e8e8;stroke-linejoin:miter;"/>
   </g>
   <g id="matplotlib.axis_1">
    <g id="xtick_1">
     <g id="text_1">
      <text style="fill:#808080;font-family:Linux Libertine O;font-size:10px;font-style:normal;font-weight:normal;text-anchor:middle;" transform="rotate(-0, 35.597869, 185.759688)" x="35.597869" y="185.759688">Mar 4, 2003</text>
     </g>
    </g>
    <g id="xtick_2">
     <g id="text_2">
      <text style="fill:#808080;font-family:Linux Libertine O;font-size:10px;font-style:normal;font-weight:normal;text-anchor:middle;" transform="rotate(-0, 137.268276, 185.759688)" x="137.268276" y="185.759688">Mar 7, 2006</text>
     </g>
    </g>
    <g id="xtick_3">
     <g id="text_3">
      <text style="fill:#808080;font-family:Linux Libertine O;font-size:10px;font-style:normal;font-weight:normal;text-anchor:middle;" transform="rotate(-0, 238.291099, 185.759688)" x="238.291099" y="185.759688">Mar 3, 2009</text>
     </g>
    </g>
    <g id="xtick_4">
     <g id="text_4">
      <text style="fill:#808080;font-family:Linux Libertine O;font-size:10px;font-style:normal;font-weight:normal;text-anchor:middle;" transform="rotate(-0, 339.961506, 185.759688)" x="339.961506" y="185.759688">Mar 6, 2012</text>
     </g>
    </g>
   </g>
   <g id="matplotlib.axis_2">
    <g id="ytick_1">
     <g id="text_5">
      <text style="fill:#808080;font-family:Linux Libertine O;font-size:10px;font-style:normal;font-weight:normal;text-anchor:end;" transform="rotate(-0, 21.879688, 141.153844)" x="21.879688" y="141.153844">10 k</text>
     </g>
    </g>
    <g id="ytick_2">
     <g id="text_6">
      <text style="fill:#808080;font-family:Linux Libertine O;font-size:10px;font-style:normal;font-weight:normal;text-anchor:end;" transform="rotate(-0, 21.879688, 108.537844)" x="21.879688" y="108.537844">20 k</text>
     </g>
    </g>
    <g id="ytick_3">
     <g id="text_7">
      <text style="fill:#808080;font-family:Linux Libertine O;font-size:10px;font-style:normal;font-weight:normal;text-anchor:end;" transform="rotate(-0, 21.879688, 75.921844)" x="21.879688" y="75.921844">30 k</text>
     </g>
    </g>
    <g id="ytick_4">
     <g id="text_8">
      <text style="fill:#808080;font-family:Linux Libertine O;font-size:10px;font-style:normal;font-weight:normal;text-anchor:end;" transform="rotate(-0, 21.879688, 43.305844)" x="21.879688" y="43.305844">40 k</text>
     </g>
    </g>
   </g>
   <g id="line2d_1">
    <path clip-path="url(#p80795f2a04)" d="M 35.597869 42.164352 
L 137.268276 44.255038 
L 238.291099 44.228945 
L 339.961506 31.322794 
" style="fill:none;stroke:#d3d3d3;stroke-linecap:square;stroke-width:1.5;"/>
   </g>
   <g id="line2d_2">
    <path clip-path="url(#p80795f2a04)" d="M 35.597869 144.868874 
L 137.268276 138.355459 
L 238.291099 140.977786 
L 339.961506 137.243254 
" style="fill:none;stroke:#d3d3d3;stroke-linecap:square;stroke-width:1.5;"/>
   </g>
   <g id="text_9">
    <text style="font-family:Linux Libertine O;font-size:10px;font-style:normal;font-weight:normal;text-anchor:start;" transform="rotate(-0, 137.268276, 31.208638)" x="137.268276" y="31.208638">−1.6%</text>
   </g>
   <g id="text_10">
    <text style="font-family:Linux Libertine O;font-size:10px;font-style:normal;font-weight:normal;text-anchor:start;" transform="rotate(-0, 238.291099, 31.182545)" x="238.291099" y="31.182545">+0.0%</text>
   </g>
   <g id="text_11">
    <text style="font-family:Linux Libertine O;font-size:10px;font-style:normal;font-weight:normal;text-anchor:start;" transform="rotate(-0, 339.961506, 18.276394)" x="339.961506" y="18.276394">+10.2%</text>
   </g>
   <g id="text_12">
    <text style="font-family:Linux Libertine O;font-size:10px;font-style:normal;font-weight:normal;text-anchor:start;" transform="rotate(-0, 137.268276, 125.309059)" x="137.268276" y="125.309059">+25.6%</text>
   </g>
   <g id="text_13">
    <text style="font-family:Linux Libertine O;font-size:10px;font-style:normal;font-weight:normal;text-anchor:start;" transform="rotate(-0, 238.291099, 127.931386)" x="238.291099" y="127.931386">−8.2%</text>
   </g>
   <g id="text_14">
    <text style="font-family:Linux Libertine O;font-size:10px;font-style:normal;font-weight:normal;text-anchor:start;" transform="rotate(-0, 339.961506, 124.196854)" x="339.961506" y="124.196854">+12.7%</text>
   </g>
   <g id="PathCollection_1">
    <defs>
     <path d="M 0 3.535534 
C 0.937635 3.535534 1.836992 3.163008 2.5 2.5 
C 3.163008 1.836992 3.535534 0.937635 3.535534 0 
C 3.535534 -0.937635 3.163008 -1.836992 2.5 -2.5 
C 1.836992 -3.163008 0.937635 -3.535534 0 -3.535534 
C -0.937635 -3.535534 -1.836992 -3.163008 -2.5 -2.5 
C -3.163008 -1.836992 -3.535534 -0.937635 -3.535534 0 
C -3.535534 0.937635 -3.163008 1.836992 -2.5 2.5 
C -1.836992 3.163008 -0.937635 3.535534 0 3.535534 
z
" id="m493085ff15" style="stroke:#1b9e77;"/>
    </defs>
    <g clip-path="url(#p80795f2a04)">
     <use style="fill:#1b9e77;stroke:#1b9e77;" x="35.597869" xlink:href="#m493085ff15" y="42.164352"/>
     <use style="fill:#1b9e77;stroke:#1b9e77;" x="137.268276" xlink:href="#m493085ff15" y="44.255038"/>
     <use style="fill:#1b9e77;stroke:#1b9e77;" x="238.291099" xlink:href="#m493085ff15" y="44.228945"/>
     <use style="fill:#1b9e77;stroke:#1b9e77;" x="339.961506" xlink:href="#m493085ff15" y="31.322794"/>
    </g>
   </g>
   <g id="PathCollection_2">
    <defs>
     <path d="M 0 3.535534 
C 0.937635 3.535534 1.836992 3.163008 2.5 2.5 
C 3.163008 1.836992 3.535534 0.937635 3.535534 0 
C 3.535534 -0.937635 3.163008 -1.836992 2.5 -2.5 
C 1.836992 -3.163008 0.937635 -3.535534 0 -3.535534 
C -0.937635 -3.535534 -1.836992 -3.163008 -2.5 -2.5 
C -3.163008 -1.836992 -3.535534 -0.937635 -3.535534 0 
C -3.535534 0.937635 -3.163008 1.836992 -2.5 2.5 
C -1.836992 3.163008 -0.937635 3.535534 0 3.535534 
z
" id="mb80c412a43" style="stroke:#d95f02;"/>
    </defs>
    <g clip-path="url(#p80795f2a04)">
     <use style="fill:#d95f02;stroke:#d95f02;" x="35.597869" xlink:href="#mb80c412a43" y="144.868874"/>
     <use style="fill:#d95f02;stroke:#d95f02;" x="137.268276" xlink:href="#mb80c412a43" y="138.355459"/>
     <use style="fill:#d95f02;stroke:#d95f02;" x="238.291099" xlink:href="#mb80c412a43" y="140.977786"/>
     <use style="fill:#d95f02;stroke:#d95f02;" x="339.961506" xlink:href="#mb80c412a43" y="137.243254"/>
    </g>
   </g>
  </g>
 </g>
 <defs>
  <clipPath id="p80795f2a04">
   <rect height="163.08" width="334.8" x="20.379688" y="7.2"/>
  </clipPath>
 </defs>
</svg>
