<?xml version="1.0" encoding="UTF-8" standalone="no"?>
<!DOCTYPE svg PUBLIC "-//W3C//DTD SVG 1.1//EN"
 "http://www.w3.org/Graphics/SVG/1.1/DTD/svg11.dtd">
<!-- Generated by graphviz version 2.40.1 (20161225.0304)
 -->
<!-- Title: rnn Pages: 1 -->
<svg width="211pt" height="404pt"
 viewBox="0.00 0.00 210.50 404.00" xmlns="http://www.w3.org/2000/svg" xmlns:xlink="http://www.w3.org/1999/xlink">
<g id="graph0" class="graph" transform="scale(1 1) rotate(0) translate(4 400)">
<title>rnn</title>
<polygon fill="#ffffff" stroke="transparent" points="-4,4 -4,-400 206.5,-400 206.5,4 -4,4"/>
<!-- Vectorized document -->
<g id="node1" class="node">
<title>Vectorized document</title>
<text text-anchor="middle" x="78" y="-374.2" font-family="Linux Libertine O" font-size="16.00" fill="#000000">Vectorized document</text>
</g>
<!-- Embedding layer -->
<g id="node2" class="node">
<title>Embedding layer</title>
<text text-anchor="middle" x="78" y="-302.2" font-family="Linux Libertine O" font-size="16.00" fill="#000000">Embedding layer</text>
</g>
<!-- Vectorized document&#45;&gt;Embedding layer -->
<g id="edge1" class="edge">
<title>Vectorized document&#45;&gt;Embedding layer</title>
<path fill="none" stroke="#000000" d="M78,-359.8314C78,-352.131 78,-342.9743 78,-334.4166"/>
<polygon fill="#000000" stroke="#000000" points="81.5001,-334.4132 78,-324.4133 74.5001,-334.4133 81.5001,-334.4132"/>
</g>
<!-- GRU -->
<g id="node3" class="node">
<title>GRU</title>
<text text-anchor="middle" x="78" y="-230.2" font-family="Linux Libertine O" font-size="16.00" fill="#000000">GRU</text>
</g>
<!-- Embedding layer&#45;&gt;GRU -->
<g id="edge2" class="edge">
<title>Embedding layer&#45;&gt;GRU</title>
<path fill="none" stroke="#000000" d="M78,-287.8314C78,-280.131 78,-270.9743 78,-262.4166"/>
<polygon fill="#000000" stroke="#000000" points="81.5001,-262.4132 78,-252.4133 74.5001,-262.4133 81.5001,-262.4132"/>
</g>
<!-- Concatenate -->
<g id="node4" class="node">
<title>Concatenate</title>
<text text-anchor="middle" x="120" y="-158.2" font-family="Linux Libertine O" font-size="16.00" fill="#000000">Concatenate</text>
</g>
<!-- GRU&#45;&gt;Concatenate -->
<g id="edge3" class="edge">
<title>GRU&#45;&gt;Concatenate</title>
<path fill="none" stroke="#000000" d="M88.5984,-215.8314C93.2877,-207.7925 98.9028,-198.1666 104.0798,-189.2918"/>
<polygon fill="#000000" stroke="#000000" points="107.2434,-190.8146 109.2589,-180.4133 101.1969,-187.2875 107.2434,-190.8146"/>
</g>
<!-- Dense layers -->
<g id="node5" class="node">
<title>Dense layers</title>
<text text-anchor="middle" x="120" y="-86.2" font-family="Linux Libertine O" font-size="16.00" fill="#000000">Dense layers</text>
</g>
<!-- Concatenate&#45;&gt;Dense layers -->
<g id="edge4" class="edge">
<title>Concatenate&#45;&gt;Dense layers</title>
<path fill="none" stroke="#000000" d="M120,-143.8314C120,-136.131 120,-126.9743 120,-118.4166"/>
<polygon fill="#000000" stroke="#000000" points="123.5001,-118.4132 120,-108.4133 116.5001,-118.4133 123.5001,-118.4132"/>
</g>
<!-- Output -->
<g id="node6" class="node">
<title>Output</title>
<text text-anchor="middle" x="120" y="-14.2" font-family="Linux Libertine O" font-size="16.00" fill="#000000">Output</text>
</g>
<!-- Dense layers&#45;&gt;Output -->
<g id="edge5" class="edge">
<title>Dense layers&#45;&gt;Output</title>
<path fill="none" stroke="#000000" d="M120,-71.8314C120,-64.131 120,-54.9743 120,-46.4166"/>
<polygon fill="#000000" stroke="#000000" points="123.5001,-46.4132 120,-36.4133 116.5001,-46.4133 123.5001,-46.4132"/>
</g>
<!-- Metadata -->
<g id="node7" class="node">
<title>Metadata</title>
<text text-anchor="middle" x="163" y="-230.2" font-family="Linux Libertine O" font-size="16.00" fill="#000000">Metadata</text>
</g>
<!-- Metadata&#45;&gt;Concatenate -->
<g id="edge6" class="edge">
<title>Metadata&#45;&gt;Concatenate</title>
<path fill="none" stroke="#000000" d="M152.1493,-215.8314C147.2977,-207.7079 141.4783,-197.9637 136.132,-189.0118"/>
<polygon fill="#000000" stroke="#000000" points="139.1292,-187.2041 130.9968,-180.4133 133.1194,-190.7933 139.1292,-187.2041"/>
</g>
</g>
</svg>
