<?xml version="1.0" encoding="utf-8" standalone="no"?>
<!DOCTYPE svg PUBLIC "-//W3C//DTD SVG 1.1//EN"
  "http://www.w3.org/Graphics/SVG/1.1/DTD/svg11.dtd">
<!-- Created with matplotlib (https://matplotlib.org/) -->
<svg height="204.675938pt" version="1.1" viewBox="0 0 503.01315 204.675938" width="503.01315pt" xmlns="http://www.w3.org/2000/svg" xmlns:xlink="http://www.w3.org/1999/xlink">
 <defs>
  <style type="text/css">
*{stroke-linecap:butt;stroke-linejoin:round;}
  </style>
 </defs>
 <g id="figure_1">
  <g id="patch_1">
   <path d="M 0 204.675938 
L 503.01315 204.675938 
L 503.01315 0 
L 0 0 
z
" style="fill:none;"/>
  </g>
  <g id="axes_1">
   <g id="patch_2">
    <path d="M 29.770312 184.655625 
L 232.679403 184.655625 
L 232.679403 21.575625 
L 29.770312 21.575625 
z
" style="fill:none;"/>
   </g>
   <g id="patch_3">
    <path clip-path="url(#pe766b2a4ad)" d="M 73.274152 184.655625 
L 73.274152 21.575625 
L 223.456263 21.575625 
L 223.456263 184.655625 
z
" style="fill:#e8e8e8;stroke:#e8e8e8;stroke-linejoin:miter;"/>
   </g>
   <g id="matplotlib.axis_1">
    <g id="xtick_1">
     <g id="line2d_1"/>
     <g id="text_1">
      <text style="fill:#808080;font-family:Linux Libertine O;font-size:10px;font-style:normal;font-weight:normal;text-anchor:middle;" transform="rotate(-0, 38.993453, 195.135312)" x="38.993453" y="195.135312">Mar</text>
     </g>
    </g>
    <g id="xtick_2">
     <g id="line2d_2"/>
     <g id="text_2">
      <text style="fill:#808080;font-family:Linux Libertine O;font-size:10px;font-style:normal;font-weight:normal;text-anchor:middle;" transform="rotate(-0, 89.598295, 195.135312)" x="89.598295" y="195.135312">Apr</text>
     </g>
    </g>
    <g id="xtick_3">
     <g id="line2d_3"/>
     <g id="text_3">
      <text style="fill:#808080;font-family:Linux Libertine O;font-size:10px;font-style:normal;font-weight:normal;text-anchor:middle;" transform="rotate(-0, 138.570722, 195.135312)" x="138.570722" y="195.135312">May</text>
     </g>
    </g>
    <g id="xtick_4">
     <g id="line2d_4"/>
     <g id="text_4">
      <text style="fill:#808080;font-family:Linux Libertine O;font-size:10px;font-style:normal;font-weight:normal;text-anchor:middle;" transform="rotate(-0, 189.175564, 195.135312)" x="189.175564" y="195.135312">Jun</text>
     </g>
    </g>
   </g>
   <g id="matplotlib.axis_2">
    <g id="ytick_1">
     <g id="line2d_5"/>
     <g id="text_5">
      <text style="fill:#808080;font-family:Linux Libertine O;font-size:10px;font-style:normal;font-weight:normal;text-anchor:end;" transform="rotate(-0, 26.270312, 122.913469)" x="26.270312" y="122.913469">100k</text>
     </g>
    </g>
    <g id="ytick_2">
     <g id="line2d_6"/>
     <g id="text_6">
      <text style="fill:#808080;font-family:Linux Libertine O;font-size:10px;font-style:normal;font-weight:normal;text-anchor:end;" transform="rotate(-0, 26.270312, 57.681469)" x="26.270312" y="57.681469">200k</text>
     </g>
    </g>
   </g>
   <g id="line2d_7">
    <path clip-path="url(#pe766b2a4ad)" d="M 38.993453 184.654973 
L 40.625867 184.654973 
L 42.258281 184.65432 
L 43.890696 184.65432 
L 45.52311 184.653016 
L 47.155524 184.652363 
L 48.787938 184.647797 
L 50.420353 184.646493 
L 52.052767 184.642579 
L 53.685181 184.631489 
L 55.317595 184.621704 
L 56.95001 184.593002 
L 58.582424 184.554515 
L 60.214838 184.480151 
L 61.847252 184.440359 
L 63.479667 184.352949 
L 65.112081 184.234226 
L 66.744495 183.778907 
L 68.376909 183.039828 
L 70.009324 181.773023 
L 71.641738 180.594281 
L 73.274152 178.742344 
L 74.906566 176.613172 
L 76.538981 174.908007 
L 78.171395 171.569433 
L 79.803809 169.533543 
L 81.436223 168.015594 
L 83.068638 164.486543 
L 84.701052 162.487834 
L 86.333466 159.622845 
L 87.96588 156.267963 
L 89.598295 153.400365 
L 91.230709 150.474057 
L 92.863123 146.859552 
L 94.495537 142.728409 
L 96.127952 139.824281 
L 97.760366 136.675532 
L 99.39278 133.44981 
L 101.025194 130.074054 
L 102.657609 126.5163 
L 104.290023 122.879616 
L 105.922437 118.875676 
L 107.554851 115.549497 
L 109.187266 113.092207 
L 110.81968 110.531199 
L 112.452094 105.29894 
L 114.084508 102.05691 
L 115.716923 99.199748 
L 117.349337 96.558504 
L 118.981751 94.394107 
L 120.614165 92.756131 
L 122.24658 91.017046 
L 123.878994 88.903529 
L 125.511408 86.594316 
L 127.143822 83.493187 
L 128.776237 80.381621 
L 130.408651 78.258319 
L 132.041065 76.720801 
L 133.673479 75.400505 
L 135.305894 73.680337 
L 136.938308 71.945166 
L 138.570722 70.544635 
L 140.203136 68.875348 
L 141.835551 67.415456 
L 143.467965 66.563526 
L 145.100379 65.725947 
L 146.732793 64.778779 
L 148.365208 63.55046 
L 149.997622 62.569371 
L 151.630036 61.586977 
L 153.26245 60.939223 
L 154.894865 60.358658 
L 156.527279 59.853763 
L 158.159693 59.153171 
L 159.792107 58.325377 
L 161.424522 57.14533 
L 163.056936 56.487139 
L 164.68935 55.831557 
L 166.321764 55.421901 
L 167.954179 55.033118 
L 169.586593 54.588236 
L 171.219007 53.860899 
L 172.851421 53.344914 
L 174.483836 52.846541 
L 176.11625 52.279675 
L 177.748664 51.863495 
L 179.381078 51.509937 
L 181.013492 51.072883 
L 182.645907 50.372944 
L 184.278321 49.755849 
L 185.910735 49.273785 
L 187.543149 48.917618 
L 189.175564 48.614289 
L 190.807978 48.193543 
L 192.440392 47.871949 
L 194.072806 47.520348 
L 195.705221 47.193536 
L 197.337635 46.837369 
L 198.970049 46.541216 
L 200.602463 46.284202 
L 202.234878 46.057847 
L 203.867292 45.787134 
L 205.499706 45.534686 
L 207.13212 45.250275 
L 208.764535 44.901284 
L 210.396949 44.65014 
L 212.029363 44.399649 
L 213.661777 44.183732 
L 215.294192 43.959333 
L 216.926606 43.746025 
L 218.55902 43.479878 
L 220.191434 43.230692 
L 221.823849 42.978897 
" style="fill:none;stroke:#081220;stroke-linecap:square;stroke-width:1.5;"/>
   </g>
   <g id="line2d_8">
    <path clip-path="url(#pe766b2a4ad)" d="M 38.993453 184.655625 
L 40.625867 184.655625 
L 42.258281 184.655625 
L 43.890696 184.655625 
L 45.52311 184.655625 
L 47.155524 184.655625 
L 48.787938 184.655625 
L 50.420353 184.655625 
L 52.052767 184.655625 
L 53.685181 184.655625 
L 55.317595 184.655625 
L 56.95001 184.655625 
L 58.582424 184.655625 
L 60.214838 184.654973 
L 61.847252 184.652363 
L 63.479667 184.651059 
L 65.112081 184.648449 
L 66.744495 184.639317 
L 68.376909 184.635403 
L 70.009324 184.6204 
L 71.641738 184.606701 
L 73.274152 184.577999 
L 74.906566 184.554515 
L 76.538981 184.505591 
L 78.171395 184.440359 
L 79.803809 184.371866 
L 81.436223 184.290326 
L 83.068638 184.117461 
L 84.701052 184.009176 
L 86.333466 183.871536 
L 87.96588 183.693453 
L 89.598295 183.450138 
L 91.230709 183.251832 
L 92.863123 182.928282 
L 94.495537 182.554502 
L 96.127952 182.277266 
L 97.760366 181.487307 
L 99.39278 180.982411 
L 101.025194 180.454032 
L 102.657609 179.926957 
L 104.290023 179.449459 
L 105.922437 178.958262 
L 107.554851 178.492506 
L 109.187266 178.069802 
L 110.81968 177.573387 
L 112.452094 177.110892 
L 114.084508 176.756682 
L 115.716923 176.643178 
L 117.349337 176.559681 
L 118.981751 175.763199 
L 120.614165 175.474873 
L 122.24658 175.188505 
L 123.878994 174.89757 
L 125.511408 174.635337 
L 127.143822 174.378976 
L 128.776237 174.123266 
L 130.408651 173.901477 
L 132.041065 173.68295 
L 133.673479 173.431807 
L 135.305894 173.17675 
L 136.938308 173.038458 
L 138.570722 172.958875 
L 140.203136 172.900166 
L 141.835551 172.619669 
L 143.467965 172.535519 
L 145.100379 172.444847 
L 146.732793 172.266111 
L 148.365208 172.169568 
L 149.997622 172.124558 
L 151.630036 172.050193 
L 153.26245 171.977133 
L 154.894865 171.894289 
L 156.527279 171.781437 
L 158.159693 171.729904 
L 159.792107 171.671848 
L 161.424522 171.62749 
L 163.056936 171.56291 
L 164.68935 171.469629 
L 166.321764 171.414834 
L 167.954179 171.363953 
L 169.586593 171.333946 
L 171.219007 171.288936 
L 172.851421 171.238055 
L 174.483836 171.204134 
L 176.11625 171.154558 
L 177.748664 171.126508 
L 179.381078 171.090631 
L 181.013492 171.058667 
L 182.645907 171.025399 
L 184.278321 170.982998 
L 185.910735 170.962776 
L 187.543149 170.924289 
L 189.175564 170.898196 
L 190.807978 170.870799 
L 192.440392 170.846011 
L 194.072806 170.804262 
L 195.705221 170.785997 
L 197.337635 170.765123 
L 198.970049 170.746206 
L 200.602463 170.724679 
L 202.234878 170.698586 
L 203.867292 170.672493 
L 205.499706 170.651619 
L 207.13212 170.618351 
L 208.764535 170.597477 
L 210.396949 170.579864 
L 212.029363 170.565513 
L 213.661777 170.553119 
L 215.294192 170.536159 
L 216.926606 170.517894 
L 218.55902 170.493758 
L 220.191434 170.487887 
L 221.823849 170.465708 
" style="fill:none;stroke:#ce2a07;stroke-linecap:square;stroke-width:1.5;"/>
   </g>
   <g id="text_7">
    <text style="fill:#081220;font-family:Linux Libertine O;font-size:10px;font-style:normal;font-weight:normal;text-anchor:start;" transform="rotate(-0, 225.088677, 43.631217)" x="225.088677" y="43.631217">217,189</text>
   </g>
   <g id="text_8">
    <text style="fill:#ce2a07;font-family:Linux Libertine O;font-size:10px;font-style:normal;font-weight:normal;text-anchor:start;" transform="rotate(-0, 225.088677, 171.118028)" x="225.088677" y="171.118028">21,753</text>
   </g>
   <g id="text_9">
    <text style="font-family:Linux Libertine O;font-size:12px;font-style:normal;font-weight:normal;text-anchor:middle;" transform="rotate(-0, 131.224858, 15.575625)" x="131.224858" y="15.575625">New York City</text>
   </g>
  </g>
  <g id="axes_2">
   <g id="patch_4">
    <path d="M 273.261222 184.655625 
L 476.170312 184.655625 
L 476.170312 21.575625 
L 273.261222 21.575625 
z
" style="fill:none;"/>
   </g>
   <g id="patch_5">
    <path clip-path="url(#p92593a4b43)" d="M 330.308054 184.655625 
L 330.308054 21.575625 
L 378.131745 21.575625 
L 378.131745 184.655625 
z
" style="fill:#e8e8e8;stroke:#e8e8e8;stroke-linejoin:miter;"/>
   </g>
   <g id="matplotlib.axis_3">
    <g id="xtick_5">
     <g id="line2d_9"/>
     <g id="text_10">
      <text style="fill:#808080;font-family:Linux Libertine O;font-size:10px;font-style:normal;font-weight:normal;text-anchor:middle;" transform="rotate(-0, 275.652406, 195.135312)" x="275.652406" y="195.135312">Mar</text>
     </g>
    </g>
    <g id="xtick_6">
     <g id="line2d_10"/>
     <g id="text_11">
      <text style="fill:#808080;font-family:Linux Libertine O;font-size:10px;font-style:normal;font-weight:normal;text-anchor:middle;" transform="rotate(-0, 328.600065, 195.135312)" x="328.600065" y="195.135312">Apr</text>
     </g>
    </g>
    <g id="xtick_7">
     <g id="line2d_11"/>
     <g id="text_12">
      <text style="fill:#808080;font-family:Linux Libertine O;font-size:10px;font-style:normal;font-weight:normal;text-anchor:middle;" transform="rotate(-0, 379.839734, 195.135312)" x="379.839734" y="195.135312">May</text>
     </g>
    </g>
    <g id="xtick_8">
     <g id="line2d_12"/>
     <g id="text_13">
      <text style="fill:#808080;font-family:Linux Libertine O;font-size:10px;font-style:normal;font-weight:normal;text-anchor:middle;" transform="rotate(-0, 432.787392, 195.135312)" x="432.787392" y="195.135312">Jun</text>
     </g>
    </g>
   </g>
   <g id="matplotlib.axis_4"/>
   <g id="line2d_13">
    <path clip-path="url(#p92593a4b43)" d="M 282.484362 184.653016 
L 284.192351 184.652363 
L 285.90034 184.652363 
L 287.608329 184.651711 
L 289.316318 184.651711 
L 291.024307 184.651059 
L 292.732296 184.651059 
L 294.440285 184.649754 
L 296.148274 184.649102 
L 297.856263 184.648449 
L 299.564252 184.647145 
L 301.272241 184.647145 
L 302.98023 184.645188 
L 304.688219 184.63736 
L 306.396208 184.632794 
L 308.104197 184.619747 
L 309.812186 184.611267 
L 311.520175 184.607353 
L 313.228164 184.604744 
L 314.936153 184.568214 
L 316.644142 184.534946 
L 318.352131 184.523204 
L 320.06012 184.506244 
L 321.768109 184.365343 
L 323.476098 184.312505 
L 325.184087 184.288369 
L 326.892076 184.212047 
L 328.600065 184.10311 
L 330.308054 184.071799 
L 332.016043 183.979821 
L 333.724032 183.818046 
L 335.43202 183.745639 
L 337.140009 183.475578 
L 338.847998 183.255746 
L 340.555987 183.128544 
L 342.263976 182.668006 
L 343.971965 182.528409 
L 345.679954 182.332713 
L 347.387943 182.288356 
L 349.095932 182.211382 
L 350.803921 182.107011 
L 352.51191 181.98307 
L 354.219899 181.846735 
L 355.927888 181.746278 
L 357.635877 181.62038 
L 359.343866 181.509486 
L 361.051855 181.409028 
L 362.759844 181.300743 
L 364.467833 181.256385 
L 366.175822 181.178759 
L 367.883811 181.079607 
L 369.5918 180.984368 
L 371.299789 180.918484 
L 373.007778 180.854556 
L 374.715767 180.750837 
L 376.423756 180.636681 
L 378.131745 180.509479 
L 379.839734 180.382277 
L 381.547723 180.279862 
L 383.255712 180.195061 
L 384.963701 180.110912 
L 386.67169 180.005888 
L 388.379679 179.930219 
L 390.087668 179.84346 
L 391.795657 179.701907 
L 393.503646 179.565572 
L 395.211635 179.516648 
L 396.919624 179.322257 
L 398.627613 179.1657 
L 400.335602 179.031974 
L 402.043591 178.90412 
L 403.75158 178.752129 
L 405.459569 178.702553 
L 407.167558 178.481416 
L 408.875547 178.370522 
L 410.583536 178.224402 
L 412.291525 178.070455 
L 413.999514 177.947818 
L 415.707503 177.789305 
L 417.415492 177.630139 
L 419.123481 177.531638 
L 420.83147 177.531638 
L 422.539459 177.296803 
L 424.247447 177.126548 
L 425.955436 176.977819 
L 427.663425 176.821914 
L 429.371414 176.684275 
L 431.079403 176.647745 
L 432.787392 176.394645 
L 434.495381 176.157852 
L 436.20337 176.000643 
L 437.911359 175.782116 
L 439.619348 175.562284 
L 441.327337 175.247214 
L 443.035326 175.140885 
L 444.743315 174.924315 
L 446.451304 174.715573 
L 448.159293 174.510744 
L 449.867282 174.307221 
L 451.575271 174.095869 
L 453.28326 173.847987 
L 454.991249 173.711 
L 456.699238 173.382231 
L 458.407227 173.104995 
L 460.115216 172.811451 
L 461.823205 172.553784 
L 463.531194 171.779481 
L 465.239183 171.039097 
L 466.947172 170.922332 
" style="fill:none;stroke:#081220;stroke-linecap:square;stroke-width:1.5;"/>
   </g>
   <g id="line2d_14">
    <path clip-path="url(#p92593a4b43)" d="M 282.484362 184.655625 
L 284.192351 184.655625 
L 285.90034 184.655625 
L 287.608329 184.655625 
L 289.316318 184.655625 
L 291.024307 184.655625 
L 292.732296 184.655625 
L 294.440285 184.655625 
L 296.148274 184.655625 
L 297.856263 184.655625 
L 299.564252 184.655625 
L 301.272241 184.655625 
L 302.98023 184.655625 
L 304.688219 184.655625 
L 306.396208 184.654973 
L 308.104197 184.654973 
L 309.812186 184.654973 
L 311.520175 184.654973 
L 313.228164 184.654973 
L 314.936153 184.654973 
L 316.644142 184.654973 
L 318.352131 184.65432 
L 320.06012 184.65432 
L 321.768109 184.653668 
L 323.476098 184.653016 
L 325.184087 184.651059 
L 326.892076 184.651711 
L 328.600065 184.651711 
L 330.308054 184.649102 
L 332.016043 184.647797 
L 333.724032 184.644536 
L 335.43202 184.642579 
L 337.140009 184.641274 
L 338.847998 184.640622 
L 340.555987 184.635403 
L 342.263976 184.633446 
L 343.971965 184.629532 
L 345.679954 184.62888 
L 347.387943 184.626923 
L 349.095932 184.625618 
L 350.803921 184.621704 
L 352.51191 184.61779 
L 354.219899 184.614529 
L 355.927888 184.61192 
L 357.635877 184.60931 
L 359.343866 184.606701 
L 361.051855 184.604744 
L 362.759844 184.604092 
L 364.467833 184.603439 
L 366.175822 184.602135 
L 367.883811 184.60083 
L 369.5918 184.597569 
L 371.299789 184.594959 
L 373.007778 184.591698 
L 374.715767 184.588436 
L 376.423756 184.584522 
L 378.131745 184.581261 
L 379.839734 184.576042 
L 381.547723 184.571476 
L 383.255712 184.568866 
L 384.963701 184.5643 
L 386.67169 184.561691 
L 388.379679 184.557777 
L 390.087668 184.555168 
L 391.795657 184.551254 
L 393.503646 184.546035 
L 395.211635 184.543426 
L 396.919624 184.53886 
L 398.627613 184.53625 
L 400.335602 184.532989 
L 402.043591 184.529727 
L 403.75158 184.529727 
L 405.459569 184.522552 
L 407.167558 184.522552 
L 408.875547 184.521899 
L 410.583536 184.520595 
L 412.291525 184.518638 
L 413.999514 184.514724 
L 415.707503 184.514072 
L 417.415492 184.512767 
L 419.123481 184.512115 
L 420.83147 184.512115 
L 422.539459 184.511462 
L 424.247447 184.510158 
L 425.955436 184.509505 
L 427.663425 184.506896 
L 429.371414 184.504939 
L 431.079403 184.504287 
L 432.787392 184.50233 
L 434.495381 184.501677 
L 436.20337 184.498416 
L 437.911359 184.494502 
L 439.619348 184.490588 
L 441.327337 184.486674 
L 443.035326 184.485369 
L 444.743315 184.484717 
L 446.451304 184.484717 
L 448.159293 184.481456 
L 449.867282 184.481456 
L 451.575271 184.478846 
L 453.28326 184.476237 
L 454.991249 184.476237 
L 456.699238 184.470366 
L 458.407227 184.467105 
L 460.115216 184.461234 
L 461.823205 184.456667 
L 463.531194 184.452753 
L 465.239183 184.445578 
L 466.947172 184.443621 
" style="fill:none;stroke:#ce2a07;stroke-linecap:square;stroke-width:1.5;"/>
   </g>
   <g id="text_14">
    <text style="fill:#081220;font-family:Linux Libertine O;font-size:10px;font-style:normal;font-weight:normal;text-anchor:start;" transform="rotate(-0, 470.36315, 171.574652)" x="470.36315" y="171.574652">21,053</text>
   </g>
   <g id="text_15">
    <text style="fill:#ce2a07;font-family:Linux Libertine O;font-size:10px;font-style:normal;font-weight:normal;text-anchor:start;" transform="rotate(-0, 470.36315, 185.095941)" x="470.36315" y="185.095941">325</text>
   </g>
   <g id="text_16">
    <text style="font-family:Linux Libertine O;font-size:12px;font-style:normal;font-weight:normal;text-anchor:middle;" transform="rotate(-0, 374.715767, 15.575625)" x="374.715767" y="15.575625">Harris County, Texas</text>
   </g>
  </g>
 </g>
 <defs>
  <clipPath id="pe766b2a4ad">
   <rect height="163.08" width="202.909091" x="29.770312" y="21.575625"/>
  </clipPath>
  <clipPath id="p92593a4b43">
   <rect height="163.08" width="202.909091" x="273.261222" y="21.575625"/>
  </clipPath>
 </defs>
</svg>
