<?xml version="1.0" encoding="utf-8" standalone="no"?>
<!DOCTYPE svg PUBLIC "-//W3C//DTD SVG 1.1//EN"
  "http://www.w3.org/Graphics/SVG/1.1/DTD/svg11.dtd">
<!-- Created with matplotlib (https://matplotlib.org/) -->
<svg height="41.58pt" version="1.1" viewBox="0 0 471.25 41.58" width="471.25pt" xmlns="http://www.w3.org/2000/svg" xmlns:xlink="http://www.w3.org/1999/xlink">
 <defs>
  <style type="text/css">
*{stroke-linecap:butt;stroke-linejoin:round;}
  </style>
 </defs>
 <g id="figure_1">
  <g id="patch_1">
   <path d="M 0 41.58 
L 471.25 41.58 
L 471.25 0 
L 0 0 
z
" style="fill:none;"/>
  </g>
  <g id="axes_1">
   <g id="patch_2">
    <path d="M 17.65 34.38 
L 464.05 34.38 
L 464.05 7.2 
L 17.65 7.2 
z
" style="fill:none;"/>
   </g>
   <g id="patch_3">
    <path clip-path="url(#pfdaa00678a)" d="M 17.65 20.79 
L 371.935714 20.79 
L 371.935714 8.435455 
L 17.65 8.435455 
z
" style="fill:#913140;stroke:#ffffff;stroke-linejoin:miter;"/>
   </g>
   <g id="patch_4">
    <path clip-path="url(#pfdaa00678a)" d="M 17.65 33.144545 
L 301.078571 33.144545 
L 301.078571 20.79 
L 17.65 20.79 
z
" style="fill:#e6ab02;stroke:#ffffff;stroke-linejoin:miter;"/>
   </g>
   <g id="patch_5">
    <path clip-path="url(#pfdaa00678a)" d="M 371.935714 20.79 
L 371.935714 20.79 
L 371.935714 8.435455 
L 371.935714 8.435455 
z
" style="fill:#a6761d;stroke:#ffffff;stroke-linejoin:miter;"/>
   </g>
   <g id="patch_6">
    <path clip-path="url(#pfdaa00678a)" d="M 301.078571 33.144545 
L 407.364286 33.144545 
L 407.364286 20.79 
L 301.078571 20.79 
z
" style="fill:#a6761d;stroke:#ffffff;stroke-linejoin:miter;"/>
   </g>
   <g id="matplotlib.axis_1"/>
   <g id="matplotlib.axis_2">
    <g id="ytick_1">
     <g id="text_1">
      <text style="fill:#808080;font-family:Linux Libertine O;font-size:10px;font-style:normal;font-weight:normal;text-anchor:end;" transform="rotate(-0, 14.15, 18.102571)" x="14.15" y="18.102571">A</text>
     </g>
    </g>
    <g id="ytick_2">
     <g id="text_2">
      <text style="fill:#808080;font-family:Linux Libertine O;font-size:10px;font-style:normal;font-weight:normal;text-anchor:end;" transform="rotate(-0, 14.15, 30.457116)" x="14.15" y="30.457116">B</text>
     </g>
    </g>
   </g>
   <g id="text_3">
    <text style="fill:#808080;font-family:Linux Libertine O;font-size:10px;font-style:normal;font-weight:normal;text-anchor:start;" transform="rotate(-0, 373.795714, 18.319091)" x="373.795714" y="18.319091">48%</text>
   </g>
   <g id="text_4">
    <text style="fill:#808080;font-family:Linux Libertine O;font-size:10px;font-style:normal;font-weight:normal;text-anchor:start;" transform="rotate(-0, 409.224286, 30.673636)" x="409.224286" y="30.673636">52%</text>
   </g>
  </g>
 </g>
 <defs>
  <clipPath id="pfdaa00678a">
   <rect height="27.18" width="446.4" x="17.65" y="7.2"/>
  </clipPath>
 </defs>
</svg>
