<?xml version="1.0" encoding="utf-8" standalone="no"?>
<!DOCTYPE svg PUBLIC "-//W3C//DTD SVG 1.1//EN"
  "http://www.w3.org/Graphics/SVG/1.1/DTD/svg11.dtd">
<!-- Created with matplotlib (https://matplotlib.org/) -->
<svg height="59.400312pt" version="1.1" viewBox="0 0 148.145871 59.400312" width="148.145871pt" xmlns="http://www.w3.org/2000/svg" xmlns:xlink="http://www.w3.org/1999/xlink">
 <metadata>
  <rdf:RDF xmlns:cc="http://creativecommons.org/ns#" xmlns:dc="http://purl.org/dc/elements/1.1/" xmlns:rdf="http://www.w3.org/1999/02/22-rdf-syntax-ns#">
   <cc:Work>
    <dc:type rdf:resource="http://purl.org/dc/dcmitype/StillImage"/>
    <dc:date>2020-10-26T17:10:57.616274</dc:date>
    <dc:format>image/svg+xml</dc:format>
    <dc:creator>
     <cc:Agent>
      <dc:title>Matplotlib v3.3.2, https://matplotlib.org/</dc:title>
     </cc:Agent>
    </dc:creator>
   </cc:Work>
  </rdf:RDF>
 </metadata>
 <defs>
  <style type="text/css">*{stroke-linecap:butt;stroke-linejoin:round;}</style>
 </defs>
 <g id="figure_1">
  <g id="patch_1">
   <path d="M 0 59.400312 
L 148.145871 59.400312 
L 148.145871 0 
L 0 0 
z
" style="fill:none;"/>
  </g>
  <g id="axes_1">
   <g id="patch_2">
    <path d="M 24.5 34.38 
L 136.1 34.38 
L 136.1 7.2 
L 24.5 7.2 
z
" style="fill:none;"/>
   </g>
   <g id="patch_3">
    <path clip-path="url(#p4212d0b27a)" d="M 24.5 31.662 
L 61.017588 31.662 
L 61.017588 20.79 
L 24.5 20.79 
z
" style="fill:#727ecf;stroke:#ffffff;stroke-linejoin:miter;"/>
   </g>
   <g id="patch_4">
    <path clip-path="url(#p4212d0b27a)" d="M 24.5 20.79 
L 73.008782 20.79 
L 73.008782 9.918 
L 24.5 9.918 
z
" style="fill:#727ecf;stroke:#ffffff;stroke-linejoin:miter;"/>
   </g>
   <g id="patch_5">
    <path clip-path="url(#p4212d0b27a)" d="M 61.017588 31.662 
L 127.003046 31.662 
L 127.003046 20.79 
L 61.017588 20.79 
z
" style="fill:#e93834;stroke:#ffffff;stroke-linejoin:miter;"/>
   </g>
   <g id="patch_6">
    <path clip-path="url(#p4212d0b27a)" d="M 73.008782 20.79 
L 126.971449 20.79 
L 126.971449 9.918 
L 73.008782 9.918 
z
" style="fill:#e93834;stroke:#ffffff;stroke-linejoin:miter;"/>
   </g>
   <g id="patch_7">
    <path clip-path="url(#p4212d0b27a)" d="M 127.003046 31.662 
L 129.228849 31.662 
L 129.228849 20.79 
L 127.003046 20.79 
z
" style="fill:#e6ab02;stroke:#ffffff;stroke-linejoin:miter;"/>
   </g>
   <g id="patch_8">
    <path clip-path="url(#p4212d0b27a)" d="M 126.971449 20.79 
L 130.208169 20.79 
L 130.208169 9.918 
L 126.971449 9.918 
z
" style="fill:#e6ab02;stroke:#ffffff;stroke-linejoin:miter;"/>
   </g>
   <g id="patch_9">
    <path clip-path="url(#p4212d0b27a)" d="M 129.228849 31.662 
L 129.698917 31.662 
L 129.698917 20.79 
L 129.228849 20.79 
z
" style="fill:#76a254;stroke:#ffffff;stroke-linejoin:miter;"/>
   </g>
   <g id="patch_10">
    <path clip-path="url(#p4212d0b27a)" d="M 130.208169 20.79 
L 130.406393 20.79 
L 130.406393 9.918 
L 130.208169 9.918 
z
" style="fill:#76a254;stroke:#ffffff;stroke-linejoin:miter;"/>
   </g>
   <g id="patch_11">
    <path clip-path="url(#p4212d0b27a)" d="M 24.5 31.662 
L 24.5 31.662 
L 24.5 20.79 
L 24.5 20.79 
z
" style="fill:#d67c00;stroke:#ffffff;stroke-linejoin:miter;"/>
   </g>
   <g id="patch_12">
    <path clip-path="url(#p4212d0b27a)" d="M 130.406393 20.79 
L 130.742629 20.79 
L 130.742629 9.918 
L 130.406393 9.918 
z
" style="fill:#d67c00;stroke:#ffffff;stroke-linejoin:miter;"/>
   </g>
   <g id="patch_13">
    <path clip-path="url(#p4212d0b27a)" d="M 129.698917 31.662 
L 130.785714 31.662 
L 130.785714 20.79 
L 129.698917 20.79 
z
" style="fill:#888888;stroke:#ffffff;stroke-linejoin:miter;"/>
   </g>
   <g id="patch_14">
    <path clip-path="url(#p4212d0b27a)" d="M 130.742629 20.79 
L 130.785714 20.79 
L 130.785714 9.918 
L 130.742629 9.918 
z
" style="fill:#888888;stroke:#ffffff;stroke-linejoin:miter;"/>
   </g>
   <g id="matplotlib.axis_1">
    <g id="xtick_1">
     <g id="text_1">
      <text style="fill:#808080;font-family:Linux Libertine O;font-size:10px;font-stretch:normal;font-style:normal;font-weight:normal;text-anchor:middle;" transform="rotate(-0, 24.5, 49.859687)" x="24.5" y="49.859687">0%</text>
     </g>
    </g>
    <g id="xtick_2">
     <g id="text_2">
      <text style="fill:#808080;font-family:Linux Libertine O;font-size:10px;font-stretch:normal;font-style:normal;font-weight:normal;text-anchor:middle;" transform="rotate(-0, 77.642857, 49.859687)" x="77.642857" y="49.859687">50%</text>
     </g>
    </g>
    <g id="xtick_3">
     <g id="text_3">
      <text style="fill:#808080;font-family:Linux Libertine O;font-size:10px;font-stretch:normal;font-style:normal;font-weight:normal;text-anchor:middle;" transform="rotate(-0, 130.785714, 49.859687)" x="130.785714" y="49.859687">100%</text>
     </g>
    </g>
   </g>
   <g id="matplotlib.axis_2">
    <g id="ytick_1">
     <g id="text_4">
      <text style="fill:#808080;font-family:Linux Libertine O;font-size:10px;font-stretch:normal;font-style:normal;font-weight:normal;text-anchor:end;" transform="rotate(-0, 21, 29.715844)" x="21" y="29.715844">AL</text>
     </g>
    </g>
    <g id="ytick_2">
     <g id="text_5">
      <text style="fill:#808080;font-family:Linux Libertine O;font-size:10px;font-stretch:normal;font-style:normal;font-weight:normal;text-anchor:end;" transform="rotate(-0, 21, 18.843844)" x="21" y="18.843844">GA</text>
     </g>
    </g>
   </g>
  </g>
 </g>
 <defs>
  <clipPath id="p4212d0b27a">
   <rect height="27.18" width="111.6" x="24.5" y="7.2"/>
  </clipPath>
 </defs>
</svg>
