<svg width="296pt" height="216" viewBox="0 0 296 161.5" xmlns="http://www.w3.org/2000/svg">
    <g class="graph">
        <path fill="#fff" stroke="transparent" d="M0 161.5V0h296v161.5H0z"/>
        <g class="node">
            <path fill="none" stroke="#000" d="M127.5 157v-57h54v57h-54z"/>
            <text text-anchor="middle" x="150.5" y="-45.5" font-family="Linux Libertine O" font-size="10" transform="translate(4 157.5)">
                Dish.csv
            </text>
            <path fill="none" stroke="#000" d="M127.5 119h54"/>
            <text text-anchor="middle" x="150.5" y="-26.5" font-family="Linux Libertine O" font-size="10" transform="translate(4 157.5)">
                id
            </text>
            <path fill="none" stroke="#000" d="M127.5 138h54"/>
            <text text-anchor="middle" x="150.5" y="-7.5" font-family="Linux Libertine O" font-size="10" transform="translate(4 157.5)">
                name
            </text>
        </g>
        <g class="node">
            <path fill="none" stroke="#000" d="M228 119V24h64v95h-64z"/>
            <text text-anchor="middle" x="256" y="-121.5" font-family="Linux Libertine O" font-size="10" transform="translate(4 157.5)">
                Menu.csv
            </text>
            <path fill="none" stroke="#000" d="M228 43h64"/>
            <text text-anchor="middle" x="256" y="-102.5" font-family="Linux Libertine O" font-size="10" transform="translate(4 157.5)">
                id
            </text>
            <path fill="none" stroke="#000" d="M228 62h64"/>
            <text text-anchor="middle" x="256" y="-83.5" font-family="Linux Libertine O" font-size="10" transform="translate(4 157.5)">
                date
            </text>
            <path fill="none" stroke="#000" d="M228 81h64"/>
            <text text-anchor="middle" x="256" y="-64.5" font-family="Linux Libertine O" font-size="10" transform="translate(4 157.5)">
                page_count
            </text>
            <path fill="none" stroke="#000" d="M228 100h64"/>
            <text text-anchor="middle" x="256" y="-45.5" font-family="Linux Libertine O" font-size="10" transform="translate(4 157.5)">
                dish_count
            </text>
        </g>
        <g class="node">
            <path fill="none" stroke="#000" d="M4 119V24h77v95H4z"/>
            <text text-anchor="middle" x="38.5" y="-121.5" font-family="Linux Libertine O" font-size="10" transform="translate(4 157.5)">
                MenuItem.csv
            </text>
            <path fill="none" stroke="#000" d="M4 43h77"/>
            <text text-anchor="middle" x="38.5" y="-102.5" font-family="Linux Libertine O" font-size="10" transform="translate(4 157.5)">
                id
            </text>
            <path fill="none" stroke="#000" d="M4 62h77"/>
            <text text-anchor="middle" x="38.5" y="-83.5" font-family="Linux Libertine O" font-size="10" transform="translate(4 157.5)">
                menu_page_id
            </text>
            <path fill="none" stroke="#000" d="M4 81h77"/>
            <text text-anchor="middle" x="38.5" y="-64.5" font-family="Linux Libertine O" font-size="10" transform="translate(4 157.5)">
                dish_id
            </text>
            <path fill="none" stroke="#000" d="M4 100h77"/>
            <text text-anchor="middle" x="38.5" y="-45.5" font-family="Linux Libertine O" font-size="10" transform="translate(4 157.5)">
                price
            </text>
        </g>
        <g class="edge" stroke="#000">
            <path fill="none" d="M81 90.5c22.7 0 21.1 27.6 36.6 35.7"/>
            <path d="M118.5 122.9l9 5.6-10.5 1.2 1.5-6.8z"/>
        </g>
        <g class="node">
            <path fill="none" stroke="#000" d="M117 80.5v-76h75v76h-75z"/>
            <text text-anchor="middle" x="150.5" y="-141" font-family="Linux Libertine O" font-size="10" transform="translate(4 157.5)">
                MenuPage.csv
            </text>
            <path fill="none" stroke="#000" d="M117 23.5h75"/>
            <text text-anchor="middle" x="150.5" y="-122" font-family="Linux Libertine O" font-size="10" transform="translate(4 157.5)">
                id
            </text>
            <path fill="none" stroke="#000" d="M117 42.5h75"/>
            <text text-anchor="middle" x="150.5" y="-103" font-family="Linux Libertine O" font-size="10" transform="translate(4 157.5)">
                menu_id
            </text>
            <path fill="none" stroke="#000" d="M117 61.5h75"/>
            <text text-anchor="middle" x="150.5" y="-84" font-family="Linux Libertine O" font-size="10" transform="translate(4 157.5)">
                page_number
            </text>
        </g>
        <g class="edge" stroke="#000">
            <path fill="none" d="M81 71.5c19.4 0 15.3-26.2 26.2-35.7"/>
            <path d="M106.4 32.5H117l-8.3 6.5-2.3-6.6z"/>
        </g>
        <g class="edge" stroke="#000">
            <path fill="none" d="M192 52.5h25.9"/>
            <path d="M218 49l10 3.5-10 3.5v-7z"/>
        </g>
    </g>
</svg>
