<?xml version="1.0" encoding="utf-8" standalone="no"?>
<!DOCTYPE svg PUBLIC "-//W3C//DTD SVG 1.1//EN"
  "http://www.w3.org/Graphics/SVG/1.1/DTD/svg11.dtd">
<!-- Created with matplotlib (https://matplotlib.org/) -->
<svg height="41.58pt" version="1.1" viewBox="0 0 493.778125 41.58" width="493.778125pt" xmlns="http://www.w3.org/2000/svg" xmlns:xlink="http://www.w3.org/1999/xlink">
 <defs>
  <style type="text/css">
*{stroke-linecap:butt;stroke-linejoin:round;}
  </style>
 </defs>
 <g id="figure_1">
  <g id="patch_1">
   <path d="M 0 41.58 
L 493.778125 41.58 
L 493.778125 0 
L 0 0 
z
" style="fill:none;"/>
  </g>
  <g id="axes_1">
   <g id="patch_2">
    <path d="M 40.178125 34.38 
L 486.578125 34.38 
L 486.578125 7.2 
L 40.178125 7.2 
z
" style="fill:none;"/>
   </g>
   <g id="patch_3">
    <path clip-path="url(#pe3ae1a8ece)" d="M 40.178125 20.79 
L 284.919328 20.79 
L 284.919328 8.435455 
L 40.178125 8.435455 
z
" style="fill:#e93834;stroke:#ffffff;stroke-linejoin:miter;"/>
   </g>
   <g id="patch_4">
    <path clip-path="url(#pe3ae1a8ece)" d="M 40.178125 33.144545 
L 254.430241 33.144545 
L 254.430241 20.79 
L 40.178125 20.79 
z
" style="fill:#c55faf;stroke:#ffffff;stroke-linejoin:miter;"/>
   </g>
   <g id="patch_5">
    <path clip-path="url(#pe3ae1a8ece)" d="M 284.919328 20.79 
L 321.125118 20.79 
L 321.125118 8.435455 
L 284.919328 8.435455 
z
" style="fill:#d67c00;stroke:#ffffff;stroke-linejoin:miter;"/>
   </g>
   <g id="patch_6">
    <path clip-path="url(#pe3ae1a8ece)" d="M 254.430241 33.144545 
L 300.992379 33.144545 
L 300.992379 20.79 
L 254.430241 20.79 
z
" style="fill:#d67c00;stroke:#ffffff;stroke-linejoin:miter;"/>
   </g>
   <g id="patch_7">
    <path clip-path="url(#pe3ae1a8ece)" d="M 321.125118 20.79 
L 371.24984 20.79 
L 371.24984 8.435455 
L 321.125118 8.435455 
z
" style="fill:#727ecf;stroke:#ffffff;stroke-linejoin:miter;"/>
   </g>
   <g id="patch_8">
    <path clip-path="url(#pe3ae1a8ece)" d="M 300.992379 33.144545 
L 385.334472 33.144545 
L 385.334472 20.79 
L 300.992379 20.79 
z
" style="fill:#727ecf;stroke:#ffffff;stroke-linejoin:miter;"/>
   </g>
   <g id="matplotlib.axis_1"/>
   <g id="matplotlib.axis_2">
    <g id="ytick_1">
     <g id="text_1">
      <text style="fill:#808080;font-family:Linux Libertine O;font-size:10px;font-style:normal;font-weight:normal;text-anchor:end;" transform="rotate(-0, 36.678125, 18.102571)" x="36.678125" y="18.102571">Wright</text>
     </g>
    </g>
    <g id="ytick_2">
     <g id="text_2">
      <text style="fill:#808080;font-family:Linux Libertine O;font-size:10px;font-style:normal;font-weight:normal;text-anchor:end;" transform="rotate(-0, 36.678125, 30.457116)" x="36.678125" y="30.457116">Kiss</text>
     </g>
    </g>
   </g>
   <g id="text_3">
    <text style="fill:#808080;font-family:Linux Libertine O;font-size:10px;font-style:normal;font-weight:normal;text-anchor:start;" transform="rotate(-0, 373.10984, 18.319091)" x="373.10984" y="18.319091">49%</text>
   </g>
   <g id="text_4">
    <text style="fill:#808080;font-family:Linux Libertine O;font-size:10px;font-style:normal;font-weight:normal;text-anchor:start;" transform="rotate(-0, 387.194472, 30.673636)" x="387.194472" y="30.673636">51%</text>
   </g>
  </g>
 </g>
 <defs>
  <clipPath id="pe3ae1a8ece">
   <rect height="27.18" width="446.4" x="40.178125" y="7.2"/>
  </clipPath>
 </defs>
</svg>
