<svg height="192.4" viewBox="0 0 363.4 144.3" width="484.5" xmlns="http://www.w3.org/2000/svg">
    <defs>
        <style>
            *{stroke-linecap:butt;stroke-linejoin:round}
        </style>
    </defs>
    <g id="figure_1">
        <path d="M0 144.3h363.4V0H0z" fill="none" id="patch_1"/>
        <g id="axes_1">
            <path d="M21.4 119.3h334.8V10.5H21.4z" fill="none" id="patch_2"/>
            <g id="matplotlib.axis_1">
                <g id="xtick_1">
                    <text x="34.7" y="134.7" fill="gray" font-family="Linux Libertine O" font-size="10" font-weight="400" text-anchor="middle" id="text_1">
                        1850
                    </text>
                </g>
                <g id="xtick_2">
                    <text x="81.1" y="134.7" fill="gray" font-family="Linux Libertine O" font-size="10" font-weight="400" text-anchor="middle" id="text_2">
                        1875
                    </text>
                </g>
                <g id="xtick_3">
                    <text x="127.5" y="134.7" fill="gray" font-family="Linux Libertine O" font-size="10" font-weight="400" text-anchor="middle" id="text_3">
                        1900
                    </text>
                </g>
                <g id="xtick_4">
                    <text x="173.9" y="134.7" fill="gray" font-family="Linux Libertine O" font-size="10" font-weight="400" text-anchor="middle" id="text_4">
                        1925
                    </text>
                </g>
                <g id="xtick_5">
                    <text x="220.3" y="134.7" fill="gray" font-family="Linux Libertine O" font-size="10" font-weight="400" text-anchor="middle" id="text_5">
                        1950
                    </text>
                </g>
                <g id="xtick_6">
                    <text x="266.7" y="134.7" fill="gray" font-family="Linux Libertine O" font-size="10" font-weight="400" text-anchor="middle" id="text_6">
                        1975
                    </text>
                </g>
                <g id="xtick_7">
                    <text x="313.1" y="134.7" fill="gray" font-family="Linux Libertine O" font-size="10" font-weight="400" text-anchor="middle" id="text_7">
                        2000
                    </text>
                </g>
            </g>
            <g id="matplotlib.axis_2">
                <g id="ytick_1">
                    <text x="22.9" y="117.8" fill="gray" font-family="Linux Libertine O" font-size="10" font-weight="400" text-anchor="end" id="text_8">
                        0%
                    </text>
                </g>
                <g id="ytick_2">
                    <text x="22.9" y="91.9" fill="gray" font-family="Linux Libertine O" font-size="10" font-weight="400" text-anchor="end" id="text_9">
                        10%
                    </text>
                </g>
                <g id="ytick_3">
                    <text x="22.9" y="66" fill="gray" font-family="Linux Libertine O" font-size="10" font-weight="400" text-anchor="end" id="text_10">
                        20%
                    </text>
                </g>
                <g id="ytick_4">
                    <text x="22.9" y="40.1" fill="gray" font-family="Linux Libertine O" font-size="10" font-weight="400" text-anchor="end" id="text_11">
                        30%
                    </text>
                </g>
                <g id="ytick_5">
                    <text x="22.9" y="14.2" fill="gray" font-family="Linux Libertine O" font-size="10" font-weight="400" text-anchor="end" id="text_12">
                        40%
                    </text>
                </g>
            </g>
            <path clip-path="url(#pf92a94532a)" d="M36.6 114.3h3.7l1.9-2.6 1.8-1 1.9 3.1 1.8-1.4 1.9.1 1.8 1.8h3.7L57 111l3.7-1.6 1.9 4.4 1.8-2.2L70 83.8l7.4 30.5 13-4.7 1.9 2.8 1.8-2.1 1.9-.4 1.8-.7 1.9-.1 1.8-7 1.9 6.8 1.9-2.4 1.8 3.5h1.9l1.8-.6 3.7.8 1.9-.6 1.8.6 1.9-1.4 1.9-.1 1.8-.4 1.9 1.8 1.8 1.1h1.9l5.5 3.1 2-5.1 1.8-1.4 1.8 1.8 1.9-2 1.8 4 1.9.2 3.7-2.5 1.9 1 1.8.6 1.9.3 1.8-.9 1.9.1 1.8-3.7 1.9 2.5 1.8-1.7 1.9 2.6 1.9 4.2 3.7-4.8 1.8 1.5 3.7-4.7 1.9 3.7h1.8l1.9 2.6 1.9-6 1.8 2.2h1.9l1.8-1.3 3.7 6.8 1.9-4.1h1.8l3.8.8 1.8.2 1.9 1.7 1.8-1.6 1.9-1.3 1.8 2.3 1.9-1.5h1.9l1.8.7 1.9.3 3.7-1.7 1.8 1 1.9-2.1 1.8 2 1.9-1.8 1.9-1.4 1.8 3 1.9.8 1.8-1.5 1.9.3 3.7-.8 1.8 1 1.9-3.4 1.9 4.6 1.8-5.4 1.9-.9 1.8-1.3 1.9 4.5 1.8 3.5 3.7-6.6 2 4.3 1.8.9 1.8 1.3 1.9-3 1.8-1.8 1.9.8 1.8-.3 1.9-.5 1.9 3.3 1.8-2.8 1.9 5.4h1.8l1.9-2.1 1.8-2.9 1.9 3 1.8 1.6 1.9-.5 1.9-14.5 1.8-13.2 1.9 29.7 1.8-32.7 1.9 32.7 1.8-5.6 1.9-25.2 1.8 18.7 1.9 10 1.9-4.8 1.8 7 1.9-2 1.8 2h5.6l1.8-6.5 3.8-7.2 7.4 9.3 5.6 4.3h0" fill="none" stroke="#e7298a" stroke-linecap="square" stroke-width="1.5" id="line2d_1"/>
            <path clip-path="url(#pf92a94532a)" d="M36.6 114.3h78l1.8-1 1.8 1 1.9-.4 3.7.4 1.9-.1 3.7.1h11.1l1.9-.5 1.8.5h20.4l1.9-.1 1.9.1h5.5l1.9-1.3 1.8 1.3h7.5l1.8-2.9 1.9 2.9h1.8l1.9-1.7 1.8 1.7H226l1.8-.9h1.9l1.9-5.8 1.8 6.3 1.9.3 5.5.1 1.9-.3 1.8-2.8 1.9 3.1h1.9l1.8-1.1 1.9.8 1.8.3h1.9l1.8-1.4 1.9 1.3 1.8-1h2l1.8 1.1 1.8-2 1.9.4 1.8 1.3 1.9-1.2 1.8 1.5 1.9-9.7 1.9 9.7h1.8l1.9-3.9 1.8 4 1.9-3.6 1.8 3.5 1.9-1.5 1.8 1.3 1.9.2h11.1l1.9-2.6 1.8 1.6 1.9 1 1.9-2.3 1.8 1.3 1.9-3 1.8 4H328l7.4-2.2 5.6 2.2h0" fill="none" stroke="#66a61e" stroke-linecap="square" stroke-width="1.5" id="line2d_2"/>
            <path clip-path="url(#pf92a94532a)" d="M36.6 114.3h55.7l1.8-.7 1.9.7h1.8l1.9-1.4 1.8.1 1.9 1.3 1.9-1.6 1.8 1.6 1.9-1 1.8.1 1.9 1 1.8-.3 1.9-.5 1.8.6h5.6l1.9-1.6 1.8 1.4 1.9-1.2 5.5 1.5 2-.5h1.8l3.7.5h1.8l1.9-6 3.7 4.8 1.9.8 1.8.3 5.6.1h14.8l1.9-1 1.8.6 1.9.4 1.8-6 1.9 6h5.6l1.8-.1 1.9-4.8 1.8 5 1.9-.4 1.8-.5 2 .6 1.8.2h18.5l1.9-3.7 1.8 3.7h1.9l1.8-21 1.9 12.3 1.9-14.6 1.8 17 1.9-15.4 1.8 12.7 1.9 8.8 1.8-9.7 1.9.7 1.8 4.6 1.9-3 1.9-5.7 1.8 7.8 1.9-2.7 1.8-5 1.9 6.8 1.8-9.2 1.9-18.8 1.8 21 2 .7 1.8-20.4 1.8 10.6 1.9-17.3 1.8 37.6 1.9-34.4 1.8 23.9 1.9 12.3 1.9-8.7 1.8-33.5 1.9 12 1.8 30.4 1.9-.7L287 89l2 21 1.8-26 1.9 30.2 1.9-12.5 1.8 12.5 1.9-67.3 1.8 67.3h1.9l1.8-23.2 1.9 15.5 1.8 5.7 1.9 2 1.9-17.6 1.8 17.6h7.4l1.9-98.8 1.8 98.8h3.8l7.4-9 5.6 9h0" fill="none" stroke="#e6ab02" stroke-linecap="square" stroke-width="1.5" id="line2d_3"/>
        </g>
    </g>
    <defs>
        <clipPath id="pf92a94532a">
            <path d="M21.4 10.5h334.8v108.7H21.4z"/>
        </clipPath>
    </defs>
</svg>
