<svg height="599" viewBox="0 0 684 449.3" width="912" xmlns="http://www.w3.org/2000/svg">
    <defs>
        <style>
            *{stroke-linecap:butt;stroke-linejoin:round}
        </style>
    </defs>
    <g id="figure_1">
        <path d="M0 449.3h684V0H0z" fill="none" id="patch_1"/>
        <g id="axes_1">
            <path d="M7.2 442h669.6V7.3H7.2z" fill="none" id="patch_2"/>
            <path clip-path="url(#pd26768fbce)" d="M428.6 272.8l.4.4 1.4 1.4.8.8.8.8 2.1 2.1.8.8.8.8 1 1 .8.8.7.7.8.8.7.7 1.4 1.4 1.4 1.4.9.9.6.6.4.4.8.8 1.8 1.7.7.7.8.8 2.7 2.8 1.1 1 2.2 2.2.5.5 1 1 2 2 .6.6.6.6 2.3 2.3.7.7.7.7 2.4 2.3 2.2 2.3.2.1.2.2 2.5 2.5 1 1 .9.9 2 2 1.7 1.7.1.2.2.2v.1l.4.8v.3l.4 1.1.7.3 6.2 3 .4.1-.1.9h0v.2h0v.2h0v.2h0l-.1.2v.6l-.1.1v.2l-.7 3-.2 1-.4 2.2h0l-.1.2h0v.2h0l-.1.2h0v.2h-.1v.2h-.1v.2h0l-.1.2h0v.2h-.1v.2h-.1v.2h-.1v.2h0l-.1.2h0l-.1.2h0l-.1.1v.1l-.1.1v.1l-.1.1v.1l-.1.1v.1l-.1.1-.1.1h0l-.1.2h0l-.1.2h0l-.2.2h0v.1l-.1.1-.1.1v.1h-.1v.2h-.2v.2h0l-.1.1-.1.1v.1h-.1l-.1.2h0l-.1.1-.1.1v.1l-.1.1h-.1v.2h-.2v.1l-.1.1v.1h-.1l-.1.2h0l-.2.1v.1l-.1.1h0l-.2.2h0l-.1.1v.1h-.2v.2h-.1v.1l-.2.1h0l-.1.2h-.1v.1h-.2v.2h-.1l-.1.1h0l-.2.2h0l-.1.1h-.1v.2h-.2v.1h-.1l-.1.1-.1.1h0l-.2.1v.1h-.1l-.1.1-.1.1h-.1v.1l-.2.1h0l-.2.1v.1h-.1l-.1.1h-.1l-.1.2h-.1 0l-1.6 1-8.8 5.4-7.2 4.3-1 .6-4.4 2.7h0l-2.8 1.7-2.8-2-1.4-1-1.1-.8-1.8-1.3-.6-.4-.9-.7-1.1-.8-.5-.3-1-.7-1.2-1-.9-.6-.7-.5-2.5-1.8-.6-.4-6.5-4.7-.4-.3-2-1.5-.8-.5-.6-.5-1.4-1-.6-.3-.9-.7-.2-.2-2.3-1.6-.8-.6-1.4-1-1.4-.9-.6-.5-.4-.3-.4-.2-1-.8-1.6-1.1-1.8-1.3-.5-.3-.5-.4-1-.7-.7-.5-.8-.6-.6-.5-1.4-.9-1.2-1-.7-.5-.4-.3-2.4-1.7-.6-.5-.3-.2-1.4-1 1-1.2 1.4-1.6 2.1-2.4.7-.8.5-.7 2-3.5 1.9-3.2.3-.6.3-.5 1.7-3 1.7-2.9.4-.8.5-.7 1.7-3 1.8-3.3.5-.9.6-.9.3-.6.8-1.4 4-7.1.3-.4.3-.4.5-1 .2-.4.3-.5 5-8.7.5-1 .8.8 2 2z" fill="#1b9e77" stroke="#fff" id="patch_3"/>
            <path clip-path="url(#pd26768fbce)" d="M273 295.8l.2-.2h0l.6-.8 3.7-5.4.1-.3 1-1.3 7-10.4.5-.8.6-.8.3-.4.3-.5.2-.3 2-3.1.5-.6.4-.6 1.3-2 .4-.6.4-.6 4-6 .4-.4 5.2 1.1.3.2 1.2.5h.1l.2.2h.2l1.6.6.6.2.5.2 4 1.3.4.2.5.1 3.4 1.2.5.1.7.3 1.3.4.4.2.3.2.3.2.7.6 3.7 4 5.8 5.6 2.9 3 .5.4 3.2 3.1 2.3 2.3 1.4 1.4 2.5 1 2.3 1.1.6.3.6.3 6 2.5.6.3.5.3 1.8.7.6.3.7.3 1.6.7 3.4 1.6 3 1.7.7.4.5.3 2 1.2h.1l.6.3 1.4 1 1.7 1 .6.4.6.4 1.4 1 1.7 1.4.6.4.6.4.5.4.6.5.5.4.6.4 1 .8.5.3.5.4 1.3 1 1.7 1.2.6.5.6.5.7.5.6.4.5.4.8.7.8.5 2 1.4.4.4.7.5 1 .6 1.2.9 1.5 1-2.1 2.2h-.2l-1.4.4h0l-1.3.3-.6.2-3.3.8-.8.4h-.1l-1 .7-.7.3-.6.4-.4.2-2 .9-1.7.7-.8.3-.8.3-2 .9-1.4.6-.8.3h-.2l-1.3.6-2.6 1.1-1.7.7-1.8.8-1 .4-.7.3-3.9 1.6-.8.3-.5.3-3.5 1.4-1.2.5-.7.3-1.4.6-.8.4h-.3l-1.1.5-1.7.7-.7.3-.6.3-3.5 1.4-.8.3-6.2 2.7-1.2.5-1.5.6-2.5 1-.8.4h-.1l-1 .4-6 2.5-2.4 1-1 .3-5.1 2h0v-.5l-.1-.9-1-13v-9.2l-.2-4.7v-.4l-.2-3.7-.1-2.8-.2-4-.1-2.5-.2-.8-.7-3v-.2l-.4-1-.5-1.3-.3-.7h0l-1.9-3-.7-.8-.8-1.2-.4-.7-.6-.7-.3-.1-2.2-1.4h0l-1-.6-1.7-.3-3.6-1h-1l-.7-.1h-2.8l-.6.2h-.2l-1.2.2h-1.3 0l-.4.1-1.2.1h-.8l-1 .2-1 .2h-2.7l-.8-.1H279l-.9-.2-.4-.1h-.3l-1.6-.4-1.8-.8z" fill="#1b9e77" stroke="#fff" id="patch_4"/>
            <path clip-path="url(#pd26768fbce)" d="M226.5 131.2l4.4.8 5.8 1.2 6.3 1.3 5.8 1.2 9.7 2 6.5 1.3 5.4 1 5.1 1.1 7.6 1.6 5.4 1 .2.1h.2l.2.1h.3l.1.1h.4v.1h.4l.1.1h.3v.1h.4l.1.1h.2l.1.1h.2l.2.1h.2l.2.1h.2l.1.1h.2l.1.1h.2l.2.1h0l1.4.4 1.2.6.2 1 .4 1.7.9 3.5.2 1 .2 2.4-.1 1.9-.2 1.9-.2 2.7-.3 3-.1 2.2-.4 3.5-.1 2.2-.3 2.8-.4 5.2-.2 2.7-.1.7v.6l-.4 4.5v.7l-.1.6-.2 1.8v1l-.4 3.4-.4 6-.2.9-.4 5.3-.4 2.3v.7l-.1 3.3-.2 2.1v.8l-.1.6-.6 7.5-.1 1.5.6 1.4 1.6 5 .1.7 1.1.9.6.4.7.4 2 1.4.3.2 2 1.2 1 .4.9.3 1.5.3 1 .1h1.5l.7.1.9.2-.5.7h-1.5l-.6.1-.4.2-.4.2-.5.2-.3.3-.4.3-.3.4-.3.4-.5.7-.2 1-.3 1.5h0v.7l-.1.4-.2 1-3.6-1.3-1.6-.8h0l-1.9-1-1.4-1-1.3-.7-4.5-2.5-.8-.4-1.2-.6-4.6-2.5-1-.6-.8-.8-.7-1-1.2-1.6-2.4-3.1-.6-.9-.8-1.1-.5-.7-.4-.6-2-2.8-1-1.6v-.2l-1.5-1-3-1.8-.6-.5-.8-.5-6-4-.9-.6-1.1-.8-8.4-5.5-.4-.3-.6-.4-1.7-1-3.4-2.4-3.5-2.3-.5-.3-.9-.6-2.2-1.4-.7-.6-2.3-1.7-.4-.3-1-.7-.4-.3-.5-.4-2.2-1.6-3.3-2.4-1-.7-4.3-2.3-.7-.4-.5-.3-4.9-2.7-.4-.2-.3-.2-.2-.1-1-.5-5.4-3-.8-.5-1-.6-9-4.8-.8-.4-1-.6-2.7-1.4-1-.5-.9-.5-2.8-1.5-1-.6-1-.6-3.1-1.6-1-.5-.9-.5-2.9-1.6-1.1-.6-1-.5-3.9-2-.2-.2-1.4-.7-3.3-1.8-.4-.2-3.5-1.1-3.4-1.9-.5-.6h0l-.2-.1h0v-.2h0v-.2h0v-.2h.1v-.2h0v-.2h0l.1-.2h0v-.5l.1-.1v-.4l.1-.1v-.3l.1-.1v-.3h0v-.2h.1v-.2h0v-.2h.1v-.2h0l.1-.2h0v-.2h0l.1-.2h0v-.2h0l.1-.2h0v-.2l.5-1.3.8-1.9.9-2 1-1.8 3.5-5.3 2-2.8h.1v-.1l.2-.1h0v-.2h.2v-.1l.1-.1h0l.1-.2h.1v-.1l.2-.1v-.1h.1v-.2h.2v-.1l.1-.1h0l.2-.2h0l.1-.1v-.1h.2v-.1l.1-.1v-.1h.2v-.2h.1v-.1l.2-.1h0l.1-.1.1-.1v-.1h.2v-.2h.1v-.1l.2-.1h0l.1-.1.1-.1v-.1h.2v-.1l.1-.1h.1l.1-.2h.1v-.1h.2v-.1l.2-.1h0l.1-.1.1-.1h.1l.1-.1.1-.1h.1v-.1h.2v-.1l.2-.1h0l.2-.1 2.3-1.3v-.1h.2v-.1h.2v-.1h.2v-.1h.2v-.1h.2v-.1h.2v-.1h.2l.1-.1h.1l.1-.1h.1l.1-.1h.2l.1-.1h.1l.1-.1h.1l.1-.1h.1l.2-.1h.2v-.1h.2v-.1h.4l.1-.1h.2l.1-.1h.1l.1-.1h.2l.2-.1h.2l4.2-1.3h0l.2-.1h.2l.1-.1h.3v-.1h.4l.1-.1h.2l.2-.1h.2l.2-.1h.5v-.1h.5l.1-.1h.5l.1-.1h.6l.1-.1h.9l.1-.1h5.3l.2.1h.2l6.4 1 1.4.2 1.7.4 2.6.5 4.4.9 6.2 1.3 6.2 1.2z" fill="#1b9e77" stroke="#fff" id="patch_5"/>
            <path clip-path="url(#pd26768fbce)" d="M558.2 379.2h0l-9.5 3.4-5.5 1.8-4.7 1.5-10 3.6-21.8 7.6-10.4 3.6-5 1.8-6.7 2.3-6.9 1.5-2.6.6-5.4 1.2-8.7 2-7.1 1.5-10.9 2.3-6.3 1.4-3.8.6-3.8.7h-.2l-3 .5-.8.2-4.6.5h-.5 0l-5 1-10 .7-5.2.3-9.4.7-10.3.7-4.5.3h-.6l-.6.1-2.1.3-5.7.2h-3.5l-4.4.2h-.1l-1.1-.1-1.2-.2-1.3-.2h0l.4-.4 3.4-2.7.9-.8.8-.8.5-.5 1-1 2.7-2.6h0l.2-.2h0l.1-.1h.1v-.2h.2l.1-.2h.1l.1-.1h.1v-.1l.2-.1h0l.2-.1v-.1h.1l.1-.1h.1l.1-.2h.2v-.2h.2l.2-.1h0l.1-.1.1-.1h.1l.1-.1 6.1-3.7 4.5-2.8 6-3.6 6.7-4.1 5.2-3.2 9.8-6 7.1-4.3 4.3-2.6 7-4.3 3.5-2.1 2.8-1.7 1.5-1 4.7-2.8 1.5-.9 5.7-3.5 1.7-1v-.1l.2-.1h0l.2-.1h0l.1-.2h.1l.2-.2h0l.1-.1v-.1h.1l.1-.1h0l.2-.1h0l2.2-1.4 2.7-1.7h0l4.6-2.7.9-.6 7.2-4.3 8.8-5.4 1.5-1h.1l.2-.1h0l.2-.1v-.1h.1l.1-.1h.1l.1-.2h.2v-.2h.2l.1-.2h.1l.2-.2h0l.1-.1h.1l.1-.1v-.1h.2v-.2h.1l.1-.1h.1v-.2h.2v-.1h.1l.1-.2h0l.2-.1v-.1h.1v-.2h.2v-.1l.1-.1h0l.2-.2h0l.1-.1v-.1h.2v-.2h.1v-.1l.2-.1h0l.1-.2h0l.1-.1.1-.1v-.1l.2-.1h0v-.2h.2v-.2l.2-.1v-.1h0l.2-.2h0v-.1l.1-.1.1-.1v-.1l.1-.1h.1v-.2h.1v-.2h.1l.1-.1v-.1l.1-.1v-.1l.1-.1.1-.1v-.1h.1v-.2h.1v-.2h.1v-.2h.1v-.2h.1v-.1l.1-.1v-.1l.1-.1v-.1l.1-.1v-.2l.1-.1v-.1l.1-.1v-.2l.1-.1v-.1l.1-.1v-.2l.1-.1v-.2l.1-.1v-.2l.1-.1v-.2l.5-2.1.2-1 .7-3v-.2h0v-.2h0v-.2h0v-.4l.1-.1v-.7l.2-.9 2 1 2.5 1 1.9.9 8.4 4.3 1.3.6 5.2 2.7 1 .6.5.3 1.3.6 1.3.6 7 3.6 1.8 1 7.6 4.3 19.1 1.6 2.7.3 4.8.5h2.7l20.6 2h0l-9 15.6-.1.2h0l-6 5.4-.5.5-.3.3-.2.2-.1.4-.2.5h0l-.4 1-.1.4-.1.3-.1.3-.1.2h0v.1l-.1.2-.1.2h0v.2l-.1.1h0v.2h0-.1v.2h0l-.1.2h0l-.1.2h0v.2h0-.1 0v.1h0z" fill="#d95f02" stroke="#fff" id="patch_6"/>
            <path clip-path="url(#pd26768fbce)" d="M313.8 355.4l.8-.3.5-.2 3.8-1.5 1-.3 2.3-1 6-2.5 1.2-.4.8-.4 2.5-1 1.5-.6 1.2-.5 6.2-2.7.8-.3 3.5-1.4.6-.3.7-.3 1.7-.7 1-.4.4-.1.8-.4 1.4-.6.7-.3 1.2-.5 3.5-1.4.5-.3.8-.3 3.9-1.6.7-.3 1-.4 1.8-.8 1.7-.7 2.6-1.1 1.3-.5.2-.1.8-.3 1.4-.6 2-.9.8-.3.8-.3 1.7-.7 2-.9.4-.2.6-.4.7-.3 1-.7h0l1-.4 3.2-.8.6-.2 1.2-.3h.1l1.4-.3h.2l2-2.3 1.5 1.1.3.2.6.5 2.4 1.7.4.3.7.6 1.2 1 1.4.8.6.5.8.6.8.5 1 .7.4.4.5.3 1.8 1.3 1.6 1.1 1 .8.4.2.4.3.6.5 1.4 1 1.4 1 .8.5 2.3 1.6.2.2 1 .7.5.4 1.4 1 .6.4.7.5 2 1.5.5.3 6.5 4.7.6.4 2.5 1.8.7.5.9.7 1.2.9 1 .7.5.3 1.1.8 1 .7.5.4 1.8 1.3 1.1.8 1.4 1 2.8 2-2.2 1.3h0l-.1.1h0l-.2.1v.1h-.1v.2h-.1l-.1.1h-.1v.1l-.2.1h0l-.1.1-.1.1h-.1l-.1.1-1.7 1.1-5.7 3.5-1.5 1-4.7 2.8-1.5.9-2.8 1.7-3.5 2.1-7 4.3-4.3 2.6-7.1 4.4-9.8 6-5.2 3-6.8 4.2-5.9 3.6-4.5 2.8-6 3.7h-.2v.1h-.2v.1h-.1l-.1.1h-.1l-.1.1-.1.1-.1.1h0l-.2.1h0l-.2.1v.1h-.1l-.1.1-.1.1h-.1l-.1.1v.1h-.2v.1l-.1.1h-.1l-.1.1-.1.1v.1h-.2v.1l-.1.1h0l-2.8 2.7-1 1-.5.5-.8.8-1 .8-3.8 3.1h0l-1.2-.1-.7-.1-.7-.1-6.6-1-8.5-1.6-1-.5-3.4-1.8-.2-.1-2.5-1.6-5-3.4-5-3.5-2.8-3.2-2-3.2-1.6-2.9-1-2.2-.3-.7-.2-2v-1.2l.2-1.3.2-.8v-.6l.3-3.3V385l.9-3 .7-2.9v-.2l.5-4.6.3-1.8V368l-.1-.6-.4-4.8v-.7l-.2-1.4-.1-.6-.5-2.8h0v-.7l-.2-.7z" fill="#7570b3" stroke="#fff" id="patch_7"/>
            <path clip-path="url(#pd26768fbce)" d="M373.2 224.7h0l.2.2h0l.1.2h0l.1.1h0l.3.3h0l.4.4v.1l.3.3h0l.5.5h0v.1l.3.3.1.2.2.2h.1v.1l.3.3.4.4h0l.2.3.2.2h0l.3.4h0l.3.2h0l.1.2h0l.3.3h0l.2.3.2.2h0l.2.2.1.1.2.3.2.1h0l.6.7v.1h.1v.1l.3.3 1 1v.1l2 2.2v.1l1 1.1 1.8 2 .9 1 1.3 1.5 2.8 3 .6.7 1.5 1.8 5.9 6.6h3.1l.7-.1h3.6l.7-.1h2.1l.4.4h0l.3.3 2.1 2.1 2.1 2.1 1.7 1.7.9.9 2.1 2.1 1.7 1.7.5.4.5.5 3.8 3.9.6.6-.5.9-5 8.7-.3.5-.2.5-.5.9-.3.4-.2.4-4 7-.9 1.5-.3.6-.6 1-.5.8-1.8 3.3-1.7 3-.5.7-.4.8-1.7 2.9-1.7 3-.3.5-.3.6-1.9 3.2-2 3.5-.5.7-.7.8-2.1 2.4-1.5 1.6-1 1.1-1.4-1-1.2-1-1-.5-.7-.5-.5-.4-1.9-1.4-.8-.5-.8-.7-.5-.4-.6-.4-.7-.5-.6-.5-.6-.5-1.7-1.2-1.3-1-.5-.4-.5-.3-1-.8-.6-.4-.5-.4-.6-.5-.5-.4-.6-.4-.6-.4-1.7-1.4-1.4-1-.6-.4-.6-.4-1.7-1-1.4-1-.6-.3h0l-2-1.2-.6-.3-.6-.4-3.1-1.7-3.4-1.6-1.6-.7-.7-.3-.6-.3-1.8-.7-.5-.3-.7-.3-5.9-2.5-.6-.3-.6-.3-2.3-1-2.5-1.1-1.4-1.4-2.3-2.3-3.2-3-.5-.6-3-2.9-5.7-5.6-3.7-4-.7-.6-.3-.2-.3-.2-.4-.2-1.3-.4-.7-.3-.5-.1-3.4-1.2-.5-.1-.4-.2-4-1.3-.5-.2-.6-.2-1.6-.5-.2-.1-.2-.1h0l-1.3-.6-.3-.2-5.2-1 .1-.1.5-.2h0l.3-.2.2-.2.1-.1.2-.3.5-.9 1.5-4 .6-1v-.2l.1-.5v-.1l.2-.3v-.2h0l.1-.2.5-3v-.2l.2-1v-.4l.1-.6v-.1l.3-1.6.2-1 .5-.6.3-.4.3-.4.4-.3.3-.3.5-.2.4-.2.4-.2h.6l.5-.1h1l.5-.7 11.9-2.3h.3l5.4-1.5 3.4-.8 1-.3.8-.2h.2l.6-.2.6-.2 6.2-1.6.5-.1.4-.2.6-.1 1-.3.6-.1 4.7-1.3 5.4-1.4 7-1.8.9-.3.5-.1 1.4-.4 5-1.3h.2l.7-.3.8-.2.8-.2 4-1h0z" fill="#1b9e77" stroke="#fff" id="patch_8"/>
            <path clip-path="url(#pd26768fbce)" d="M498.2 261.4l-.2.6-.1.7-.1.5-.8 3.4-.7 3.5-1.3 6.3-.1.5h0v.2h0l-.1.2h0v.2h0l-.1.2h0v.2h0l-.1.2h0v.1l-.1.1v.1l-.2.7v.1l-.1.1v.2l-.1.1v.3l-.1.1v.3l-.1.1v.3l-.1.1v.1l-.3 1.2-1.5 7.3-1 5-.7 3.3-2.1 10-1 5-1.5 6.8-.9 4.2v.5l-.1.1v.4h-.1v.6l-.1.1-.1.7-.4-.1-6.2-3-.7-.3-.3-1-.1-.4-.3-.8h-.1l-.2-.3-.1-.2-1.7-1.7-2-2-1-.9-1-1-2.4-2.5-.2-.2-.2-.1-2.2-2.3-2.4-2.3-.7-.7-.7-.7-2.3-2.3-.6-.6-.6-.6-2-2-1-1-.5-.5-2.2-2.2-1-1-2.8-2.8-.8-.8-.7-.7-1.8-1.7-.8-.8-.4-.4-.6-.6-.9-1-1.4-1.3-1.4-1.4-.7-.7-.8-.8-.7-.7-.8-.8-1-1-.8-.8-.8-.8-2.1-2.1-.8-.8-.8-.8-1.4-1.4-.4-.4-.1-.1-2-2-.8-.7-.6-.6-3.8-3.9-.5-.5-.5-.4-1.7-1.7-2.1-2.1-.9-.9-1.7-1.7-2-2-2.2-2.2-.3-.3-.4-.4h1.8l1.6-.1h1.3l2.7-.1h1l2.7-.1h2.1l.7-.1h3.5l1-.1h2.5l.6-.1h2.5l1.9-.1h2l1.7.2h.9l2.5.2h1.1l2 .2h.4l1 .1h1.1l.6.1h1.9l1 .1h1.2l.3.1h.7l2.2.1h0l2.8.2h.8l3 .3h.9l1 .2h1.2l.6.1 2 .2 2.3.2.9.1h.6l1.2.2h1.1l.7.1h.3l.6.1h.1l1 .1h1l1 .2h.3l1.2.1 1 .1 1 .1h.8l.8.1.3.1h.2l.3.2.8.2.4.1h0l.9.3.4.1.6.2h.2l.2.1h.1l.7.2h.1l.6.2.8.3h.4l.2.1.4.2h.3l.3.1.3.1.3.1.4.1.6.2 1.5.5h.4l.6.2 1.4.5h.2l.5.2h.2z" fill="#1b9e77" stroke="#fff" id="patch_9"/>
            <path clip-path="url(#pd26768fbce)" d="M555.6 256.6l.3.3h0l.4.4h0l.2.2h.2v.1l.4.3h.1l.4.3h0l.3.2h.1l.2.1.4.1h.2l.2.1h.3v.1h3.2l1-.1.3-.1h.5v-.1h.4l.3-.1.4-.1h0v-.1h.1l.3-.2h.3v-.1l.3-.1h.1l.2-.2h.1v-.1h.1l.1-.2h.1l.2-.2h0l.3-.3.2-.1.2-.1.1-.2h.2v-.1l.2-.1.2-.2h.2l.2-.2h0l.1-.1h0l.2-.1h0l.1-.1h.2v-.1h.3v-.1h1v.1h.2v.1h.1l.1.1h.1l.1.1h0l.2.2h0l.2.2.1.1.3.2.1.2.5.4.3.3 1 1.3.4.4.5.8v.1l.2.2.1.1.1.2.2.3v.1l.1.1h0v.2l.2.2.1.2.1.2h0l.4.7.3.5v.3l.6.8.4.3h0v.1h0l.3.3.6.7 1 .8h.1v.1h.1v.1h.2v.1h.4v.1h.5v.1h2.3v-.1h.4v-.1h.2v-.1h.2v-.1h.2v-.1h.1l.1-.1h.1v-.1h.1v-.1h.1v-.1h.1v-.1h0l.3-.2.2-.3h.1v-.1h0l.4-.3.4-.2.7-.5.3-.2.6-.5h0l1.1-.5.3-.1.4-.4.5-.3h.1l1.2-.8h0l1.1 3.1.7 2h0l7.3 1.3 2 .4 9.3 1.8 14.9 2.9 1 .2 2 .4.3.1 13.3 15.8h0l2.5 3.5.2.3h0l-.8.1-3.9.2-6.2.2-2.2.1-10.8.5h-11l-2 2.7-2.5 3.4-1 1.4-1 1.4-3.8 5-9.8 13.2-7.7 10.5-2.2 2.8-3 14.3-1.6 1.8h0l-.1.3-.6 1h0l-20.6-2h-2.7l-4.8-.5-2.7-.3-19-1.6-7.7-4.3-1.9-1-6.9-3.6-1.3-.6-1.3-.6-.5-.3-1-.6-5.2-2.7-1.3-.6-8.4-4.3-2-.9-2.4-1-2-1v-.7l.1-.1v-.4l.1-.1v-.4l.1-.1v-.4l.1-.1v-.1l.9-4.2 1.4-6.8 1-5 2.2-10 .7-3.3 1-5 1.5-7.3.3-1.2h0v-.5l.1-.1v-.3l.1-.1v-.2l.1-.1v-.3l.1-.1v-.1l.3-.7h0v-.2h0v-.1l.1-.1v-.2l.1-.1v-.3l.1-.1v-.3l.1-.1.1-.5 1.3-6.3.7-3.5 1.3-6.1h.2l.4.1h.1l1 .3h0l3.5 1 3.3 1 .4.1h0l4-7.6v-.1l.7.7.1.2.8 1.6.2.3h0l.1.2v.2l.2.2v.2l.2.2.1.1.2.2h0l.1.1h0l.1.2h0l.2.1.2.2.2.1h0l.1.1.2.1.2.1.2.2h.2l.2.1.3.1h.2l.2.1h.2l.2.1h1.5l1.2-.2h.2l1.4-.3h1.6l3.8.1h1.4l.6-.1.6-.1 1.1-.2 1.1-.4.4-.2 1.1-.6h0l.7-.5v-.1l.4-.3.1-.2.2-.1.2-.3.1-.2h.1l.1-.1h.1l.1-.1h.2l.2-.1h.2l1-.3.2-.1h.1l.7-.2.5-.2h.2l.3-.1.5-.2h0l.5-.3h.1v-.1h.2v-.1h.3l.1-.1h.1l.8-.1.4-.2.8-.4h.1v-.1h.9v.1h.1v.1h.1l.3.4h0l.2.2.2.2h0l.1.1h0l.2.3.5.5h0v.1h.1v.1h.2v.1h.2v.1h1v-.1h.2l.1-.2.5-.3.3-.2.5-.4.7-.6h.1v-.1h.1v-.1h.2v-.1h.1v-.1h.2v-.1h.2v-.1h.3v-.1h.1l.2-.1h2v.1h.2v.1h.2v.1h.2v.1h.2l.1.2h.2l.2.2h0l.4.3h.1l.4.3h.1l.2.2v.1h.1l.3.3h0l.3.4z" fill="#7570b3" stroke="#fff" id="patch_10"/>
            <path clip-path="url(#pd26768fbce)" d="M365.9 216.9h0l.3.4h0l.1.1.2.3h0l.1.1h.1l.2.3h0l.2.2h0l.2.3h.1v.1h.1l.1.2h.1l.2.2.1.2h0l.1.1.3.3.3.3h0l.1.1.2.2 1.2 1.3.8.8.3.4.4.3.2.2.2.3.1.1.4.4.6.6h0l-3 .8-1 .3-.8.2-.8.2-.7.2-.3.1-4.9 1.3-1.4.4-.5.1-1 .3-6.9 1.8-5.4 1.4-4.7 1.3-.5.1-1.1.3-.6.1-.4.2h-.5l-6.2 1.7-.6.2-.6.1h-.2l-.9.3-1 .3-3.3.8-5.4 1.5h-.1 0-.2l-12 2.3-.8-.2h-2.1l-1-.2-1.6-.3-1-.3-.9-.4-2-1.2-.3-.2-2-1.4-.7-.4-.6-.4-1-1-.2-.5-1.6-5-.6-1.5.1-1.5.6-7.5v-.6l.1-.8.2-2v-4.1l.5-2.3.4-5.3.2-1 .4-5.9.3-3.4v-.6l.1-.4.2-1.8v-1.3l.5-4.5v-1.3l.3-2.7.4-5.2.3-2.8.1-2.2.4-3.5.1-2.2.3-3 .2-2.7.2-2v-1.8l-.1-2.3-.2-1-.9-3.6-.4-1.6-.2-1.1 4.8 2.2h0l.2.1h0l.2.1h0l.2.1h0l.2.1h0l.1.1h.1l.1.1h.1l.1.1h.1l.1.2h.1l4.4 2.9.4.2h0l.8 1 .1.1.2.2 1.2 1.5h0l.2.2 1.1 1.3.2.2v.1l.3.3.7.9h0l.3.4.4.5h0l.3.5.7 1 .1.1 1.1 1.6.3.4 1 1.4.6 1 .5.7.5.8.9 1.2 1.5 2.3h0l.6.9.3.4.4.3.3.4.7.7.9 1 1.4 1.4.8.9.6.6.8.8.4.5.6.6.7.7 1 1 .3.4.4.4.7.7 1.4 1.5.4.4.2.2.1.2h0l.3.3.9.9.7.7 1.9 2 .2.2.4.4 1.4 1.4.5.6.6.6.6.6.6.6.4.4.2.2.5.6.6.6.7.7 1.3 1.3.2.2v.1h.3l1 .2h1l.6.1 1.9.2h.2l1.3.2 1.1 1 1.2 1.2h0l4.7 4.6.7.7.1.2.6.6 3.2 3 .2.2.1.1.2.2.4.3 2.5 2.5.2.3 2 1.9.4.4.5.5h0l-.2.1-2.7 1.4-.2.2h-.1l-.6.3h0z" fill="#d95f02" stroke="#fff" id="patch_11"/>
            <path clip-path="url(#pd26768fbce)" d="M61.9 89.5l.6-.9h6.4l1.6.1 3.3.2 1.7.2 2.7.3 2.9.5 4.3 1 1 .2 7 2 5.7 1.6 1.9.6h.2l.2.1h.2l.1.1h.2l.1.1h.1l.2.1h.2v.1h.2v.1h.3l.1.1h.1l.1.1h.2l.1.1h.1l.2.1h0l.2.1h.2v.1h.2v.1h.2l.1.1h.1l.1.1h.2l.1.1h.1l.1.1h.1l.1.1h.1l.1.1h.1l.1.1h.1l.1.1h.2v.1h.2v.1h.2v.1h.2v.1h.2v.1h.2v.1h.2v.1h.2v.1h.2v.1h.2v.1l.2.1h0l.2.1h0l.2.1h0l.2.1h0l.2.1h0l.2.1h0l.2.1v.1h.2v.1h.2l1.6 1 12 7h.2v.1h.1l.1.1h.1l.1.1h.1l.1.1h.1l.1.1h.1l.1.1h.1l.1.1h.1l.1.1h.1l.1.1h.1l.1.1h.1l.1.1h.1l.1.1h.1l.1.1h.1l.1.1h.2v.1h.2v.1h.2v.1h.2v.1h.2v.1h.2v.1h.2v.1h.2l.2.1h.1l.1.1h.1l.1.1h.1l.1.1h.1l.1.1h.2l.1.1h.2v.1h.2v.1h.2l.2.1h0l.2.1h.1l.1.1h.2l.1.1h.1l.1.1h.1l.1.1h.2l.2.1h0l.2.1h.2l.1.1h.2l.1.1h.1l.1.1h.2l.2.1h0l.2.1h.2l.1.1h.2l.1.1h.1l.2.1h.2v.1h.2l.2.1h.2l.1.1h.2l.1.1h.3v.1h.2l.2.1h.2v.1h.4l.1.1h.2l.1.1h.3v.1h.2l.2.1h.2l.1.1h.3l.2.1h.2v.1h.4l.1.1h.4v.1h.2l.2.1h.3l.1.1h.3v.1h.4l.1.1h.1l4.2.9 4 .8 6.3 1.3.5.1 3.2.6 3.2.7 3.4.7 4.1.8.5.1 10.1 2 5 1 4.2 1 8.9 1.7 1 .2-6.4-.9h-.4 0-.2 0-.5l-.2-.1h0-.2 0-.7 0-.2 0-.7 0-.8 0-.8 0-.2 0-.7 0-.2 0-.7 0-.2l-.1.1h-.5 0-.2l-.1.1h-.5v.1h-.5l-.1.1h-.2 0-.2l-.1.1h-.2l-.1.1h-.2 0-.2l-.1.1h-.3l-.1.1h-.2 0l-.2.1h0-.2l-.1.1h-.2L178 127h-.2l-.1.1h-.1l-.2.1h0-.2v.1h-.2 0l-.2.1h-.1l-.1.1h-.2l-.1.1h-.1l-.1.1h-.2 0l-.2.1h0l-.2.1h0l-.2.1h0l-.2.1h-.2l-.1.1h-.1l-.1.1h-.1l-.1.1h-.1l-.1.1h-.1l-.1.1h-.1l-.1.1h-.1l-.1.1h-.1l-.1.1h-.1l-.1.1-2.3 1.4h-.1l-.1.1h-.1l-.1.1h-.1l-.1.1-.1.1h0l-.2.1v.1h-.2v.1l-.1.1h-.1l-.1.1-.1.1h-.1v.1l-.2.1h0l-.1.2h-.1l-.1.1h0l-.2.2h0l-.1.1h-.1v.2h-.2v.1h-.1l-.1.2h0l-.2.1v.1h-.1v.2h-.2v.1h-.1v.2h-.2v.1l-.1.1h-.1v.2h-.1l-.1.1-.1.1h0l-.1.2h-.1v.1l-.2.1h0l-.1.2h0l-.2.1v.1h-.1v.2h-.1l-.1.1v.1l-.1.1h-.1v.2h-.2l-2 2.8-3.5 5.3-1 1.8-1 2-.7 2-.4 1.2v.2l-.1.1v.3l-.1.1v.2l-.1.1v.4l-.1.1v.2l-.1.1v.4h-.1v.2h0v.2h0l-.1.2h0v.2h0v.2h-.1v.5l-.1.1v.4l-.1.1v.7h-.1l-1.2 1.4-1.6 1.7-1.7 1-5.2 1-4.7.5-7 2.3-4 1-4 1.2-6 1.7-8 3.8-5.2 2.5-11.9 6-6.6-3.6-16-6.8-2.4-.5h-1.5l-1-.1-1-.2-1.5-.4-.8-.3h-.1l-1.7-.8-2.1-1.2-4.5-4.2h0l-2.7-2.5h0l-1.4-1.3h0l.6-.5h0l1.3-1.9h0l1-2.2.2-1.2.1-.6.4-2 .2-.8.4-2 .3-1.4.4-1.9.2-1 .6-3.3v-.2l.3-1.3.3-1.2.2-1h0l.2-1.2.3-1.4-.1-.5v-.1l-.5-1.5-.3-1.2h0l-.7-2.2-.2-1v-.2l-.3-.8-.4-1.3-.2-1-.4-1.2v-.3l-.1-.3-.4-1.4-.1-.4-.1-.5-.6-2-.2-1-.1-.5-.3-1.1-.2-.5-.3-1.3-.5-1.8v-.5l-.7-2.3-.2-.7-.5-2-.2-.8-.3-1-.4-1.7-.3-1.2-.4-1.3-.1-.6h0l.4-.3V98l.3-.1h0l.6-.5h.2l.3-.3.2-.1.4-.4h.2l.5-.5h0l.2-.2.3-.1.7-.6h0l.8-.6h0l.4-.3h0l.2-.1.3-.2.6-.5.7-.5h0l.6-.5.3-.2h0l.6-.4.6-.5.4-.3.2-.1.1-.2.4-.2.6-.5.4-.3h0l.4-.3h.1z" fill="#e7298a" stroke="#fff" id="patch_12"/>
            <path clip-path="url(#pd26768fbce)" d="M63.9 206.2h0l1.5.6 4.8 2 1.3.6h0l.3-1-1.6-3.9-.2-.5.7-2.1-1.3-1.2-1.1-1-4-1-1.9-.5-.4-.2-.4-.1-6-2.7h0v-1h0l-1-.6h0l-.2-.1h0l-.1-.2h-.1v-.2H54v-.4l-.1-.2v-.2l-.1-.2v-.2l-.1-.2v-.2l-.1-.2v-.2l-.1-.2-.1-.2v-.2l-.2-.2v-.2l-.1-.2-.1-.2-.1-.2-.1-.1-.1-.2-.1-.2-1.1-2-1.3-2-.2-.5-2.3-4.3-1.2-2.2-1.2-2.3-3.4-6.3-.5-1-1.3-2.4-.3-.6-1.1-2-.1-.1-.6-1.2-.5-.8h0l1.6-.3 3-.6 1.5-.2.7-.1 1.8-.4.7-.1h.2l2.2-.5h.3l1-.3h0l.7-.5.2-.2h0l.2-.1h0v-.1h.2l4 3.6h.1l4.5 4.3 2.1 1.2 1.7.8h.1l.8.3 1.5.4 1 .2h1l1 .1h.5l2.3.5 16 6.8 6.7 3.6 4 4.1 9.5 7.5 4.2 2.5 3.5 1.6 2.3 1.6 3.2 2 3.5 1.9 1.8 1.3 5 2.3-.1.1-2 2-2 1.8-1.8 1.7-1.7 1.6h0l-.1.1-.1.1v.1h-.2v.2h-.1l-.1.1h0l-.1.2h-.1l-.1.1h0l-.2.2h0l-.1.1v.1h-.2v.2h-.1v.1h-.1l-.1.2h-.1v.1l-.1.1h-.1v.2h-.2v.1h-.1v.2h-.2v.1l-1.3 1.6h0l-.2.1v.1h0l-.2.2h0v.1l-.1.1-.1.1v.1h-.1l-.1.2h0l-.1.1-.1.1v.1l-.1.1h0l-.2.2h0v.2h-.1l-.1.1v.1l-.1.1h0l-.1.2h-.1v.2h-.1v.1l-.1.1-.1.1v.1h-.1v.2h-.1l-.1.2h0l-.1.1v.1l-.1.1v.1l-.1.1h0l-.1.2h-.1v.2h-.1v.1l-.1.1v.1l-.1.1v.1l-.1.1v.1h-.1v.2h-.1v.2h-.1v.2h-.1v.1l-.1.1v.1l-.1.1v.2l-.1.1v.1l-.1.1v.1l-2.3 5.3-6 13.4-1 2.4-3.5 7.9-.6 1.3h0l-1.4-.2h-.2l-.3-.1-.2-.1h-.2l-2.5-.6H98l-1.2-.2h-.5l-.3-.1h-.4l-.2-.1H95h0l-.3-.1H94l-.2-.1h-.6l-.3-.1h-.7l-.2-.1h-.7l-.2-.1h-.4l-2-.3-1.5-.2h0-.4 0-.1 0-.1 0-.1 0-.1l-2.5-.2-8-.9-.2-1.2v-.3l-.2-.8-.2-.6v-.1l-.1-.2v-.3l-.4-1-.3-1.2v-.3l-.3-.8-.2-.7-.4-1.6-.5-1.7-1.8-6.3-.2-.9v-.2l-.2-.5-.3-1.2-.4-1.3-.3-1.2h0v-.1l-.2-.6v-.2l-.5-1.3v-.3l-.3-1-.4-1-.2-.9-.2-.7-.4-1.4h0l-.1-.5-.2-.4v-.3l-.1-.2-.5-1.8-.7-2.3-.7-2.4-.4-1.5v-.2l-.3-.7-.4-1.3-.2-.7v-.2l-.1-.3v-.3h0z" fill="#66a61e" stroke="#fff" id="patch_13"/>
            <path clip-path="url(#pd26768fbce)" d="M175.4 329.6l-1 .6-.7.5-2.9 1-.3.2-1.1.3-.7.2-1 .2h-.4l-3.4.5-1.4-.2-1.5-.2-2-1-2.6-1h-.3l-5.2-2.1h-.2l-2.3-.6h-1.6l-2.4.4-.4-1.3-.4-1-.2-.7-1-3.1-.2-.3-.1-.4-.1-.2h0l-.6-1.4v-.2l-.5-.8-.3-.6h0l-.3-.7-.1-.2h0l-.2-.4h0v-.3l-.3-.7h0l.5-.2h.1l.6-.1 2-.4h.2l1.4-.3h.5l.8-.3h.5l.4-.2h.3l.4-.2h.1l.4-.2h.2l.4-.2h0l.3-.1.3-.2h.1l.3-.2h.1l.3-.2.2-.1v-.1l.2-.1h.1l.2-.2h.1l.3-.2.2-.2.2-.2h0l.2-.3h0l.3-.4h0l.1-.2h0l.2-.4h0l.2-.3.1-.3v-.1l.1-.1.2-.5.2-.4.2-.4h0l.2-.3v-.2l.3-.4v-.2l.2-.2.2-.6.2-.3.2-.4.2-.3v-.1l.3-.5.1-.3.1-.3.1-.1.2-.4.3-.6.2-.4.1-.3.2-.4.1-.3.2-.2.5-1 .2-.6.7-1.3 1-2.1.3-.6.6-1h0l.5-.7h0l.4-.7.4-2 .3-.5 1-2.2.8-1.6.3-.5.5-2.5h0l.4-2.2.2-1.3.2-1 .5-2.7v-1.1l.2-1 .3-6.2.3-3.3v-1.5l.2-2.3v-.6l.1-.6v-.4l-10-1.5-1.5-.2h-.3l-10.1-1.5-1.9-.3-.9-.2.4-2 .5-2.3.4-2v-.2l.2-1.3.3-1.2v-.3l-3 .3-4.1.4h-.7l-2.5.3-.8.1-1.8.2-1.6.1-3 .3-3.5.4h-.4l-3 .6-3.8.9h-.5l-6.3 1.4-.8.1h-.2l-.8.2-1.2.3h0-.2l-.7-.2h-.7l-.6-.1h0v-.3l4-9 1-2.4 6-13.4 2.2-5.3h0l.1-.2h0l.1-.2h0l.1-.2h0v-.2h.1v-.1l.1-.1v-.1l.1-.1v-.1l.1-.1v-.1l.1-.1h0l.1-.2h0l.1-.2h0l.1-.2h0l.1-.1.1-.1v-.1l.1-.1v-.1h.1v-.2h.1v-.2h.1l.1-.1v-.1l.1-.1v-.1l.1-.1h0l.2-.2h0v-.2h.1v-.1l.2-.1v-.1h0l.1-.2h.1v-.2h.1v-.1l.1-.1.1-.1h0l.1-.2h.1v-.2h.1v-.1l.2-.1v-.1h0l.2-.2h0v-.1l.1-.1.1-.1v-.1h.1l.1-.2h0l1.4-1.6h0l.1-.1v-.1h.2v-.2h.1v-.1l.2-.1h0l.1-.2h0l.2-.1h0l.1-.2h0l.1-.1.1-.1h.1v-.2h.1l.1-.1h.1v-.2h.2v-.1h.1v-.2h.2v-.1l.1-.1h0l.2-.2h0l.1-.1 1.7-1.6 1.8-1.7 2-1.9 2-1.9h0l-5-2.4-1.7-1.3-3.5-1.8-3.2-2-2.3-1.7-3.5-1.6-4.2-2.5-9.6-7.5-3.9-4.1 11.9-6 5.2-2.5 8-3.8 6-1.7 4-1.3 4-1 7-2.2 4.7-.5 5.2-1 1.7-1 1.6-1.7 1.2-1.4h.1v.1l.6.6 3.4 1.9 3.5 1.1.4.2 3.3 1.8 1.4.7.2.1 3.9 2 1 .6 1.1.6 2.9 1.6 1 .5.9.5 3 1.6 1.1.6 1 .6 2.8 1.5 1 .5 1 .5 2.6 1.4 1 .6.9.4 8.9 4.8 1 .6.8.4 5.5 3 .9.6h.2l.3.3.4.2 5 2.7.4.3.7.4 4.2 2.3 1 .7 3.4 2.4 2.2 1.6.5.4.4.3 1 .7.4.3 2.3 1.7.7.6 2.2 1.4.9.6.5.3 3.5 2.3 3.4 2.3 1.7 1.1.6.4.4.3 8.4 5.5 1.1.8.9.6 6 4 .8.5.7.5 2.9 1.8 1.4 1 .1.2 1 1.6 2 2.8.4.6.5.7.8 1.1.6.9 2.4 3 1.2 1.6.7 1 .9 1 1 .5 4.5 2.5 1.2.6.8.4 4.5 2.5 1.3.8 1.4.9 1.8 1h.1l1.6.8 3.6 1.3v.2l-.5 3v.2h0l-.1.2-.1.3v.1l-.2.5v.2l-.6 1-1.5 4-.5 1-.2.2-.1.1-.2.2-.2.2h0l-.6.2h-.1l-.4.4-4 6-.4.6-.4.7-1.3 2-.4.5-.4.6-2 3-.3.4-.3.5-.3.4-.6.8-.5.8-4.6 6.8-2.4 3.6-1 1.3-.1.3-3.3 4.8-1.1 1.6h0l-2.8-1-.2-.2-.8-.4-1-.6-1-1-2-2-.4-.4-.7-.9-.6-1-.4-.6-3.7-6.2-1-1.6-.8-1.2-.9-1.3-.7-1.1-3.3-5.3-1.5-2.2-2.4-2.2-3.8-3-5.2-4.2-5.5-2h-7.9l-2.5.1-.4.1h0l-4 .9-5 2.9h0l-1.7 2.1-2.3 3-.8 2.2v2.3l.4 1.9.5.6 1.3 1.8.6 1 .1.1 1 1.3 3 3.2 1 2 .7 2.7.2 1.8v.5l.3 1.4v1l-.3 1.8-2.7 3.2h0l-3 2.5-2 1.7-.6.6-4.5 3.4-1.8 1.1-2.2 1.3-3.5 1.9-2.6 1.4-1.8 1.2-2.4 2h0v.1l-.3.3-1.3 1.4-1.6 1.6-.3.4-1.7 1.7h0l-2.3 3-1.6 1.7-3.5 3.7-1.1 1.2h0l-2 1.7z" fill="#66a61e" stroke="#fff" id="patch_14"/>
            <path clip-path="url(#pd26768fbce)" d="M62.5 88.6v-.1l.2-.3.2-.2.4-.6.3-.6.2-.2 1-1.5 1.4-2.1.7-1 .4-.7.3-.4 1.4-2.1.6-.9.2-.4.2-.2 1.5-2.3.7-1 1-1.4 1.1-1.9.2-.3 1.2-1.8.3-.4 2.4-3.6.5-.8L80 62l1.3-2 .6-.9 1-1.4.2-.3 1-1.7.6-.8.7-.9.7-.9.3-.3.4-.7.9-1.2.2-.3.3-.5.1-.2.2-.2.3-.5h0l.5-.7.1-.2h.2l.4.2 1.2.6.2.1.2.1.4.2.8.4 1 .5 2.8 1.5h.2l.5.3h0l.3.2h0l.4.2 1.8 1 .7.3 1.7.9 1 .5 1.2.6 5.8 3.2.2.1.5.3.5.3 3 1.5 1.3.8 5 2.7 1.3.7.6.3 2.2 1.1.9.5.2.1.4.2 7.6 3.9 3.2 1.6 6 3 .4.3 1.3.7h.2l.2-.7.1-.5.4-1.2.3-1.1h0l1.2-1L149 71l2.5-2.2 1.1-1 2.5-2.5 1.2-1 .1-.2.2-.1 1-1.1 4.2-4 7.4-3.7 3.2-.2 7.2-.5 2.3-1.5.8-.6 3.6-2.4 1.8-1.6 4.5-3.9.5-.4h0L197 39l1.9-2.5 1.2-1.6.3-.7.2-.5v-.4l.2-.1.1-.5.2-.3.3-1 .1-.2.2-.2v-.4l.3-.4.1-.3.1-.3.4-.9v-.3l.3-.7h0l.2-.1.3-.3.2-.1.1-.1.1-.1 1.5 1.4h.1l.6.7.4.3.2.2.1.1.2.2.8.7.8.9.6.6h0l.3.3h.1l1 1 .4.4.2.2.2.2.5.5.2.2h.1l.3.4.2.2.1.1L217 40l1 1 2.8 2.8.8 1.1.5.8 1 1.2h0l1 1.6.4.4.2.3.8 1v.2l.3.3.8 1.1.3.4.3.4.4.7h.1l1 1.6.2.2.5.8.4.4.5.7.5.8.2.2.4.6h0l.7.9.3.4.2.2v.2l.7.8.6.8.4.6.4.6 1.3 1.8.4.5.1.2.2.2v.1l.5.6v.1l.9 1.1.4.6.3.4 1 1.4.5.7.4.5.3.4.3.4.3.4 1 1.3 1.2 1.8.2.3.5.6.6.8h0l.3.5h0l.6.8v.2l.8 1 .4.5.2.3.2.3h0l.6.8.5.7.5.7.3.5.2.2.3.5.2.2.5.8.2.3 1.3 1.8.3.4h0l.3.4 1 1.4.2.2.2.3 1.4 2 .4.7.2.1.1.3.3.3.2.4.5.6.3.4.8 1.1v.1l.7 1 .4.4.1.3h0l1 1.4.6.7.1.2.8 1 .7 1 .2.4 1.3 1.8.3.3.5.7.7.9.8.8 1.8 2 .1.3.2.2.3.3 1 1 .2.2.1.1 1.2 1.4.9 1 .6.7.2.2.3.3.1.1.2.3h0l.3.4h0l.3.3h0l.4-.3v-.1l.4-.3.3-.3h0l.1-.1h0l.2-.2h0l.1-.1.4-.4.1-.1h0l.1-.1h0l.7-.7h0l.5-.4.2-.2.5-.5v-.1l.2-.1.1-.2h0l.3-.3.5-.4.5-.5.3-.3.4-.3.3-.3h0l.5-.5.2-.2h0l.2-.1.2-.2v-.1l.3-.2h0l.1-.2.3-.2h0l.3-.3.1-.1.2-.1.2-.3.2-.1.2-.3h.1v-.1l.4-.3v-.1l.3-.2h.1v-.2l.4-.2v-.1h.1l.2-.3.2-.1h0l.1-.2h.1l.1-.1h0l.1-.1h0l.1-.1h.1v.1l.6 1.1.2.4.4.8.2.3.1.3h0l.1.1.4.7v.2h.1l.2.5.3.6.3.4.2.4.2.4v.1l.2.3.4.5.6.7v.2l.5.6.4.5.3.4.3.4.2.3.4.6h0l.4.6.3.3.3.5.2.2.3.4.4.6.1.1.8 1v.2l.5.5.2.3v.2h.2l.4.5.3.3.1.2.2.1.1.2.7.7.2.1.5.6.2.2.6.6h0l.3.3.4.3h0l.1.1h0l.6.6h0l.1.1h0l.2.2.1.1.2.2h0v.2l.3.3h.1l.4.3.1.2.3.4h0l.3.3v.1h.1l.3.4.1.2.4.4h0v.1l.2.1.4.5.1.1v.1l.6.7h0l.2.2.2.2.2.2.5.7h.1l.5.7.2.2.1.1h0l.3.4.2.2.3.3.4.5h0l.4.5.3.4.2.2h0l.2.2.2.2.2.2.1.2.3.3.3.4h0l-.2.1-.2.2-.3.2-.3.1-.3.3h-.2l-.1.2-.5.3-.4.2-.3.3-.4.2h0l-.5.3-.6.4h0l-.4.3-.5.3-.2.1-.1.1-.3.2h0l.1.3.3.3v.2l.5.7.1.1.2.3.2.3v.2l.3.3.1.2.2.3.2.3.3.5h0l.1.2.1.1.3.5.2.3h0l.2.3h0l-.5.3-.5.4h-.1l-.6.4-.2.1-.2.2h-.2l-.6.4-.4.2-.4.3-.2.1h-.1l-.6.5h0l.2.2v.1l.5.6.2.2.2.2v.1l.2.2.9 1v.1l.5.6.1.1.3.3v.2h0v-.1l-.2-.1h0l-4.6-3h0l-.2-.1h0l-.2-.1h0l-.2-.1h0l-.1-.1h-.1l-.1-.1h-.1l-.1-.1h-.1l-.1-.1-.1-.1h-.1l-.1-.1-4.8-2.2-1.2-.6-1.3-.4h-.5v-.1h-.2 0l-.2-.1h-.2l-.1-.1h-.2l-.1-.1h-.2 0-.2v-.1h-.5l-.1-.1h-.2l-.1-.1h-.2 0l-.2-.1h0-.3l-.1-.1h-.4v-.1h-.2 0l-.2-.1h-.4l-.2-.1-5.4-1.1-7.6-1.6-5.1-1-5.4-1.1-6.5-1.3-9.7-2-5.8-1.2-6.3-1.3-5.8-1.2-4.4-.8-4-.9-6.2-1.2-6.2-1.3-4.4-.9-2.6-.5-1.7-.4-1.4-.3-1-.2-8.9-1.8-4.3-.8-4.9-1-10.1-2-.5-.2-4-.8-3.5-.7-3.2-.7-3.2-.6-.5-.1-6.3-1.3-4-.8-4.2-.9h0-.4l-.1-.1h-.3 0l-.2-.1h0-.4l-.1-.1h-.2l-.1-.1h-.2 0-.2v-.1h-.2l-.1-.1h-.3l-.2-.1h0-.2v-.1h-.4l-.1-.1h-.2l-.1-.1h-.2 0l-.2-.1h0-.2 0l-.2-.1h-.2l-.1-.1h-.2l-.1-.1h-.2l-.1-.1h-.2 0l-.2-.1h0-.2v-.1h-.4l-.1-.1h-.2l-.1-.1h-.1l-.1-.1h-.2 0l-.2-.1h0-.2l-.1-.1h-.1l-.1-.1h-.2l-.1-.1h-.2v-.1h-.2v-.1h-.2 0l-.2-.1h-.1l-.1-.1h-.2l-.1-.1h-.1l-.2-.1h0-.2v-.1h-.2v-.1h-.2 0l-.2-.1h-.1l-.1-.1h-.1l-.1-.1h-.2l-.1-.1h-.1l-.1-.1h-.2v-.1h-.2v-.1h-.2 0l-.2-.1h0l-.2-.1h0l-.2-.1h-.1l-.1-.1h-.1l-.1-.1h-.1l-.1-.1h-.2l-.1-.1h-.1l-.1-.1h-.1l-.1-.1h-.1l-.1-.1h-.1l-.1-.1h-.2v-.1h-.2v-.1h-.2v-.1h-.2v-.1h-.2v-.1h-.2v-.1h-.2v-.1h-.2v-.1h-.2v-.1h-.2v-.1h-.2v-.1h-.2v-.1h-.2v-.1h-.1l-.1-.1h-.1l-12.1-7.1-1.6-1h-.2l-.1-.1h-.1l-.1-.1h-.1l-.1-.1h-.1l-.1-.1h-.1l-.1-.1h-.1l-.1-.1-.1-.1h-.1l-.1-.1h-.1l-.1-.1h-.1l-.1-.1h-.1l-.1-.1h-.1l-.1-.1h-.1l-.1-.1h-.1l-.1-.1h-.1l-.1-.1h-.1l-.1-.1h-.1l-.1-.1h-.1l-.1-.1h-.2v-.1h-.2v-.1h-.2v-.1h-.2V97h-.2v0h-.2v-.1h-.2v-.1h-.4l-.1-.1h-.1l-.1-.1h-.1l-.1-.1h-.1l-.1-.1h-.2l-.2-.1h0l-.2-.1h0-.2V96h-.2l-.1-.1h-.1l-.1-.1h-.2l-.1-.1h-.1l-.1-.1h-.2 0l-.2-.1h0-.2v-.1h-.3l-.1-.1h-.1l-.1-.1h-.1l-1.9-.6-5.7-1.7-7-2-1-.2-4.3-1-3-.4-2.6-.3-1.7-.2-3.3-.2H63z" fill="#66a61e" stroke="#fff" id="patch_15"/>
            <text x="411.6" y="319.7" fill="#fff" font-family="Linux Libertine O" font-size="14" font-weight="400" id="text_1">
                The Port
            </text>
            <text x="314.5" y="314.2" fill="#fff" font-family="Linux Libertine O" font-size="14" font-weight="400" id="text_2">
                Riverside
            </text>
            <g id="text_3" fill="#fff" font-family="Linux Libertine O" font-size="14" font-weight="400">
                <text transform="translate(200.5 155.6)">
                    Neighborhood
                </text>
                <text transform="translate(200.5 170.6)">
                    Nine
                </text>
            </g>
            <text x="439.2" y="379.7" fill="#fff" font-family="Linux Libertine O" font-size="14" font-weight="400" id="text_4">
                Area 2/MIT
            </text>
            <text x="335.5" y="370.8" fill="#fff" font-family="Linux Libertine O" font-size="14" font-weight="400" id="text_5">
                Cambridgeport
            </text>
            <text x="326.8" y="267.9" fill="#fff" font-family="Linux Libertine O" font-size="14" font-weight="400" id="text_6">
                Mid-Cambridge
            </text>
            <g id="text_7" fill="#fff" font-family="Linux Libertine O" font-size="14" font-weight="400">
                <text transform="translate(428.2 268)">
                    Wellington–
                </text>
                <text transform="translate(428.2 283.1)">
                    Harrington
                </text>
            </g>
            <text x="504.8" y="300.1" fill="#fff" font-family="Linux Libertine O" font-size="14" font-weight="400" id="text_8">
                East Cambridge
            </text>
            <text x="301.1" y="206.7" fill="#fff" font-family="Linux Libertine O" font-size="14" font-weight="400" id="text_9">
                Agassiz
            </text>
            <g id="text_10" fill="#fff" font-family="Linux Libertine O" font-size="14" font-weight="400">
                <text transform="translate(73.3 126.8)">
                    Cambridge
                </text>
                <text transform="translate(73.3 141.9)">
                    Highlands
                </text>
            </g>
            <g id="text_11" fill="#fff" font-family="Linux Libertine O" font-size="14" font-weight="400">
                <text transform="translate(76.3 203.5)">
                    Straw-
                </text>
                <text transform="translate(76.3 218.5)">
                    berry
                </text>
                <text transform="translate(76.3 233.5)">
                    Hill
                </text>
            </g>
            <text x="155.8" y="234.2" fill="#fff" font-family="Linux Libertine O" font-size="14" font-weight="400" id="text_12">
                West Cambridge
            </text>
            <text x="144.1" y="96.6" fill="#fff" font-family="Linux Libertine O" font-size="14" font-weight="400" id="text_13">
                North Cambridge
            </text>
        </g>
    </g>
    <defs>
        <clipPath id="pd26768fbce">
            <path d="M7.2 7.2h669.6v434.9H7.2z"/>
        </clipPath>
    </defs>
</svg>
