<svg height="288" viewBox="0 0 504 216" width="672" xmlns="http://www.w3.org/2000/svg">
    <defs>
        <style>
            *{stroke-linecap:butt;stroke-linejoin:round}
        </style>
    </defs>
    <g id="figure_1">
        <path d="M0 216h504V0H0z" fill="none" id="patch_1"/>
        <g id="axes_1">
            <path d="M29 190.7h464.2V10.8H29.1z" fill="none" id="patch_2"/>
            <g id="matplotlib.axis_1">
                <g id="xtick_1">
                    <text x="66.7" y="201.2" fill="gray" font-family="Linux Libertine O" font-size="10" font-weight="400" text-anchor="middle" id="text_1">
                        Feb
                    </text>
                </g>
                <g id="xtick_2">
                    <text x="183.8" y="201.2" fill="gray" font-family="Linux Libertine O" font-size="10" font-weight="400" text-anchor="middle" id="text_2">
                        Mar
                    </text>
                </g>
                <g id="xtick_3">
                    <text x="313.4" y="201.2" fill="gray" font-family="Linux Libertine O" font-size="10" font-weight="400" text-anchor="middle" id="text_3">
                        Apr
                    </text>
                </g>
                <g id="xtick_4">
                    <text x="438.8" y="201.2" fill="gray" font-family="Linux Libertine O" font-size="10" font-weight="400" text-anchor="middle" id="text_4">
                        May
                    </text>
                </g>
            </g>
            <g id="matplotlib.axis_2">
                <g id="ytick_1">
                    <text x="25.6" y="176.2" fill="gray" font-family="Linux Libertine O" font-size="10" font-weight="400" text-anchor="end" id="text_5">
                        −40
                    </text>
                </g>
                <g id="ytick_2">
                    <text x="25.6" y="140.2" fill="gray" font-family="Linux Libertine O" font-size="10" font-weight="400" text-anchor="end" id="text_6">
                        −20
                    </text>
                </g>
                <g id="ytick_3">
                    <text x="25.6" y="104.2" fill="gray" font-family="Linux Libertine O" font-size="10" font-weight="400" text-anchor="end" id="text_7">
                        0
                    </text>
                </g>
                <g id="ytick_4">
                    <text x="25.6" y="68.3" fill="gray" font-family="Linux Libertine O" font-size="10" font-weight="400" text-anchor="end" id="text_8">
                        20
                    </text>
                </g>
                <g id="ytick_5">
                    <text x="25.6" y="32.3" fill="gray" font-family="Linux Libertine O" font-size="10" font-weight="400" text-anchor="end" id="text_9">
                        40
                    </text>
                </g>
            </g>
            <path clip-path="url(#p5ef7176a86)" d="M296.7 55.8v45" fill="none" stroke="#909090" stroke-dasharray="1,1.65" id="LineCollection_1"/>
            <path clip-path="url(#p5ef7176a86)" d="M296.7 55.8v45" fill="none" stroke="#909090" stroke-dasharray="1,1.65" id="LineCollection_2"/>
            <path clip-path="url(#p5ef7176a86)" d="M29 100.8h464.2" fill="none" stroke="gray" stroke-linecap="square" stroke-width="1.5" id="line2d_10"/>
            <path clip-path="url(#p5ef7176a86)" d="M179.6 96l4.2 1.6 4.1-6 4.2.2 4.2-4.6 4.2-5.5 4.2-2 4.2 8.5 4.1 4.2 4.2 5 4.2 2.3 4.2-3 4.2-5.8 4.1-3.4 4.2-1.5 4.2-1.8 4.2 3.3 4.2.3 4.2 1.8 4.1 3.1 4.2 3.2 4.2 2.2 4.2 2.5 4.2 1 4.1-3.4 4.2-2.4 4.2-.2 4.2-4.1 4.2.7 4.1 2.3 4.2 3.2 4.2-2.4 4.2.6 4.2-2.2 4.2-1.5 4.1-4.8 4.2-2.8 4.2 1.6 4.2-2 4.2 1.6 4.1 4.7 4.2 6.8 4.2-1.4 4.2-1.8 4.2 1 4.2-1.8 4.1-9 4.2-3.2 4.2 1.5 4.2-4.3 4.2 2 4.1 2.1 4.2 6 4.2 1.7 4.2-.1 4.2-2.3 4.2 3 4.1-2.8 4.2-.2 4.2 3.4 4.2-1 4.2.8 4.1.9 4.2.3 4.2-3.3 4.2 1.1 4.2-6 4.1.3L464 82l4.2-.8 4.2.7 4.2 5.5 4.2-3.4 4.1-.4L489 86l4.2 5.8" fill="none" stroke="#0658cf" stroke-linecap="square" stroke-width="2" id="line2d_11"/>
            <path clip-path="url(#p5ef7176a86)" d="M179.6 89.5l4.2-1.2 4.1 1.8 4.2-1.6 4.2 1.8 4.2 6.3 4.2 5 4.2 2.6 4.1.6 4.2-4 4.2-6.6 4.2-.2 4.2-.6 4.1 1.7 4.2 2.9 4.2 3.8 4.2-3.6 4.2-1 4.2.7 4.1-3.5 4.2-1.1 4.2 2.2 4.2 2 4.2-1.2 4.1 1.7 4.2-.5 4.2-4 4.2-1.8 4.2.4 4.1.5L305 88l4.2-.8 4.2.5 4.2-1.2 4.2-2.9 4.1 2.3 4.2 3.8 4.2-1.7 4.2-2.4 4.2 4.7 4.1 1.5 4.2-.3 4.2 1.7 4.2-.4 4.2.6 4.2.1 4.1 3 4.2.7 4.2 3.1 4.2-5 4.2-1.7 4.1-2 4.2-1.8 4.2-2.9 4.2 1.6 4.2 3.8 4.2-1.5 4.1 1 4.2 3.6 4.2-3.2 4.2-.9 4.2-1.2 4.1 1 4.2 1.6 4.2 4.7 4.2-2.3 4.2 7.2 4.1-1.7 4.2-4 4.2 1 4.2 3.8 4.2-5.8 4.2.5 4.1 1.5 4.2 1.8 4.2.4" fill="none" stroke="#f50" stroke-linecap="square" stroke-width="2" id="line2d_12"/>
            <g id="text_10" fill="#f50" font-family="Linux Libertine O" font-size="8" font-weight="400">
                <text transform="translate(296.7 47.2)">
                    New York State legislature
                </text>
                <text transform="translate(296.7 55.8)">
                    announces plastic bag ban
                </text>
            </g>
            <g id="text_11" fill="#f50" font-family="Linux Libertine O" font-size="8" font-weight="400">
                <text transform="translate(296.7 47.2)">
                    New York State legislature
                </text>
                <text transform="translate(296.7 55.8)">
                    announces plastic bag ban
                </text>
            </g>
        </g>
    </g>
    <defs>
        <clipPath id="p5ef7176a86">
            <path d="M29.1 10.8h464.1v179.9H29.1z"/>
        </clipPath>
    </defs>
</svg>
