<?xml version="1.0" encoding="utf-8" standalone="no"?>
<!DOCTYPE svg PUBLIC "-//W3C//DTD SVG 1.1//EN"
  "http://www.w3.org/Graphics/SVG/1.1/DTD/svg11.dtd">
<!-- Created with matplotlib (https://matplotlib.org/) -->
<svg height="156.124687pt" version="1.1" viewBox="0 0 373.452176 156.124687" width="373.452176pt" xmlns="http://www.w3.org/2000/svg" xmlns:xlink="http://www.w3.org/1999/xlink">
 <metadata>
  <rdf:RDF xmlns:cc="http://creativecommons.org/ns#" xmlns:dc="http://purl.org/dc/elements/1.1/" xmlns:rdf="http://www.w3.org/1999/02/22-rdf-syntax-ns#">
   <cc:Work>
    <dc:type rdf:resource="http://purl.org/dc/dcmitype/StillImage"/>
    <dc:date>2020-10-26T14:16:21.296735</dc:date>
    <dc:format>image/svg+xml</dc:format>
    <dc:creator>
     <cc:Agent>
      <dc:title>Matplotlib v3.3.2, https://matplotlib.org/</dc:title>
     </cc:Agent>
    </dc:creator>
   </cc:Work>
  </rdf:RDF>
 </metadata>
 <defs>
  <style type="text/css">*{stroke-linecap:butt;stroke-linejoin:round;}</style>
 </defs>
 <g id="figure_1">
  <g id="patch_1">
   <path d="M 0 156.124687 
L 373.452176 156.124687 
L 373.452176 0 
L 0 0 
z
" style="fill:none;"/>
  </g>
  <g id="axes_1">
   <g id="patch_2">
    <path d="M 30.534375 115.92 
L 182.716193 115.92 
L 182.716193 7.2 
L 30.534375 7.2 
z
" style="fill:none;"/>
   </g>
   <g id="patch_3">
    <path clip-path="url(#p990a0902bb)" d="M 37.45173 115.92 
L 57.215603 115.92 
L 57.215603 115.92 
L 37.45173 115.92 
z
" style="fill:#727ecf;stroke:#ffffff;stroke-linejoin:miter;"/>
   </g>
   <g id="patch_4">
    <path clip-path="url(#p990a0902bb)" d="M 57.215603 115.92 
L 76.979475 115.92 
L 76.979475 115.92 
L 57.215603 115.92 
z
" style="fill:#727ecf;stroke:#ffffff;stroke-linejoin:miter;"/>
   </g>
   <g id="patch_5">
    <path clip-path="url(#p990a0902bb)" d="M 76.979475 115.92 
L 96.743348 115.92 
L 96.743348 115.92 
L 76.979475 115.92 
z
" style="fill:#727ecf;stroke:#ffffff;stroke-linejoin:miter;"/>
   </g>
   <g id="patch_6">
    <path clip-path="url(#p990a0902bb)" d="M 96.743348 115.92 
L 116.50722 115.92 
L 116.50722 12.377143 
L 96.743348 12.377143 
z
" style="fill:#727ecf;stroke:#ffffff;stroke-linejoin:miter;"/>
   </g>
   <g id="patch_7">
    <path clip-path="url(#p990a0902bb)" d="M 116.50722 115.92 
L 136.271093 115.92 
L 136.271093 64.148571 
L 116.50722 64.148571 
z
" style="fill:#727ecf;stroke:#ffffff;stroke-linejoin:miter;"/>
   </g>
   <g id="patch_8">
    <path clip-path="url(#p990a0902bb)" d="M 136.271093 115.92 
L 156.034965 115.92 
L 156.034965 90.034286 
L 136.271093 90.034286 
z
" style="fill:#727ecf;stroke:#ffffff;stroke-linejoin:miter;"/>
   </g>
   <g id="patch_9">
    <path clip-path="url(#p990a0902bb)" d="M 156.034965 115.92 
L 175.798838 115.92 
L 175.798838 90.034286 
L 156.034965 90.034286 
z
" style="fill:#727ecf;stroke:#ffffff;stroke-linejoin:miter;"/>
   </g>
   <g id="patch_10">
    <path clip-path="url(#p990a0902bb)" d="M 37.45173 115.92 
L 57.215603 115.92 
L 57.215603 115.92 
L 37.45173 115.92 
z
" style="fill:#e93834;stroke:#ffffff;stroke-linejoin:miter;"/>
   </g>
   <g id="patch_11">
    <path clip-path="url(#p990a0902bb)" d="M 57.215603 115.92 
L 76.979475 115.92 
L 76.979475 115.92 
L 57.215603 115.92 
z
" style="fill:#e93834;stroke:#ffffff;stroke-linejoin:miter;"/>
   </g>
   <g id="patch_12">
    <path clip-path="url(#p990a0902bb)" d="M 76.979475 115.92 
L 96.743348 115.92 
L 96.743348 64.148571 
L 76.979475 64.148571 
z
" style="fill:#e93834;stroke:#ffffff;stroke-linejoin:miter;"/>
   </g>
   <g id="patch_13">
    <path clip-path="url(#p990a0902bb)" d="M 96.743348 115.92 
L 116.50722 115.92 
L 116.50722 115.92 
L 96.743348 115.92 
z
" style="fill:#e93834;stroke:#ffffff;stroke-linejoin:miter;"/>
   </g>
   <g id="patch_14">
    <path clip-path="url(#p990a0902bb)" d="M 116.50722 115.92 
L 136.271093 115.92 
L 136.271093 115.92 
L 116.50722 115.92 
z
" style="fill:#e93834;stroke:#ffffff;stroke-linejoin:miter;"/>
   </g>
   <g id="patch_15">
    <path clip-path="url(#p990a0902bb)" d="M 136.271093 115.92 
L 156.034965 115.92 
L 156.034965 115.92 
L 136.271093 115.92 
z
" style="fill:#e93834;stroke:#ffffff;stroke-linejoin:miter;"/>
   </g>
   <g id="patch_16">
    <path clip-path="url(#p990a0902bb)" d="M 156.034965 115.92 
L 175.798838 115.92 
L 175.798838 115.92 
L 156.034965 115.92 
z
" style="fill:#e93834;stroke:#ffffff;stroke-linejoin:miter;"/>
   </g>
   <g id="matplotlib.axis_1">
    <g id="xtick_1">
     <g id="text_1">
      <text style="fill:#808080;font-family:Linux Libertine O;font-size:10px;font-stretch:normal;font-style:normal;font-weight:normal;text-anchor:middle;" transform="rotate(-0, 57.215603, 131.399687)" x="57.215603" y="131.399687">40%</text>
     </g>
    </g>
    <g id="xtick_2">
     <g id="text_2">
      <text style="fill:#808080;font-family:Linux Libertine O;font-size:10px;font-stretch:normal;font-style:normal;font-weight:normal;text-anchor:middle;" transform="rotate(-0, 96.743348, 131.399687)" x="96.743348" y="131.399687">50%</text>
     </g>
    </g>
    <g id="xtick_3">
     <g id="text_3">
      <text style="fill:#808080;font-family:Linux Libertine O;font-size:10px;font-stretch:normal;font-style:normal;font-weight:normal;text-anchor:middle;" transform="rotate(-0, 136.271093, 131.399687)" x="136.271093" y="131.399687">60%</text>
     </g>
    </g>
    <g id="xtick_4">
     <g id="text_4">
      <text style="fill:#808080;font-family:Linux Libertine O;font-size:10px;font-stretch:normal;font-style:normal;font-weight:normal;text-anchor:middle;" transform="rotate(-0, 175.798838, 131.399687)" x="175.798838" y="131.399687">70%</text>
     </g>
    </g>
    <g id="text_5">
     <text style="font-family:Linux Libertine O;font-size:12px;font-stretch:normal;font-style:normal;font-weight:normal;text-anchor:middle;" transform="rotate(-0, 106.625284, 146.115937)" x="106.625284" y="146.115937">Sample poll results</text>
    </g>
   </g>
   <g id="matplotlib.axis_2">
    <g id="ytick_1">
     <g id="text_6">
      <text style="fill:#808080;font-family:Linux Libertine O;font-size:10px;font-stretch:normal;font-style:normal;font-weight:normal;text-anchor:end;" transform="rotate(-0, 27.034375, 119.409844)" x="27.034375" y="119.409844">0</text>
     </g>
    </g>
    <g id="ytick_2">
     <g id="text_7">
      <text style="fill:#808080;font-family:Linux Libertine O;font-size:10px;font-stretch:normal;font-style:normal;font-weight:normal;text-anchor:end;" transform="rotate(-0, 27.034375, 93.524129)" x="27.034375" y="93.524129">1</text>
     </g>
    </g>
    <g id="ytick_3">
     <g id="text_8">
      <text style="fill:#808080;font-family:Linux Libertine O;font-size:10px;font-stretch:normal;font-style:normal;font-weight:normal;text-anchor:end;" transform="rotate(-0, 27.034375, 67.638415)" x="27.034375" y="67.638415">2</text>
     </g>
    </g>
    <g id="ytick_4">
     <g id="text_9">
      <text style="fill:#808080;font-family:Linux Libertine O;font-size:10px;font-stretch:normal;font-style:normal;font-weight:normal;text-anchor:end;" transform="rotate(-0, 27.034375, 41.752701)" x="27.034375" y="41.752701">3</text>
     </g>
    </g>
    <g id="ytick_5">
     <g id="text_10">
      <text style="fill:#808080;font-family:Linux Libertine O;font-size:10px;font-stretch:normal;font-style:normal;font-weight:normal;text-anchor:end;" transform="rotate(-0, 27.034375, 15.866987)" x="27.034375" y="15.866987">4</text>
     </g>
    </g>
    <g id="text_11">
     <text style="font-family:Linux Libertine O;font-size:12px;font-stretch:normal;font-style:normal;font-weight:normal;text-anchor:middle;" transform="rotate(-90, 15.575625, 61.56)" x="15.575625" y="61.56">Number of polls</text>
    </g>
   </g>
  </g>
  <g id="axes_2">
   <g id="patch_17">
    <path d="M 213.152557 115.92 
L 365.334375 115.92 
L 365.334375 7.2 
L 213.152557 7.2 
z
" style="fill:none;"/>
   </g>
   <g id="patch_18">
    <path clip-path="url(#p9b91b39f98)" d="M 279.36153 115.92 
L 279.480232 52.907963 
L 279.598934 52.531803 
L 279.717635 52.155698 
L 279.836337 51.779676 
L 279.955039 51.403763 
L 280.073741 51.027987 
L 280.192443 50.652378 
L 280.311145 50.276962 
L 280.429847 49.901769 
L 280.548549 49.526825 
L 280.667251 49.152161 
L 280.785953 48.777805 
L 280.904655 48.403785 
L 281.023357 48.030131 
L 281.142059 47.656871 
L 281.260761 47.284035 
L 281.379463 46.911652 
L 281.498165 46.539751 
L 281.616866 46.168362 
L 281.735568 45.797515 
L 281.85427 45.427239 
L 281.972972 45.057563 
L 282.091674 44.688519 
L 282.210376 44.320136 
L 282.329078 43.952443 
L 282.44778 43.585471 
L 282.566482 43.219251 
L 282.685184 42.853813 
L 282.803886 42.489186 
L 282.922588 42.125402 
L 283.04129 41.76249 
L 283.159992 41.400482 
L 283.278694 41.039408 
L 283.397396 40.679298 
L 283.516097 40.320184 
L 283.634799 39.962096 
L 283.753501 39.605064 
L 283.872203 39.24912 
L 283.990905 38.894295 
L 284.109607 38.540618 
L 284.228309 38.188122 
L 284.347011 37.836837 
L 284.465713 37.486793 
L 284.584415 37.138022 
L 284.703117 36.790554 
L 284.821819 36.444421 
L 284.940521 36.099653 
L 285.059223 35.756282 
L 285.177925 35.414337 
L 285.296627 35.07385 
L 285.415328 34.734851 
L 285.53403 34.397372 
L 285.652732 34.061443 
L 285.771434 33.727094 
L 285.890136 33.394357 
L 286.008838 33.063261 
L 286.12754 32.733838 
L 286.246242 32.406118 
L 286.364944 32.080131 
L 286.483646 31.755908 
L 286.602348 31.433478 
L 286.72105 31.112873 
L 286.839752 30.794122 
L 286.958454 30.477254 
L 287.077156 30.162301 
L 287.195857 29.849292 
L 287.314559 29.538256 
L 287.433261 29.229223 
L 287.551963 28.922223 
L 287.670665 28.617285 
L 287.789367 28.314439 
L 287.908069 28.013712 
L 288.026771 27.715136 
L 288.145473 27.418738 
L 288.264175 27.124546 
L 288.382877 26.832591 
L 288.501579 26.5429 
L 288.620281 26.255501 
L 288.738983 25.970422 
L 288.857685 25.687693 
L 288.976387 25.407339 
L 289.095088 25.12939 
L 289.21379 24.853872 
L 289.332492 24.580813 
L 289.451194 24.310239 
L 289.569896 24.042179 
L 289.688598 23.776658 
L 289.8073 23.513703 
L 289.926002 23.25334 
L 290.044704 22.995596 
L 290.163406 22.740496 
L 290.282108 22.488066 
L 290.40081 22.238331 
L 290.519512 21.991318 
L 290.638214 21.74705 
L 290.756916 21.505553 
L 290.875618 21.26685 
L 290.994319 21.030968 
L 291.113021 20.797928 
L 291.231723 20.567756 
L 291.350425 20.340475 
L 291.469127 20.116108 
L 291.587829 19.894678 
L 291.706531 19.676208 
L 291.825233 19.460721 
L 291.943935 19.248239 
L 292.062637 19.038783 
L 292.181339 18.832375 
L 292.300041 18.629038 
L 292.418743 18.428791 
L 292.537445 18.231656 
L 292.656147 18.037653 
L 292.774849 17.846803 
L 292.89355 17.659125 
L 293.012252 17.474639 
L 293.130954 17.293365 
L 293.249656 17.115321 
L 293.368358 16.940526 
L 293.48706 16.768998 
L 293.605762 16.600756 
L 293.724464 16.435817 
L 293.843166 16.274199 
L 293.961868 16.115918 
L 294.08057 15.960992 
L 294.199272 15.809437 
L 294.317974 15.661268 
L 294.436676 15.516502 
L 294.555378 15.375153 
L 294.67408 15.237238 
L 294.792781 15.10277 
L 294.911483 14.971764 
L 295.030185 14.844234 
L 295.148887 14.720194 
L 295.267589 14.599656 
L 295.386291 14.482633 
L 295.504993 14.369139 
L 295.623695 14.259185 
L 295.742397 14.152783 
L 295.861099 14.049944 
L 295.979801 13.95068 
L 296.098503 13.855001 
L 296.217205 13.762917 
L 296.335907 13.674438 
L 296.454609 13.589574 
L 296.573311 13.508333 
L 296.692012 13.430726 
L 296.810714 13.356759 
L 296.929416 13.286441 
L 297.048118 13.21978 
L 297.16682 13.156782 
L 297.285522 13.097455 
L 297.404224 13.041804 
L 297.522926 12.989837 
L 297.641628 12.941557 
L 297.76033 12.896972 
L 297.879032 12.856085 
L 297.997734 12.818901 
L 298.116436 12.785424 
L 298.235138 12.755657 
L 298.35384 12.729605 
L 298.472542 12.707268 
L 298.591243 12.688651 
L 298.709945 12.673755 
L 298.828647 12.662582 
L 298.947349 12.655132 
L 299.066051 12.651407 
L 299.184753 12.651407 
L 299.303455 12.655132 
L 299.422157 12.662582 
L 299.540859 12.673755 
L 299.659561 12.688651 
L 299.778263 12.707268 
L 299.896965 12.729605 
L 300.015667 12.755657 
L 300.134369 12.785424 
L 300.253071 12.818901 
L 300.371772 12.856085 
L 300.490474 12.896972 
L 300.609176 12.941557 
L 300.727878 12.989837 
L 300.84658 13.041804 
L 300.965282 13.097455 
L 301.083984 13.156782 
L 301.202686 13.21978 
L 301.321388 13.286441 
L 301.44009 13.356759 
L 301.558792 13.430726 
L 301.677494 13.508333 
L 301.796196 13.589574 
L 301.914898 13.674438 
L 302.0336 13.762917 
L 302.152302 13.855001 
L 302.271003 13.95068 
L 302.389705 14.049944 
L 302.508407 14.152783 
L 302.627109 14.259185 
L 302.745811 14.369139 
L 302.864513 14.482633 
L 302.983215 14.599656 
L 303.101917 14.720194 
L 303.220619 14.844234 
L 303.339321 14.971764 
L 303.458023 15.10277 
L 303.576725 15.237238 
L 303.695427 15.375153 
L 303.814129 15.516502 
L 303.932831 15.661268 
L 304.051533 15.809437 
L 304.170234 15.960992 
L 304.288936 16.115918 
L 304.407638 16.274199 
L 304.52634 16.435817 
L 304.645042 16.600756 
L 304.763744 16.768998 
L 304.882446 16.940526 
L 305.001148 17.115321 
L 305.11985 17.293365 
L 305.238552 17.474639 
L 305.357254 17.659125 
L 305.475956 17.846803 
L 305.594658 18.037653 
L 305.71336 18.231656 
L 305.832062 18.428791 
L 305.950764 18.629038 
L 306.069465 18.832375 
L 306.188167 19.038783 
L 306.306869 19.248239 
L 306.425571 19.460721 
L 306.544273 19.676208 
L 306.662975 19.894678 
L 306.781677 20.116108 
L 306.900379 20.340475 
L 307.019081 20.567756 
L 307.137783 20.797928 
L 307.256485 21.030968 
L 307.375187 21.26685 
L 307.493889 21.505553 
L 307.612591 21.74705 
L 307.731293 21.991318 
L 307.849995 22.238331 
L 307.968696 22.488066 
L 308.087398 22.740496 
L 308.2061 22.995596 
L 308.324802 23.25334 
L 308.443504 23.513703 
L 308.562206 23.776658 
L 308.680908 24.042179 
L 308.79961 24.310239 
L 308.918312 24.580813 
L 309.037014 24.853872 
L 309.155716 25.12939 
L 309.274418 25.407339 
L 309.39312 25.687693 
L 309.511822 25.970422 
L 309.630524 26.255501 
L 309.749226 26.5429 
L 309.867927 26.832591 
L 309.986629 27.124546 
L 310.105331 27.418738 
L 310.224033 27.715136 
L 310.342735 28.013712 
L 310.461437 28.314439 
L 310.580139 28.617285 
L 310.698841 28.922223 
L 310.817543 29.229223 
L 310.936245 29.538256 
L 311.054947 29.849292 
L 311.173649 30.162301 
L 311.292351 30.477254 
L 311.411053 30.794122 
L 311.529755 31.112873 
L 311.648456 31.433478 
L 311.767158 31.755908 
L 311.88586 32.080131 
L 312.004562 32.406118 
L 312.123264 32.733838 
L 312.241966 33.063261 
L 312.360668 33.394357 
L 312.47937 33.727094 
L 312.598072 34.061443 
L 312.716774 34.397372 
L 312.835476 34.734851 
L 312.954178 35.07385 
L 313.07288 35.414337 
L 313.191582 35.756282 
L 313.310284 36.099653 
L 313.428986 36.444421 
L 313.547687 36.790554 
L 313.666389 37.138022 
L 313.785091 37.486793 
L 313.903793 37.836837 
L 314.022495 38.188122 
L 314.141197 38.540618 
L 314.259899 38.894295 
L 314.378601 39.24912 
L 314.497303 39.605064 
L 314.616005 39.962096 
L 314.734707 40.320184 
L 314.853409 40.679298 
L 314.972111 41.039408 
L 315.090813 41.400482 
L 315.209515 41.76249 
L 315.328217 42.125402 
L 315.446918 42.489186 
L 315.56562 42.853813 
L 315.684322 43.219251 
L 315.803024 43.585471 
L 315.921726 43.952443 
L 316.040428 44.320136 
L 316.15913 44.688519 
L 316.277832 45.057563 
L 316.396534 45.427239 
L 316.515236 45.797515 
L 316.633938 46.168362 
L 316.75264 46.539751 
L 316.871342 46.911652 
L 316.990044 47.284035 
L 317.108746 47.656871 
L 317.227448 48.030131 
L 317.346149 48.403785 
L 317.464851 48.777805 
L 317.583553 49.152161 
L 317.702255 49.526825 
L 317.820957 49.901769 
L 317.939659 50.276962 
L 318.058361 50.652378 
L 318.177063 51.027987 
L 318.295765 51.403763 
L 318.414467 51.779676 
L 318.533169 52.155698 
L 318.651871 52.531803 
L 318.770573 52.907963 
L 318.889275 53.28415 
L 319.007977 53.660336 
L 319.126679 54.036496 
L 319.24538 54.412602 
L 319.364082 54.788627 
L 319.482784 55.164545 
L 319.601486 55.540329 
L 319.720188 55.915954 
L 319.83889 56.291393 
L 319.957592 56.66662 
L 320.076294 57.041609 
L 320.194996 57.416337 
L 320.313698 57.790776 
L 320.4324 58.164901 
L 320.551102 58.538689 
L 320.669804 58.912114 
L 320.788506 59.285152 
L 320.907208 59.657779 
L 321.02591 60.02997 
L 321.144611 60.401701 
L 321.263313 60.77295 
L 321.382015 61.143691 
L 321.500717 61.513903 
L 321.619419 61.883562 
L 321.738121 62.252645 
L 321.856823 62.621131 
L 321.975525 62.988995 
L 322.094227 63.356216 
L 322.212929 63.722773 
L 322.331631 64.088643 
L 322.450333 64.453805 
L 322.569035 64.818238 
L 322.687737 65.181921 
L 322.806439 65.544833 
L 322.92514 65.906952 
L 323.043842 66.26826 
L 323.162544 66.628736 
L 323.281246 66.98836 
L 323.399948 67.347112 
L 323.51865 67.704973 
L 323.637352 68.061924 
L 323.756054 68.417946 
L 323.874756 68.77302 
L 323.993458 69.127128 
L 324.11216 69.480252 
L 324.230862 69.832373 
L 324.349564 70.183474 
L 324.468266 70.533537 
L 324.586968 70.882546 
L 324.70567 71.230483 
L 324.824371 71.577332 
L 324.943073 71.923076 
L 325.061775 72.267699 
L 325.180477 72.611184 
L 325.299179 72.953517 
L 325.417881 73.294681 
L 325.536583 73.634662 
L 325.655285 73.973444 
L 325.773987 74.311013 
L 325.892689 74.647354 
L 326.011391 74.982453 
L 326.130093 75.316297 
L 326.248795 75.64887 
L 326.367497 75.98016 
L 326.486199 76.310153 
L 326.604901 76.638837 
L 326.723602 76.966199 
L 326.842304 77.292226 
L 326.961006 77.616906 
L 327.079708 77.940227 
L 327.19841 78.262177 
L 327.317112 78.582745 
L 327.435814 78.901919 
L 327.554516 79.219689 
L 327.673218 79.536043 
L 327.79192 79.850972 
L 327.910622 80.164464 
L 328.029324 80.476511 
L 328.148026 80.787101 
L 328.266728 81.096226 
L 328.38543 81.403876 
L 328.504132 81.710042 
L 328.622833 82.014716 
L 328.741535 82.317888 
L 328.860237 82.61955 
L 328.978939 82.919695 
L 329.097641 83.218314 
L 329.216343 83.5154 
L 329.335045 83.810945 
L 329.453747 84.104942 
L 329.572449 84.397385 
L 329.691151 84.688266 
L 329.809853 84.977579 
L 329.928555 85.265318 
L 330.047257 85.551476 
L 330.165959 85.836049 
L 330.284661 86.11903 
L 330.403363 86.400414 
L 330.522064 86.680195 
L 330.640766 86.95837 
L 330.759468 87.234933 
L 330.87817 87.50988 
L 330.996872 87.783207 
L 331.115574 88.054909 
L 331.234276 88.324983 
L 331.352978 88.593425 
L 331.47168 88.860232 
L 331.590382 89.1254 
L 331.709084 89.388927 
L 331.827786 89.650809 
L 331.946488 89.911045 
L 332.06519 90.169632 
L 332.183892 90.426568 
L 332.302594 90.68185 
L 332.421295 90.935477 
L 332.539997 91.187447 
L 332.658699 91.43776 
L 332.777401 91.686413 
L 332.896103 91.933406 
L 333.014805 92.178738 
L 333.133507 92.422409 
L 333.252209 92.664418 
L 333.370911 92.904764 
L 333.489613 93.143448 
L 333.608315 93.380469 
L 333.727017 93.615829 
L 333.845719 93.849527 
L 333.964421 94.081564 
L 334.083123 94.311941 
L 334.201825 94.54066 
L 334.320526 94.76772 
L 334.439228 94.993123 
L 334.55793 95.216872 
L 334.676632 95.438967 
L 334.795334 95.65941 
L 334.914036 95.878204 
L 335.032738 96.09535 
L 335.15144 96.31085 
L 335.270142 96.524708 
L 335.388844 96.736925 
L 335.507546 96.947505 
L 335.626248 97.15645 
L 335.74495 97.363763 
L 335.863652 97.569448 
L 335.982354 97.773507 
L 336.101055 97.975944 
L 336.219757 98.176764 
L 336.338459 98.375968 
L 336.457161 98.573562 
L 336.575863 98.769549 
L 336.694565 98.963933 
L 336.813267 99.156719 
L 336.931969 99.347911 
L 337.050671 99.537513 
L 337.169373 99.72553 
L 337.288075 99.911967 
L 337.406777 100.096828 
L 337.525479 100.280118 
L 337.644181 100.461843 
L 337.762883 100.642008 
L 337.881585 100.820617 
L 338.000286 100.997677 
L 338.118988 101.173192 
L 338.23769 101.347169 
L 338.356392 101.519613 
L 338.475094 101.690529 
L 338.593796 101.859924 
L 338.712498 102.027803 
L 338.8312 102.194173 
L 338.949902 102.35904 
L 339.068604 102.52241 
L 339.187306 102.684289 
L 339.306008 102.844684 
L 339.42471 103.003602 
L 339.543412 103.161047 
L 339.662114 103.317029 
L 339.780816 103.471552 
L 339.899517 103.624625 
L 340.018219 103.776253 
L 340.136921 103.926444 
L 340.255623 104.075205 
L 340.374325 104.222542 
L 340.493027 104.368464 
L 340.611729 104.512976 
L 340.730431 104.656087 
L 340.849133 104.797804 
L 340.967835 104.938134 
L 341.086537 105.077085 
L 341.205239 105.214663 
L 341.323941 105.350877 
L 341.442643 105.485735 
L 341.561345 105.619243 
L 341.680047 105.75141 
L 341.798748 105.882243 
L 341.91745 106.01175 
L 342.036152 106.139939 
L 342.154854 106.266818 
L 342.273556 106.392395 
L 342.392258 106.516677 
L 342.51096 106.639673 
L 342.629662 106.76139 
L 342.748364 106.881837 
L 342.867066 107.001021 
L 342.985768 107.118952 
L 343.10447 107.235636 
L 343.223172 107.351083 
L 343.341874 107.465299 
L 343.460576 107.578295 
L 343.579278 107.690077 
L 343.697979 107.800653 
L 343.816681 107.910034 
L 343.935383 108.018225 
L 344.054085 108.125237 
L 344.172787 108.231076 
L 344.291489 108.335753 
L 344.410191 108.439273 
L 344.528893 108.541648 
L 344.647595 108.642883 
L 344.766297 108.742989 
L 344.884999 108.841972 
L 345.003701 108.939843 
L 345.122403 109.036608 
L 345.241105 109.132277 
L 345.359807 109.226857 
L 345.478509 109.320358 
L 345.59721 109.412787 
L 345.715912 109.504153 
L 345.834614 109.594465 
L 345.953316 109.68373 
L 346.072018 109.771958 
L 346.19072 109.859155 
L 346.309422 109.945332 
L 346.428124 110.030496 
L 346.546826 110.114655 
L 346.665528 110.197818 
L 346.78423 110.279993 
L 346.902932 110.361189 
L 347.021634 110.441413 
L 347.140336 110.520674 
L 347.259038 110.59898 
L 347.377739 110.67634 
L 347.496441 110.752762 
L 347.615143 110.828254 
L 347.733845 110.902823 
L 347.852547 110.976479 
L 347.971249 111.049229 
L 348.089951 111.121082 
L 348.208653 111.192045 
L 348.327355 111.262127 
L 348.446057 111.331336 
L 348.564759 111.399679 
L 348.683461 111.467166 
L 348.802163 111.533802 
L 348.920865 111.599598 
L 349.039567 111.66456 
L 349.158269 111.728696 
L 349.27697 111.792015 
L 349.395672 111.854524 
L 349.514374 111.91623 
L 349.633076 111.977143 
L 349.751778 112.037268 
L 349.87048 112.096615 
L 349.989182 112.15519 
L 350.107884 112.213002 
L 350.226586 112.270058 
L 350.345288 112.326365 
L 350.46399 112.381931 
L 350.582692 112.436763 
L 350.701394 112.49087 
L 350.820096 112.544258 
L 350.938798 112.596934 
L 351.0575 112.648907 
L 351.176201 112.700182 
L 351.294903 112.750769 
L 351.413605 112.800673 
L 351.532307 112.849902 
L 351.651009 112.898463 
L 351.769711 112.946363 
L 351.888413 112.99361 
L 352.007115 113.040209 
L 352.125817 113.086169 
L 352.244519 113.131496 
L 352.363221 113.176197 
L 352.481923 113.220279 
L 352.600625 113.263748 
L 352.719327 113.306612 
L 352.838029 113.348876 
L 352.956731 113.390549 
L 353.075432 113.431636 
L 353.194134 113.472143 
L 353.312836 113.512079 
L 353.431538 113.551448 
L 353.55024 113.590257 
L 353.668942 113.628513 
L 353.787644 113.666223 
L 353.906346 113.703391 
L 354.025048 113.740026 
L 354.14375 113.776132 
L 354.262452 113.811716 
L 354.381154 113.846785 
L 354.499856 113.881343 
L 354.618558 113.915398 
L 354.73726 113.948955 
L 354.855962 113.982021 
L 354.974663 114.0146 
L 355.093365 114.046699 
L 355.212067 114.078324 
L 355.330769 114.10948 
L 355.449471 114.140174 
L 355.568173 114.17041 
L 355.686875 114.200195 
L 355.805577 114.229533 
L 355.924279 114.258431 
L 356.042981 114.286894 
L 356.161683 114.314927 
L 356.280385 114.342536 
L 356.399087 114.369726 
L 356.517789 114.396502 
L 356.636491 114.42287 
L 356.755193 114.448834 
L 356.873894 114.474401 
L 356.992596 114.499574 
L 357.111298 114.524359 
L 357.23 114.548761 
L 357.348702 114.572786 
L 357.467404 114.596437 
L 357.586106 114.619719 
L 357.704808 114.642639 
L 357.82351 114.665199 
L 357.942212 114.687405 
L 358.060914 114.709263 
L 358.179616 114.730775 
L 358.298318 114.751948 
L 358.41702 114.772784 
z
" style="fill:#727ecf;opacity:0.2;stroke:#727ecf;stroke-linejoin:miter;"/>
   </g>
   <g id="patch_19">
    <path clip-path="url(#p9b91b39f98)" d="M 239.833785 114.772784 
L 239.952487 114.751948 
L 240.071189 114.730775 
L 240.18989 114.709263 
L 240.308592 114.687405 
L 240.427294 114.665199 
L 240.545996 114.642639 
L 240.664698 114.619719 
L 240.7834 114.596437 
L 240.902102 114.572786 
L 241.020804 114.548761 
L 241.139506 114.524359 
L 241.258208 114.499574 
L 241.37691 114.474401 
L 241.495612 114.448834 
L 241.614314 114.42287 
L 241.733016 114.396502 
L 241.851718 114.369726 
L 241.97042 114.342536 
L 242.089121 114.314927 
L 242.207823 114.286894 
L 242.326525 114.258431 
L 242.445227 114.229533 
L 242.563929 114.200195 
L 242.682631 114.17041 
L 242.801333 114.140174 
L 242.920035 114.10948 
L 243.038737 114.078324 
L 243.157439 114.046699 
L 243.276141 114.0146 
L 243.394843 113.982021 
L 243.513545 113.948955 
L 243.632247 113.915398 
L 243.750949 113.881343 
L 243.869651 113.846785 
L 243.988352 113.811716 
L 244.107054 113.776132 
L 244.225756 113.740026 
L 244.344458 113.703391 
L 244.46316 113.666223 
L 244.581862 113.628513 
L 244.700564 113.590257 
L 244.819266 113.551448 
L 244.937968 113.512079 
L 245.05667 113.472143 
L 245.175372 113.431636 
L 245.294074 113.390549 
L 245.412776 113.348876 
L 245.531478 113.306612 
L 245.65018 113.263748 
L 245.768882 113.220279 
L 245.887583 113.176197 
L 246.006285 113.131496 
L 246.124987 113.086169 
L 246.243689 113.040209 
L 246.362391 112.99361 
L 246.481093 112.946363 
L 246.599795 112.898463 
L 246.718497 112.849902 
L 246.837199 112.800673 
L 246.955901 112.750769 
L 247.074603 112.700182 
L 247.193305 112.648907 
L 247.312007 112.596934 
L 247.430709 112.544258 
L 247.549411 112.49087 
L 247.668113 112.436763 
L 247.786814 112.381931 
L 247.905516 112.326365 
L 248.024218 112.270058 
L 248.14292 112.213002 
L 248.261622 112.15519 
L 248.380324 112.096615 
L 248.499026 112.037268 
L 248.617728 111.977143 
L 248.73643 111.91623 
L 248.855132 111.854524 
L 248.973834 111.792015 
L 249.092536 111.728696 
L 249.211238 111.66456 
L 249.32994 111.599598 
L 249.448642 111.533802 
L 249.567344 111.467166 
L 249.686045 111.399679 
L 249.804747 111.331336 
L 249.923449 111.262127 
L 250.042151 111.192045 
L 250.160853 111.121082 
L 250.279555 111.049229 
L 250.398257 110.976479 
L 250.516959 110.902823 
L 250.635661 110.828254 
L 250.754363 110.752762 
L 250.873065 110.67634 
L 250.991767 110.59898 
L 251.110469 110.520674 
L 251.229171 110.441413 
L 251.347873 110.361189 
L 251.466574 110.279993 
L 251.585276 110.197818 
L 251.703978 110.114655 
L 251.82268 110.030496 
L 251.941382 109.945332 
L 252.060084 109.859155 
L 252.178786 109.771958 
L 252.297488 109.68373 
L 252.41619 109.594465 
L 252.534892 109.504153 
L 252.653594 109.412787 
L 252.772296 109.320358 
L 252.890998 109.226857 
L 253.0097 109.132277 
L 253.128402 109.036608 
L 253.247104 108.939843 
L 253.365805 108.841972 
L 253.484507 108.742989 
L 253.603209 108.642883 
L 253.721911 108.541648 
L 253.840613 108.439273 
L 253.959315 108.335753 
L 254.078017 108.231076 
L 254.196719 108.125237 
L 254.315421 108.018225 
L 254.434123 107.910034 
L 254.552825 107.800653 
L 254.671527 107.690077 
L 254.790229 107.578295 
L 254.908931 107.465299 
L 255.027633 107.351083 
L 255.146335 107.235636 
L 255.265036 107.118952 
L 255.383738 107.001021 
L 255.50244 106.881837 
L 255.621142 106.76139 
L 255.739844 106.639673 
L 255.858546 106.516677 
L 255.977248 106.392395 
L 256.09595 106.266818 
L 256.214652 106.139939 
L 256.333354 106.01175 
L 256.452056 105.882243 
L 256.570758 105.75141 
L 256.68946 105.619243 
L 256.808162 105.485735 
L 256.926864 105.350877 
L 257.045566 105.214663 
L 257.164267 105.077085 
L 257.282969 104.938134 
L 257.401671 104.797804 
L 257.520373 104.656087 
L 257.639075 104.512976 
L 257.757777 104.368464 
L 257.876479 104.222542 
L 257.995181 104.075205 
L 258.113883 103.926444 
L 258.232585 103.776253 
L 258.351287 103.624625 
L 258.469989 103.471552 
L 258.588691 103.317029 
L 258.707393 103.161047 
L 258.826095 103.003602 
L 258.944797 102.844684 
L 259.063498 102.684289 
L 259.1822 102.52241 
L 259.300902 102.35904 
L 259.419604 102.194173 
L 259.538306 102.027803 
L 259.657008 101.859924 
L 259.77571 101.690529 
L 259.894412 101.519613 
L 260.013114 101.347169 
L 260.131816 101.173192 
L 260.250518 100.997677 
L 260.36922 100.820617 
L 260.487922 100.642008 
L 260.606624 100.461843 
L 260.725326 100.280118 
L 260.844028 100.096828 
L 260.962729 99.911967 
L 261.081431 99.72553 
L 261.200133 99.537513 
L 261.318835 99.347911 
L 261.437537 99.156719 
L 261.556239 98.963933 
L 261.674941 98.769549 
L 261.793643 98.573562 
L 261.912345 98.375968 
L 262.031047 98.176764 
L 262.149749 97.975944 
L 262.268451 97.773507 
L 262.387153 97.569448 
L 262.505855 97.363763 
L 262.624557 97.15645 
L 262.743258 96.947505 
L 262.86196 96.736925 
L 262.980662 96.524708 
L 263.099364 96.31085 
L 263.218066 96.09535 
L 263.336768 95.878204 
L 263.45547 95.65941 
L 263.574172 95.438967 
L 263.692874 95.216872 
L 263.811576 94.993123 
L 263.930278 94.76772 
L 264.04898 94.54066 
L 264.167682 94.311941 
L 264.286384 94.081564 
L 264.405086 93.849527 
L 264.523788 93.615829 
L 264.642489 93.380469 
L 264.761191 93.143448 
L 264.879893 92.904764 
L 264.998595 92.664418 
L 265.117297 92.422409 
L 265.235999 92.178738 
L 265.354701 91.933406 
L 265.473403 91.686413 
L 265.592105 91.43776 
L 265.710807 91.187447 
L 265.829509 90.935477 
L 265.948211 90.68185 
L 266.066913 90.426568 
L 266.185615 90.169632 
L 266.304317 89.911045 
L 266.423019 89.650809 
L 266.54172 89.388927 
L 266.660422 89.1254 
L 266.779124 88.860232 
L 266.897826 88.593425 
L 267.016528 88.324983 
L 267.13523 88.054909 
L 267.253932 87.783207 
L 267.372634 87.50988 
L 267.491336 87.234933 
L 267.610038 86.95837 
L 267.72874 86.680195 
L 267.847442 86.400414 
L 267.966144 86.11903 
L 268.084846 85.836049 
L 268.203548 85.551476 
L 268.32225 85.265318 
L 268.440951 84.977579 
L 268.559653 84.688266 
L 268.678355 84.397385 
L 268.797057 84.104942 
L 268.915759 83.810945 
L 269.034461 83.5154 
L 269.153163 83.218314 
L 269.271865 82.919695 
L 269.390567 82.61955 
L 269.509269 82.317888 
L 269.627971 82.014716 
L 269.746673 81.710042 
L 269.865375 81.403876 
L 269.984077 81.096226 
L 270.102779 80.787101 
L 270.221481 80.476511 
L 270.340182 80.164464 
L 270.458884 79.850972 
L 270.577586 79.536043 
L 270.696288 79.219689 
L 270.81499 78.901919 
L 270.933692 78.582745 
L 271.052394 78.262177 
L 271.171096 77.940227 
L 271.289798 77.616906 
L 271.4085 77.292226 
L 271.527202 76.966199 
L 271.645904 76.638837 
L 271.764606 76.310153 
L 271.883308 75.98016 
L 272.00201 75.64887 
L 272.120712 75.316297 
L 272.239413 74.982453 
L 272.358115 74.647354 
L 272.476817 74.311013 
L 272.595519 73.973444 
L 272.714221 73.634662 
L 272.832923 73.294681 
L 272.951625 72.953517 
L 273.070327 72.611184 
L 273.189029 72.267699 
L 273.307731 71.923076 
L 273.426433 71.577332 
L 273.545135 71.230483 
L 273.663837 70.882546 
L 273.782539 70.533537 
L 273.901241 70.183474 
L 274.019943 69.832373 
L 274.138644 69.480252 
L 274.257346 69.127128 
L 274.376048 68.77302 
L 274.49475 68.417946 
L 274.613452 68.061924 
L 274.732154 67.704973 
L 274.850856 67.347112 
L 274.969558 66.98836 
L 275.08826 66.628736 
L 275.206962 66.26826 
L 275.325664 65.906952 
L 275.444366 65.544833 
L 275.563068 65.181921 
L 275.68177 64.818238 
L 275.800472 64.453805 
L 275.919173 64.088643 
L 276.037875 63.722773 
L 276.156577 63.356216 
L 276.275279 62.988995 
L 276.393981 62.621131 
L 276.512683 62.252645 
L 276.631385 61.883562 
L 276.750087 61.513903 
L 276.868789 61.143691 
L 276.987491 60.77295 
L 277.106193 60.401701 
L 277.224895 60.02997 
L 277.343597 59.657779 
L 277.462299 59.285152 
L 277.581001 58.912114 
L 277.699703 58.538689 
L 277.818404 58.164901 
L 277.937106 57.790776 
L 278.055808 57.416337 
L 278.17451 57.041609 
L 278.293212 56.66662 
L 278.411914 56.291393 
L 278.530616 55.915954 
L 278.649318 55.540329 
L 278.76802 55.164545 
L 278.886722 54.788627 
L 279.005424 54.412602 
L 279.124126 54.036496 
L 279.242828 53.660336 
L 279.36153 115.92 
z
" style="fill:#e93834;opacity:0.2;stroke:#e93834;stroke-linejoin:miter;"/>
   </g>
   <g id="matplotlib.axis_3">
    <g id="xtick_5">
     <g id="text_12">
      <text style="fill:#808080;font-family:Linux Libertine O;font-size:10px;font-stretch:normal;font-style:normal;font-weight:normal;text-anchor:middle;" transform="rotate(-0, 239.833785, 131.399687)" x="239.833785" y="131.399687">40%</text>
     </g>
    </g>
    <g id="xtick_6">
     <g id="text_13">
      <text style="fill:#808080;font-family:Linux Libertine O;font-size:10px;font-stretch:normal;font-style:normal;font-weight:normal;text-anchor:middle;" transform="rotate(-0, 279.36153, 131.399687)" x="279.36153" y="131.399687">50%</text>
     </g>
    </g>
    <g id="xtick_7">
     <g id="text_14">
      <text style="fill:#808080;font-family:Linux Libertine O;font-size:10px;font-stretch:normal;font-style:normal;font-weight:normal;text-anchor:middle;" transform="rotate(-0, 318.889275, 131.399687)" x="318.889275" y="131.399687">60%</text>
     </g>
    </g>
    <g id="xtick_8">
     <g id="text_15">
      <text style="fill:#808080;font-family:Linux Libertine O;font-size:10px;font-stretch:normal;font-style:normal;font-weight:normal;text-anchor:middle;" transform="rotate(-0, 358.41702, 131.399687)" x="358.41702" y="131.399687">70%</text>
     </g>
    </g>
    <g id="text_16">
     <text style="font-family:Linux Libertine O;font-size:12px;font-stretch:normal;font-style:normal;font-weight:normal;text-anchor:middle;" transform="rotate(-0, 289.243466, 146.115937)" x="289.243466" y="146.115937">Sample election projections</text>
    </g>
   </g>
   <g id="matplotlib.axis_4">
    <g id="ytick_6"/>
    <g id="ytick_7"/>
    <g id="ytick_8"/>
    <g id="ytick_9"/>
    <g id="ytick_10"/>
   </g>
   <g id="line2d_1">
    <path clip-path="url(#p9b91b39f98)" d="M 279.480232 52.907963 
L 284.347011 37.836837 
L 286.958454 30.477254 
L 288.976387 25.407339 
L 290.756916 21.505553 
L 292.300041 18.629038 
L 293.724464 16.435817 
L 295.030185 14.844234 
L 296.217205 13.762917 
L 297.285522 13.097455 
L 298.235138 12.755657 
L 299.184753 12.651407 
L 300.134369 12.785424 
L 301.083984 13.156782 
L 302.0336 13.762917 
L 303.101917 14.720194 
L 304.288936 16.115918 
L 305.594658 18.037653 
L 307.019081 20.567756 
L 308.562206 23.776658 
L 310.342735 28.013712 
L 312.47937 33.727094 
L 315.090813 41.400482 
L 319.364082 54.788627 
L 324.230862 69.832373 
L 327.079708 77.940227 
L 329.572449 84.397385 
L 331.827786 89.650809 
L 333.964421 94.081564 
L 335.982354 97.773507 
L 338.000286 100.997677 
L 339.899517 103.624625 
L 341.798748 105.882243 
L 343.697979 107.800653 
L 345.59721 109.412787 
L 347.615143 110.828254 
L 349.633076 111.977143 
L 351.769711 112.946363 
L 354.14375 113.776132 
L 356.755193 114.448834 
L 358.41702 114.772784 
L 358.41702 114.772784 
" style="fill:none;stroke:#727ecf;stroke-linecap:square;stroke-width:1.5;"/>
   </g>
   <g id="line2d_2">
    <path clip-path="url(#p9b91b39f98)" d="M 239.833785 114.772784 
L 242.801333 114.140174 
L 245.294074 113.390549 
L 247.549411 112.49087 
L 249.686045 111.399679 
L 251.703978 110.114655 
L 253.603209 108.642883 
L 255.50244 106.881837 
L 257.401671 104.797804 
L 259.300902 102.35904 
L 261.200133 99.537513 
L 263.099364 96.31085 
L 265.117297 92.422409 
L 267.253932 87.783207 
L 269.509269 82.317888 
L 272.00201 75.64887 
L 274.850856 67.347112 
L 278.76802 55.164545 
L 279.242828 53.660336 
L 279.242828 53.660336 
" style="fill:none;stroke:#e93834;stroke-linecap:square;stroke-width:1.5;"/>
   </g>
  </g>
 </g>
 <defs>
  <clipPath id="p990a0902bb">
   <rect height="108.72" width="152.181818" x="30.534375" y="7.2"/>
  </clipPath>
  <clipPath id="p9b91b39f98">
   <rect height="108.72" width="152.181818" x="213.152557" y="7.2"/>
  </clipPath>
 </defs>
</svg>
