<?xml version="1.0" encoding="utf-8" standalone="no"?>
<!DOCTYPE svg PUBLIC "-//W3C//DTD SVG 1.1//EN"
  "http://www.w3.org/Graphics/SVG/1.1/DTD/svg11.dtd">
<!-- Created with matplotlib (https://matplotlib.org/) -->
<svg height="213.29325pt" version="1.1" viewBox="0 0 598.984375 213.29325" width="598.984375pt" xmlns="http://www.w3.org/2000/svg" xmlns:xlink="http://www.w3.org/1999/xlink">
 <defs>
  <style type="text/css">
*{stroke-linecap:butt;stroke-linejoin:round;}
  </style>
 </defs>
 <g id="figure_1">
  <g id="patch_1">
   <path d="M -0 213.29325 
L 598.984375 213.29325 
L 598.984375 0 
L -0 0 
z
" style="fill:none;"/>
  </g>
  <g id="axes_1">
   <g id="patch_2">
    <path d="M 33.784375 170.28 
L 591.784375 170.28 
L 591.784375 7.2 
L 33.784375 7.2 
z
" style="fill:none;"/>
   </g>
   <g id="patch_3">
    <path clip-path="url(#pc08ffc12af)" d="M 59.148011 36188.564698 
L 70.676937 36188.564698 
L 70.676937 14.612727 
L 59.148011 14.612727 
z
" style="fill:#7570b3;stroke:#ffffff;stroke-linejoin:miter;"/>
   </g>
   <g id="patch_4">
    <path clip-path="url(#pc08ffc12af)" d="M 70.676937 36188.564698 
L 82.205863 36188.564698 
L 82.205863 41.475555 
L 70.676937 41.475555 
z
" style="fill:#7570b3;stroke:#ffffff;stroke-linejoin:miter;"/>
   </g>
   <g id="patch_5">
    <path clip-path="url(#pc08ffc12af)" d="M 82.205863 36188.564698 
L 93.734788 36188.564698 
L 93.734788 57.186347 
L 82.205863 57.186347 
z
" style="fill:#7570b3;stroke:#ffffff;stroke-linejoin:miter;"/>
   </g>
   <g id="patch_6">
    <path clip-path="url(#pc08ffc12af)" d="M 93.734788 36188.564698 
L 105.263714 36188.564698 
L 105.263714 67.922133 
L 93.734788 67.922133 
z
" style="fill:#7570b3;stroke:#ffffff;stroke-linejoin:miter;"/>
   </g>
   <g id="patch_7">
    <path clip-path="url(#pc08ffc12af)" d="M 105.263714 36188.564698 
L 116.792639 36188.564698 
L 116.792639 82.149923 
L 105.263714 82.149923 
z
" style="fill:#7570b3;stroke:#ffffff;stroke-linejoin:miter;"/>
   </g>
   <g id="patch_8">
    <path clip-path="url(#pc08ffc12af)" d="M 116.792639 36188.564698 
L 128.321565 36188.564698 
L 128.321565 98.044775 
L 116.792639 98.044775 
z
" style="fill:#7570b3;stroke:#ffffff;stroke-linejoin:miter;"/>
   </g>
   <g id="patch_9">
    <path clip-path="url(#pc08ffc12af)" d="M 128.321565 36188.564698 
L 139.850491 36188.564698 
L 139.850491 120.497765 
L 128.321565 120.497765 
z
" style="fill:#7570b3;stroke:#ffffff;stroke-linejoin:miter;"/>
   </g>
   <g id="patch_10">
    <path clip-path="url(#pc08ffc12af)" d="M 139.850491 36188.564698 
L 151.379416 36188.564698 
L 151.379416 132.422026 
L 139.850491 132.422026 
z
" style="fill:#7570b3;stroke:#ffffff;stroke-linejoin:miter;"/>
   </g>
   <g id="patch_11">
    <path clip-path="url(#pc08ffc12af)" d="M 151.379416 36188.564698 
L 162.908342 36188.564698 
L 162.908342 141.177642 
L 151.379416 141.177642 
z
" style="fill:#7570b3;stroke:#ffffff;stroke-linejoin:miter;"/>
   </g>
   <g id="patch_12">
    <path clip-path="url(#pc08ffc12af)" d="M 162.908342 36188.564698 
L 174.437268 36188.564698 
L 174.437268 162.867273 
L 162.908342 162.867273 
z
" style="fill:#7570b3;stroke:#ffffff;stroke-linejoin:miter;"/>
   </g>
   <g id="patch_13">
    <path clip-path="url(#pc08ffc12af)" d="M 174.437268 36188.564698 
L 185.966193 36188.564698 
L 185.966193 36188.564698 
L 174.437268 36188.564698 
z
" style="fill:#7570b3;stroke:#ffffff;stroke-linejoin:miter;"/>
   </g>
   <g id="patch_14">
    <path clip-path="url(#pc08ffc12af)" d="M 185.966193 36188.564698 
L 197.495119 36188.564698 
L 197.495119 152.022457 
L 185.966193 152.022457 
z
" style="fill:#7570b3;stroke:#ffffff;stroke-linejoin:miter;"/>
   </g>
   <g id="patch_15">
    <path clip-path="url(#pc08ffc12af)" d="M 197.495119 36188.564698 
L 209.024044 36188.564698 
L 209.024044 162.867273 
L 197.495119 162.867273 
z
" style="fill:#7570b3;stroke:#ffffff;stroke-linejoin:miter;"/>
   </g>
   <g id="patch_16">
    <path clip-path="url(#pc08ffc12af)" d="M 209.024044 36188.564698 
L 220.55297 36188.564698 
L 220.55297 162.867273 
L 209.024044 162.867273 
z
" style="fill:#7570b3;stroke:#ffffff;stroke-linejoin:miter;"/>
   </g>
   <g id="patch_17">
    <path clip-path="url(#pc08ffc12af)" d="M 220.55297 36188.564698 
L 232.081896 36188.564698 
L 232.081896 36188.564698 
L 220.55297 36188.564698 
z
" style="fill:#7570b3;stroke:#ffffff;stroke-linejoin:miter;"/>
   </g>
   <g id="patch_18">
    <path clip-path="url(#pc08ffc12af)" d="M 232.081896 36188.564698 
L 243.610821 36188.564698 
L 243.610821 36188.564698 
L 232.081896 36188.564698 
z
" style="fill:#7570b3;stroke:#ffffff;stroke-linejoin:miter;"/>
   </g>
   <g id="patch_19">
    <path clip-path="url(#pc08ffc12af)" d="M 243.610821 36188.564698 
L 255.139747 36188.564698 
L 255.139747 36188.564698 
L 243.610821 36188.564698 
z
" style="fill:#7570b3;stroke:#ffffff;stroke-linejoin:miter;"/>
   </g>
   <g id="patch_20">
    <path clip-path="url(#pc08ffc12af)" d="M 255.139747 36188.564698 
L 266.668673 36188.564698 
L 266.668673 36188.564698 
L 255.139747 36188.564698 
z
" style="fill:#7570b3;stroke:#ffffff;stroke-linejoin:miter;"/>
   </g>
   <g id="patch_21">
    <path clip-path="url(#pc08ffc12af)" d="M 266.668673 36188.564698 
L 278.197598 36188.564698 
L 278.197598 36188.564698 
L 266.668673 36188.564698 
z
" style="fill:#7570b3;stroke:#ffffff;stroke-linejoin:miter;"/>
   </g>
   <g id="patch_22">
    <path clip-path="url(#pc08ffc12af)" d="M 278.197598 36188.564698 
L 289.726524 36188.564698 
L 289.726524 36188.564698 
L 278.197598 36188.564698 
z
" style="fill:#7570b3;stroke:#ffffff;stroke-linejoin:miter;"/>
   </g>
   <g id="patch_23">
    <path clip-path="url(#pc08ffc12af)" d="M 289.726524 36188.564698 
L 301.255449 36188.564698 
L 301.255449 36188.564698 
L 289.726524 36188.564698 
z
" style="fill:#7570b3;stroke:#ffffff;stroke-linejoin:miter;"/>
   </g>
   <g id="patch_24">
    <path clip-path="url(#pc08ffc12af)" d="M 301.255449 36188.564698 
L 312.784375 36188.564698 
L 312.784375 36188.564698 
L 301.255449 36188.564698 
z
" style="fill:#7570b3;stroke:#ffffff;stroke-linejoin:miter;"/>
   </g>
   <g id="patch_25">
    <path clip-path="url(#pc08ffc12af)" d="M 312.784375 36188.564698 
L 324.313301 36188.564698 
L 324.313301 36188.564698 
L 312.784375 36188.564698 
z
" style="fill:#7570b3;stroke:#ffffff;stroke-linejoin:miter;"/>
   </g>
   <g id="patch_26">
    <path clip-path="url(#pc08ffc12af)" d="M 324.313301 36188.564698 
L 335.842226 36188.564698 
L 335.842226 36188.564698 
L 324.313301 36188.564698 
z
" style="fill:#7570b3;stroke:#ffffff;stroke-linejoin:miter;"/>
   </g>
   <g id="patch_27">
    <path clip-path="url(#pc08ffc12af)" d="M 335.842226 36188.564698 
L 347.371152 36188.564698 
L 347.371152 36188.564698 
L 335.842226 36188.564698 
z
" style="fill:#7570b3;stroke:#ffffff;stroke-linejoin:miter;"/>
   </g>
   <g id="patch_28">
    <path clip-path="url(#pc08ffc12af)" d="M 347.371152 36188.564698 
L 358.900077 36188.564698 
L 358.900077 36188.564698 
L 347.371152 36188.564698 
z
" style="fill:#7570b3;stroke:#ffffff;stroke-linejoin:miter;"/>
   </g>
   <g id="patch_29">
    <path clip-path="url(#pc08ffc12af)" d="M 358.900077 36188.564698 
L 370.429003 36188.564698 
L 370.429003 36188.564698 
L 358.900077 36188.564698 
z
" style="fill:#7570b3;stroke:#ffffff;stroke-linejoin:miter;"/>
   </g>
   <g id="patch_30">
    <path clip-path="url(#pc08ffc12af)" d="M 370.429003 36188.564698 
L 381.957929 36188.564698 
L 381.957929 36188.564698 
L 370.429003 36188.564698 
z
" style="fill:#7570b3;stroke:#ffffff;stroke-linejoin:miter;"/>
   </g>
   <g id="patch_31">
    <path clip-path="url(#pc08ffc12af)" d="M 381.957929 36188.564698 
L 393.486854 36188.564698 
L 393.486854 36188.564698 
L 381.957929 36188.564698 
z
" style="fill:#7570b3;stroke:#ffffff;stroke-linejoin:miter;"/>
   </g>
   <g id="patch_32">
    <path clip-path="url(#pc08ffc12af)" d="M 393.486854 36188.564698 
L 405.01578 36188.564698 
L 405.01578 36188.564698 
L 393.486854 36188.564698 
z
" style="fill:#7570b3;stroke:#ffffff;stroke-linejoin:miter;"/>
   </g>
   <g id="patch_33">
    <path clip-path="url(#pc08ffc12af)" d="M 405.01578 36188.564698 
L 416.544706 36188.564698 
L 416.544706 36188.564698 
L 405.01578 36188.564698 
z
" style="fill:#7570b3;stroke:#ffffff;stroke-linejoin:miter;"/>
   </g>
   <g id="patch_34">
    <path clip-path="url(#pc08ffc12af)" d="M 416.544706 36188.564698 
L 428.073631 36188.564698 
L 428.073631 36188.564698 
L 416.544706 36188.564698 
z
" style="fill:#7570b3;stroke:#ffffff;stroke-linejoin:miter;"/>
   </g>
   <g id="patch_35">
    <path clip-path="url(#pc08ffc12af)" d="M 428.073631 36188.564698 
L 439.602557 36188.564698 
L 439.602557 36188.564698 
L 428.073631 36188.564698 
z
" style="fill:#7570b3;stroke:#ffffff;stroke-linejoin:miter;"/>
   </g>
   <g id="patch_36">
    <path clip-path="url(#pc08ffc12af)" d="M 439.602557 36188.564698 
L 451.131482 36188.564698 
L 451.131482 36188.564698 
L 439.602557 36188.564698 
z
" style="fill:#7570b3;stroke:#ffffff;stroke-linejoin:miter;"/>
   </g>
   <g id="patch_37">
    <path clip-path="url(#pc08ffc12af)" d="M 451.131482 36188.564698 
L 462.660408 36188.564698 
L 462.660408 36188.564698 
L 451.131482 36188.564698 
z
" style="fill:#7570b3;stroke:#ffffff;stroke-linejoin:miter;"/>
   </g>
   <g id="patch_38">
    <path clip-path="url(#pc08ffc12af)" d="M 462.660408 36188.564698 
L 474.189334 36188.564698 
L 474.189334 36188.564698 
L 462.660408 36188.564698 
z
" style="fill:#7570b3;stroke:#ffffff;stroke-linejoin:miter;"/>
   </g>
   <g id="patch_39">
    <path clip-path="url(#pc08ffc12af)" d="M 474.189334 36188.564698 
L 485.718259 36188.564698 
L 485.718259 36188.564698 
L 474.189334 36188.564698 
z
" style="fill:#7570b3;stroke:#ffffff;stroke-linejoin:miter;"/>
   </g>
   <g id="patch_40">
    <path clip-path="url(#pc08ffc12af)" d="M 485.718259 36188.564698 
L 497.247185 36188.564698 
L 497.247185 36188.564698 
L 485.718259 36188.564698 
z
" style="fill:#7570b3;stroke:#ffffff;stroke-linejoin:miter;"/>
   </g>
   <g id="patch_41">
    <path clip-path="url(#pc08ffc12af)" d="M 497.247185 36188.564698 
L 508.776111 36188.564698 
L 508.776111 36188.564698 
L 497.247185 36188.564698 
z
" style="fill:#7570b3;stroke:#ffffff;stroke-linejoin:miter;"/>
   </g>
   <g id="patch_42">
    <path clip-path="url(#pc08ffc12af)" d="M 508.776111 36188.564698 
L 520.305036 36188.564698 
L 520.305036 36188.564698 
L 508.776111 36188.564698 
z
" style="fill:#7570b3;stroke:#ffffff;stroke-linejoin:miter;"/>
   </g>
   <g id="patch_43">
    <path clip-path="url(#pc08ffc12af)" d="M 520.305036 36188.564698 
L 531.833962 36188.564698 
L 531.833962 162.867273 
L 520.305036 162.867273 
z
" style="fill:#7570b3;stroke:#ffffff;stroke-linejoin:miter;"/>
   </g>
   <g id="patch_44">
    <path clip-path="url(#pc08ffc12af)" d="M 531.833962 36188.564698 
L 543.362887 36188.564698 
L 543.362887 36188.564698 
L 531.833962 36188.564698 
z
" style="fill:#7570b3;stroke:#ffffff;stroke-linejoin:miter;"/>
   </g>
   <g id="patch_45">
    <path clip-path="url(#pc08ffc12af)" d="M 543.362887 36188.564698 
L 554.891813 36188.564698 
L 554.891813 36188.564698 
L 543.362887 36188.564698 
z
" style="fill:#7570b3;stroke:#ffffff;stroke-linejoin:miter;"/>
   </g>
   <g id="patch_46">
    <path clip-path="url(#pc08ffc12af)" d="M 554.891813 36188.564698 
L 566.420739 36188.564698 
L 566.420739 36188.564698 
L 554.891813 36188.564698 
z
" style="fill:#7570b3;stroke:#ffffff;stroke-linejoin:miter;"/>
   </g>
   <g id="matplotlib.axis_1">
    <g id="xtick_1">
     <g id="text_1">
      <text style="fill:#808080;font-family:Linux Libertine O;font-size:10px;font-style:normal;font-weight:normal;text-anchor:middle;" transform="rotate(-0, 59.148011, 185.759688)" x="59.148011" y="185.759688">0</text>
     </g>
    </g>
    <g id="xtick_2">
     <g id="text_2">
      <text style="fill:#808080;font-family:Linux Libertine O;font-size:10px;font-style:normal;font-weight:normal;text-anchor:middle;" transform="rotate(-0, 82.205863, 185.759688)" x="82.205863" y="185.759688">200</text>
     </g>
    </g>
    <g id="xtick_3">
     <g id="text_3">
      <text style="fill:#808080;font-family:Linux Libertine O;font-size:10px;font-style:normal;font-weight:normal;text-anchor:middle;" transform="rotate(-0, 105.263714, 185.759688)" x="105.263714" y="185.759688">400</text>
     </g>
    </g>
    <g id="xtick_4">
     <g id="text_4">
      <text style="fill:#808080;font-family:Linux Libertine O;font-size:10px;font-style:normal;font-weight:normal;text-anchor:middle;" transform="rotate(-0, 128.321565, 185.759688)" x="128.321565" y="185.759688">600</text>
     </g>
    </g>
    <g id="xtick_5">
     <g id="text_5">
      <text style="fill:#808080;font-family:Linux Libertine O;font-size:10px;font-style:normal;font-weight:normal;text-anchor:middle;" transform="rotate(-0, 151.379416, 185.759688)" x="151.379416" y="185.759688">800</text>
     </g>
    </g>
    <g id="xtick_6">
     <g id="text_6">
      <text style="fill:#808080;font-family:Linux Libertine O;font-size:10px;font-style:normal;font-weight:normal;text-anchor:middle;" transform="rotate(-0, 174.437268, 185.759688)" x="174.437268" y="185.759688">1000</text>
     </g>
    </g>
    <g id="xtick_7">
     <g id="text_7">
      <text style="fill:#808080;font-family:Linux Libertine O;font-size:10px;font-style:normal;font-weight:normal;text-anchor:middle;" transform="rotate(-0, 197.495119, 185.759688)" x="197.495119" y="185.759688">1200</text>
     </g>
    </g>
    <g id="xtick_8">
     <g id="text_8">
      <text style="fill:#808080;font-family:Linux Libertine O;font-size:10px;font-style:normal;font-weight:normal;text-anchor:middle;" transform="rotate(-0, 220.55297, 185.759688)" x="220.55297" y="185.759688">1400</text>
     </g>
    </g>
    <g id="xtick_9">
     <g id="text_9">
      <text style="fill:#808080;font-family:Linux Libertine O;font-size:10px;font-style:normal;font-weight:normal;text-anchor:middle;" transform="rotate(-0, 520.305036, 185.759688)" x="520.305036" y="185.759688">4000</text>
     </g>
    </g>
    <g id="text_10">
     <text style="font-family:Linux Libertine O;font-size:12px;font-style:normal;font-weight:normal;text-anchor:middle;" transform="rotate(-0, 145.384375, 203.237625)" x="145.384375" y="203.237625">Length (items)</text>
    </g>
   </g>
   <g id="matplotlib.axis_2">
    <g id="ytick_1">
     <g id="text_11">
      <!-- $\mathdefault{10^{0}}$ -->
      <g style="fill:#808080;" transform="translate(22.384375 166.357116)">
       <text>
        <tspan style="font-family:Linux Libertine O;font-size:10px;font-style:regular;font-weight:regular;" x="0 4.649994" y="-0.234375">10</tspan>
        <tspan style="font-family:Linux Libertine O;font-size:7px;font-style:regular;font-weight:regular;" x="9.381472" y="-3.4937500000000004">0</tspan>
       </text>
      </g>
     </g>
    </g>
    <g id="ytick_2">
     <g id="text_12">
      <!-- $\mathdefault{10^{1}}$ -->
      <g style="fill:#808080;" transform="translate(22.384375 130.331419)">
       <text>
        <tspan style="font-family:Linux Libertine O;font-size:10px;font-style:regular;font-weight:regular;" x="0 4.649994" y="-0.25624999999999964">10</tspan>
        <tspan style="font-family:Linux Libertine O;font-size:7px;font-style:regular;font-weight:regular;" x="9.381472" y="-3.515625">1</tspan>
       </text>
      </g>
     </g>
    </g>
    <g id="ytick_3">
     <g id="text_13">
      <!-- $\mathdefault{10^{2}}$ -->
      <g style="fill:#808080;" transform="translate(22.384375 94.305722)">
       <text>
        <tspan style="font-family:Linux Libertine O;font-size:10px;font-style:regular;font-weight:regular;" x="0 4.649994" y="-0.234375">10</tspan>
        <tspan style="font-family:Linux Libertine O;font-size:7px;font-style:regular;font-weight:regular;" x="9.381472" y="-3.4937500000000004">2</tspan>
       </text>
      </g>
     </g>
    </g>
    <g id="ytick_4">
     <g id="text_14">
      <!-- $\mathdefault{10^{3}}$ -->
      <g style="fill:#808080;" transform="translate(22.384375 58.280024)">
       <text>
        <tspan style="font-family:Linux Libertine O;font-size:10px;font-style:regular;font-weight:regular;" x="0 4.649994" y="-0.234375">10</tspan>
        <tspan style="font-family:Linux Libertine O;font-size:7px;font-style:regular;font-weight:regular;" x="9.381472" y="-3.4937500000000004">3</tspan>
       </text>
      </g>
     </g>
    </g>
    <g id="ytick_5">
     <g id="text_15">
      <!-- $\mathdefault{10^{4}}$ -->
      <g style="fill:#808080;" transform="translate(22.384375 22.254327)">
       <text>
        <tspan style="font-family:Linux Libertine O;font-size:10px;font-style:regular;font-weight:regular;" x="0 4.649994" y="-0.234375">10</tspan>
        <tspan style="font-family:Linux Libertine O;font-size:7px;font-style:regular;font-weight:regular;" x="9.381472" y="-3.4937500000000004">4</tspan>
       </text>
      </g>
     </g>
    </g>
    <g id="ytick_6"/>
    <g id="ytick_7"/>
    <g id="ytick_8"/>
    <g id="ytick_9"/>
    <g id="ytick_10"/>
    <g id="ytick_11"/>
    <g id="ytick_12"/>
    <g id="ytick_13"/>
    <g id="ytick_14"/>
    <g id="ytick_15"/>
    <g id="ytick_16"/>
    <g id="ytick_17"/>
    <g id="ytick_18"/>
    <g id="ytick_19"/>
    <g id="ytick_20"/>
    <g id="ytick_21"/>
    <g id="ytick_22"/>
    <g id="ytick_23"/>
    <g id="ytick_24"/>
    <g id="ytick_25"/>
    <g id="ytick_26"/>
    <g id="ytick_27"/>
    <g id="ytick_28"/>
    <g id="ytick_29"/>
    <g id="ytick_30"/>
    <g id="ytick_31"/>
    <g id="ytick_32"/>
    <g id="ytick_33"/>
    <g id="ytick_34"/>
    <g id="ytick_35"/>
    <g id="ytick_36"/>
    <g id="ytick_37"/>
    <g id="ytick_38"/>
    <g id="ytick_39"/>
    <g id="ytick_40"/>
    <g id="ytick_41"/>
    <g id="text_16">
     <text style="font-family:Linux Libertine O;font-size:12px;font-style:normal;font-weight:normal;text-anchor:middle;" transform="rotate(-90, 15.575625, 88.74)" x="15.575625" y="88.74">No. menus</text>
    </g>
   </g>
  </g>
 </g>
 <defs>
  <clipPath id="pc08ffc12af">
   <rect height="163.08" width="558" x="33.784375" y="7.2"/>
  </clipPath>
 </defs>
</svg>
