<svg height="282.3" viewBox="0 0 268 211.8" width="357.3" xmlns="http://www.w3.org/2000/svg">
    <defs>
        <style>
            *{stroke-linecap:butt;stroke-linejoin:round}
        </style>
    </defs>
    <g id="figure_1">
        <path d="M0 211.8h268V0H0z" fill="none" id="patch_1"/>
        <g id="axes_1">
            <path d="M37.6 171.6h223.2V8.5H37.6z" fill="none" id="patch_2"/>
            <g id="matplotlib.axis_1">
                <g id="xtick_1">
                    <text transform="translate(41.3 187)" fill="gray" id="text_1">
                        <tspan x="0 4.649994" y="-.2" font-family="Linux Libertine O" font-size="10" font-style="regular" font-weight="regular">10</tspan> <tspan x="9.4" y="-3.5" font-family="Linux Libertine O" font-size="7" font-style="regular" font-weight="regular">0</tspan>
                    </text>
                </g>
                <g id="xtick_2">
                    <text transform="translate(84.6 187)" fill="gray" id="text_2">
                        <tspan x="0 4.649994" y="-.3" font-family="Linux Libertine O" font-size="10" font-style="regular" font-weight="regular">10</tspan> <tspan x="9.4" y="-3.5" font-family="Linux Libertine O" font-size="7" font-style="regular" font-weight="regular">1</tspan>
                    </text>
                </g>
                <g id="xtick_3">
                    <text transform="translate(128 187)" fill="gray" id="text_3">
                        <tspan x="0 4.649994" y="-.2" font-family="Linux Libertine O" font-size="10" font-style="regular" font-weight="regular">10</tspan> <tspan x="9.4" y="-3.5" font-family="Linux Libertine O" font-size="7" font-style="regular" font-weight="regular">2</tspan>
                    </text>
                </g>
                <g id="xtick_4">
                    <text transform="translate(171.3 187)" fill="gray" id="text_4">
                        <tspan x="0 4.649994" y="-.2" font-family="Linux Libertine O" font-size="10" font-style="regular" font-weight="regular">10</tspan> <tspan x="9.4" y="-3.5" font-family="Linux Libertine O" font-size="7" font-style="regular" font-weight="regular">3</tspan>
                    </text>
                </g>
                <g id="xtick_5">
                    <text transform="translate(214.7 187)" fill="gray" id="text_5">
                        <tspan x="0 4.649994" y="-.2" font-family="Linux Libertine O" font-size="10" font-style="regular" font-weight="regular">10</tspan> <tspan x="9.4" y="-3.5" font-family="Linux Libertine O" font-size="7" font-style="regular" font-weight="regular">4</tspan>
                    </text>
                </g>
                <text x="149.2" y="201.8" font-family="Linux Libertine O" font-size="12" font-weight="400" text-anchor="middle" id="text_6">
                    Rank
                </text>
            </g>
            <g id="matplotlib.axis_2">
                <g id="ytick_1">
                    <text transform="translate(22.4 164.6)" fill="gray" id="text_7">
                        <tspan x="0 4.649994" y="-.2" font-family="Linux Libertine O" font-size="10" font-style="regular" font-weight="regular">10</tspan> <tspan x="9.381472 13.231461" y="-3.5" font-family="Linux Libertine O" font-size="7" font-style="regular" font-weight="regular">−2</tspan>
                    </text>
                </g>
                <g id="ytick_2">
                    <text transform="translate(22.4 139.5)" fill="gray" id="text_8">
                        <tspan x="0 4.649994" y="-.3" font-family="Linux Libertine O" font-size="10" font-style="regular" font-weight="regular">10</tspan> <tspan x="9.381472 13.231461" y="-3.5" font-family="Linux Libertine O" font-size="7" font-style="regular" font-weight="regular">−1</tspan>
                    </text>
                </g>
                <g id="ytick_3">
                    <text transform="translate(26.2 114.4)" fill="gray" id="text_9">
                        <tspan x="0 4.649994" y="-.2" font-family="Linux Libertine O" font-size="10" font-style="regular" font-weight="regular">10</tspan> <tspan x="9.4" y="-3.5" font-family="Linux Libertine O" font-size="7" font-style="regular" font-weight="regular">0</tspan>
                    </text>
                </g>
                <g id="ytick_4">
                    <text transform="translate(26.2 89.4)" fill="gray" id="text_10">
                        <tspan x="0 4.649994" y="-.3" font-family="Linux Libertine O" font-size="10" font-style="regular" font-weight="regular">10</tspan> <tspan x="9.4" y="-3.5" font-family="Linux Libertine O" font-size="7" font-style="regular" font-weight="regular">1</tspan>
                    </text>
                </g>
                <g id="ytick_5">
                    <text transform="translate(26.2 64.3)" fill="gray" id="text_11">
                        <tspan x="0 4.649994" y="-.2" font-family="Linux Libertine O" font-size="10" font-style="regular" font-weight="regular">10</tspan> <tspan x="9.4" y="-3.5" font-family="Linux Libertine O" font-size="7" font-style="regular" font-weight="regular">2</tspan>
                    </text>
                </g>
                <g id="ytick_6">
                    <text transform="translate(26.2 39.2)" fill="gray" id="text_12">
                        <tspan x="0 4.649994" y="-.2" font-family="Linux Libertine O" font-size="10" font-style="regular" font-weight="regular">10</tspan> <tspan x="9.4" y="-3.5" font-family="Linux Libertine O" font-size="7" font-style="regular" font-weight="regular">3</tspan>
                    </text>
                </g>
                <g id="ytick_7">
                    <text transform="translate(26.2 14.2)" fill="gray" id="text_13">
                        <tspan x="0 4.649994" y="-.2" font-family="Linux Libertine O" font-size="10" font-style="regular" font-weight="regular">10</tspan> <tspan x="9.4" y="-3.5" font-family="Linux Libertine O" font-size="7" font-style="regular" font-weight="regular">4</tspan>
                    </text>
                </g>
                <text transform="rotate(-90 15.6 90)" x="15.6" y="90" font-family="Linux Libertine O" font-size="12" font-weight="400" text-anchor="middle" id="text_14">
                    Frequency per 100,000
                </text>
            </g>
            <path clip-path="url(#p43ea1dd185)" d="M47.7 15.9l13 3.7 7.7 3 5.4.8 4.2 2 6.4 2 2.5 2.7 2.2 4 2 1.4 1.8 1.5h1.6l1.5 2 1.4.5 1.3.8 1.2.2 1.2.4 1 1.8 1 .6 1 .2 1 .8 2.5.3.7 2 1.5 1.5.7.3.6.9.7.4h.6l.6.1h.6l1 .3 1.1.6h.5l1.9.9h.9l.4.3.8.5.4.2.8.8.7.2.4.5 1 .1 2.2.8.3.4h.3l.6.5.3 1h.2l.3.2.3.4 1.5.3.5.2.5.7.4.1.2.5.7.2.4.4.5.2 1 .3h.2l.2.3h.3l.2.3.6.1.1.1.2.4h.4l.2.4.3.2.3.3.4.2.1.3.5.2.3.3.5.1.3.3.3.1h.1l.5.5.2.2h.2l.3.2.8.3h.5l1.8.9.2.3.3.1.2.2.4.1 1.5.7.4.1 1 .3.3.3.3.3h0l.8.2.7.4.3.1.6.3 1 .2 1.1.7.2.2.5.2h.3l.4.3.9.5.5.2.2.1.6.4.2.1.4.2.3.2.5.2.4.2h.2l.6.3 1.2.6.2.2 2 .9h.3l.2.2.6.4h.2l1 .5 1.8.8h0l.3.1 1 .6.2.1.4.3.3.2.6.2.4.4h0l.2.1.2.2.3.2.3.2 1.3.5 1 .6h0l.1.2.4.2h0l1 .5.1.1.7.3.4.3.3.1.2.1.3.1.2.2.8.3.3.2.3.2h0l.3.2.2.1.2.1.3.2.2.3h.3l.1.2.7.4h0l.2.1.6.4.2.2.5.3.1.1.4.3.7.5.2.2.2.2h.2l.6.6h0l.5.3h.2l.6.3 1.3 1 .2.1h0l.5.4.1.1h0l.8.4h0l.3.3h.2l.3.3h0l.2.1.1.1h0l.2.1.4.4h.2l.3.4h0l.2.1h0l.3.2h0l.2.1.1.2h0l1.9 1.4h0l.1.2.2.2h.2v.2h.2l.4.4h0l.2.1h0l.4.4h0l.4.4.2.2h.2l.2.2.1.1h0l.3.2h0v.1l.2.2h0l.1.1.2.1h0l.1.1h0l.3.4h0l.2.1.1.2h.1l.2.2.1.1.2.2.2.1h0l2.9 2.3h0v.1h0l1 .8h0l.3.2h0l.2.1v.2h.2l.2.3h.1l.1.1h0l1 1h0l.1.1h0l.2.1h0l.1.2h.2v.2h.2l.2.4h.2l.1.2h.2v.2h0l.2.1.1.2h.2l.2.2h0l.1.1h0l.2.2h0l.1.1h0l.2.2h0l.2.2h.2l.1.2h0l.2.1h0v.2h.2l.2.2h0l.2.2h0l.2.2h.1l.2.3h0l.2.2h0l.2.3h.2l.2.3h.1l.2.3h0l.3.2h0v.1h0l.3.2h0l.1.1h0l.2.1h0l.1.1.1.2h0l.4.3h0l.3.2h.1l.2.3h0l.6.5h0l.2.1h0v.2h.2v.3h.3v.2h0l.2.1h0l.2.3h.2l.1.3h.1l.2.3h.2v.3h.2v.2h.2l.2.3h0l.2.1h0l.1.2h.1v.1h.2v.3h.2l.1.2h.1l.2.2h0l.2.3h.1v.1h.2v.1h0l.2.3h.2v.1h.1v.1h0l.3.3h.1v.1h.2v.2h.1l.1.1h0v.2h.2l.1.2h.2v.2h0l.1.1h.2v.2h0l.2.3h.2v.2h.2v.1h.1v.2h0l.7.6h.1l.1.2h0l.1.2h.1v.2h.2l.1.2h.1v.1h.2l.1.2h.1l.1.2h0l.2.2h0l.1.2h.1l.2.2h0v.2h.3v.2h.2v.3h.1l.1.2h0l.2.2h.2v.2h.1l.1.3h.2v.2h.1l.1.3h.2v.2h.3v.3h.2v.2h.3v.3h.2v.3h.3v.2h.2v.3h.2l.2.3h.2l.1.3h.2v.4h.3v.3h.3v.3h.2l.2.4h.2v.3h.4v.4h.3l.1.4h.2l.2.4h.3v.4h.2l.2.4h.4v.5h.4v.4h.3v.5h.5v.5h.4l.1.5h.4v.6h.5v.6h.5v.6h.4l.2.7h.2l.3.7h.3l.3.7h0l1.2 1.7h.1l.6 1h.2l.6 1h.5l.4 1.1h0l.8 1.3h.6l.3 1.5h.2l.9 1.6h.4l.8 2h.8l.6 2.5h1.6v3h2v4.5h2.6l.5 7.5h0" fill="none" stroke="#76a254" stroke-linecap="square" stroke-width="1.5" id="line2d_1"/>
        </g>
    </g>
    <defs>
        <clipPath id="p43ea1dd185">
            <path d="M37.6 8.5h223.2v163.1H37.6z"/>
        </clipPath>
    </defs>
</svg>
