<?xml version="1.0" encoding="utf-8" standalone="no"?>
<!DOCTYPE svg PUBLIC "-//W3C//DTD SVG 1.1//EN"
  "http://www.w3.org/Graphics/SVG/1.1/DTD/svg11.dtd">
<!-- Created with matplotlib (https://matplotlib.org/) -->
<svg height="140.940313pt" version="1.1" viewBox="0 0 370.220312 140.940313" width="370.220312pt" xmlns="http://www.w3.org/2000/svg" xmlns:xlink="http://www.w3.org/1999/xlink">
 <defs>
  <style type="text/css">
*{stroke-linecap:butt;stroke-linejoin:round;}
  </style>
 </defs>
 <g id="figure_1">
  <g id="patch_1">
   <path d="M 0 140.940313 
L 370.220312 140.940313 
L 370.220312 0 
L 0 0 
z
" style="fill:none;"/>
  </g>
  <g id="axes_1">
   <g id="patch_2">
    <path d="M 28.220313 115.92 
L 363.020313 115.92 
L 363.020313 7.2 
L 28.220313 7.2 
z
" style="fill:none;"/>
   </g>
   <g id="matplotlib.axis_1">
    <g id="xtick_1">
     <g id="text_1">
      <text style="fill:#808080;font-family:Linux Libertine O;font-size:10px;font-style:normal;font-weight:normal;text-anchor:middle;" transform="rotate(-0, 41.582618, 131.399687)" x="41.582618" y="131.399687">1850</text>
     </g>
    </g>
    <g id="xtick_2">
     <g id="text_2">
      <text style="fill:#808080;font-family:Linux Libertine O;font-size:10px;font-style:normal;font-weight:normal;text-anchor:middle;" transform="rotate(-0, 87.979514, 131.399687)" x="87.979514" y="131.399687">1875</text>
     </g>
    </g>
    <g id="xtick_3">
     <g id="text_3">
      <text style="fill:#808080;font-family:Linux Libertine O;font-size:10px;font-style:normal;font-weight:normal;text-anchor:middle;" transform="rotate(-0, 134.37641, 131.399687)" x="134.37641" y="131.399687">1900</text>
     </g>
    </g>
    <g id="xtick_4">
     <g id="text_4">
      <text style="fill:#808080;font-family:Linux Libertine O;font-size:10px;font-style:normal;font-weight:normal;text-anchor:middle;" transform="rotate(-0, 180.773306, 131.399687)" x="180.773306" y="131.399687">1925</text>
     </g>
    </g>
    <g id="xtick_5">
     <g id="text_5">
      <text style="fill:#808080;font-family:Linux Libertine O;font-size:10px;font-style:normal;font-weight:normal;text-anchor:middle;" transform="rotate(-0, 227.170202, 131.399687)" x="227.170202" y="131.399687">1950</text>
     </g>
    </g>
    <g id="xtick_6">
     <g id="text_6">
      <text style="fill:#808080;font-family:Linux Libertine O;font-size:10px;font-style:normal;font-weight:normal;text-anchor:middle;" transform="rotate(-0, 273.567097, 131.399687)" x="273.567097" y="131.399687">1975</text>
     </g>
    </g>
    <g id="xtick_7">
     <g id="text_7">
      <text style="fill:#808080;font-family:Linux Libertine O;font-size:10px;font-style:normal;font-weight:normal;text-anchor:middle;" transform="rotate(-0, 319.963993, 131.399687)" x="319.963993" y="131.399687">2000</text>
     </g>
    </g>
   </g>
   <g id="matplotlib.axis_2">
    <g id="ytick_1">
     <g id="text_8">
      <text style="fill:#808080;font-family:Linux Libertine O;font-size:10px;font-style:normal;font-weight:normal;text-anchor:end;" transform="rotate(-0, 29.720313, 114.468026)" x="29.720313" y="114.468026">0%</text>
     </g>
    </g>
    <g id="ytick_2">
     <g id="text_9">
      <text style="fill:#808080;font-family:Linux Libertine O;font-size:10px;font-style:normal;font-weight:normal;text-anchor:end;" transform="rotate(-0, 29.720313, 89.758935)" x="29.720313" y="89.758935">0.25%</text>
     </g>
    </g>
    <g id="ytick_3">
     <g id="text_10">
      <text style="fill:#808080;font-family:Linux Libertine O;font-size:10px;font-style:normal;font-weight:normal;text-anchor:end;" transform="rotate(-0, 29.720313, 65.049844)" x="29.720313" y="65.049844">0.5%</text>
     </g>
    </g>
    <g id="ytick_4">
     <g id="text_11">
      <text style="fill:#808080;font-family:Linux Libertine O;font-size:10px;font-style:normal;font-weight:normal;text-anchor:end;" transform="rotate(-0, 29.720313, 40.340753)" x="29.720313" y="40.340753">0.75%</text>
     </g>
    </g>
    <g id="ytick_5">
     <g id="text_12">
      <text style="fill:#808080;font-family:Linux Libertine O;font-size:10px;font-style:normal;font-weight:normal;text-anchor:end;" transform="rotate(-0, 29.720313, 15.631662)" x="29.720313" y="15.631662">1%</text>
     </g>
    </g>
   </g>
   <g id="line2d_1">
    <path clip-path="url(#pb1f3156f67)" d="M 43.438494 110.978182 
L 132.520534 110.978182 
L 134.37641 110.642789 
L 141.799913 110.978182 
L 143.655789 110.030429 
L 145.511665 110.978182 
L 156.64692 110.978182 
L 158.502796 108.856361 
L 160.358672 110.433639 
L 162.214548 107.370827 
L 164.070423 110.978182 
L 165.926299 110.978182 
L 167.782175 110.809637 
L 169.638051 109.866287 
L 171.493927 110.978182 
L 173.349803 106.709407 
L 175.205678 110.978182 
L 182.629182 110.978182 
L 184.485058 103.328308 
L 186.340933 110.978182 
L 188.196809 95.784275 
L 190.052685 110.978182 
L 197.476188 110.978182 
L 199.332064 108.406327 
L 201.18794 110.978182 
L 203.043816 110.978182 
L 204.899692 107.88858 
L 206.755567 108.67502 
L 208.611443 108.642913 
L 210.467319 110.116262 
L 212.323195 110.978182 
L 214.179071 108.175903 
L 216.034947 106.665322 
L 217.890822 100.103101 
L 219.746698 109.49926 
L 223.45845 103.643931 
L 225.314326 110.978182 
L 238.305457 110.978182 
L 240.161332 108.226357 
L 242.017208 110.978182 
L 243.873084 108.438707 
L 245.72896 110.978182 
L 256.864215 110.978182 
L 258.720091 108.463901 
L 260.575967 110.978182 
L 262.431842 105.829382 
L 264.287718 110.978182 
L 280.990601 110.978182 
L 282.846477 105.825087 
L 284.702352 110.978182 
L 293.981732 110.978182 
L 295.837607 109.65312 
L 297.693483 110.978182 
L 316.252242 110.978182 
L 318.108117 67.050909 
L 319.963993 110.978182 
L 347.802131 110.978182 
L 347.802131 110.978182 
" style="fill:none;stroke:#e7298a;stroke-linecap:square;stroke-width:1.5;"/>
   </g>
   <g id="line2d_2">
    <path clip-path="url(#pb1f3156f67)" d="M 43.438494 110.978182 
L 204.899692 110.978182 
L 206.755567 110.210461 
L 208.611443 110.978182 
L 242.017208 110.978182 
L 243.873084 110.343313 
L 245.72896 110.978182 
L 247.584836 110.068924 
L 249.440712 110.978182 
L 258.720091 110.978182 
L 260.575967 107.767124 
L 262.431842 110.978182 
L 279.134725 110.978182 
L 280.990601 99.141492 
L 282.846477 110.978182 
L 288.414104 110.978182 
L 290.26998 102.587998 
L 292.125856 107.884712 
L 293.981732 110.978182 
L 295.837607 109.65312 
L 297.693483 101.382418 
L 299.549359 97.086915 
L 301.405235 110.978182 
L 347.802131 110.978182 
L 347.802131 110.978182 
" style="fill:none;stroke:#66a61e;stroke-linecap:square;stroke-width:1.5;"/>
   </g>
   <g id="line2d_3">
    <path clip-path="url(#pb1f3156f67)" d="M 43.438494 110.978182 
L 164.070423 110.978182 
L 165.926299 110.865926 
L 167.782175 110.978182 
L 169.638051 107.642496 
L 171.493927 110.978182 
L 203.043816 110.978182 
L 204.899692 106.343779 
L 206.755567 110.978182 
L 208.611443 104.750798 
L 210.467319 108.392422 
L 212.323195 110.978182 
L 214.179071 102.571346 
L 216.034947 100.914843 
L 217.890822 91.040533 
L 219.746698 105.062493 
L 221.602574 104.250043 
L 223.45845 110.978182 
L 225.314326 109.759334 
L 227.170202 110.978182 
L 238.305457 110.978182 
L 240.161332 110.060907 
L 243.873084 110.343313 
L 245.72896 110.978182 
L 247.584836 110.978182 
L 249.440712 109.981647 
L 251.296587 110.978182 
L 255.008339 110.978182 
L 256.864215 107.648116 
L 258.720091 110.978182 
L 260.575967 110.978182 
L 262.431842 109.948422 
L 264.287718 108.323431 
L 266.143594 110.978182 
L 271.711222 110.978182 
L 273.567097 104.918319 
L 275.422973 110.978182 
L 280.990601 110.978182 
L 282.846477 100.671992 
L 284.702352 110.978182 
L 286.558228 110.978182 
L 288.414104 96.226486 
L 290.26998 77.417447 
L 292.125856 104.791242 
L 293.981732 102.065976 
L 295.837607 92.427316 
L 297.693483 82.190891 
L 299.549359 83.195648 
L 301.405235 89.303541 
L 303.261111 110.978182 
L 305.116987 12.141818 
L 306.972862 110.978182 
L 312.54049 110.978182 
L 314.396366 72.520453 
L 316.252242 97.639941 
L 318.108117 110.978182 
L 347.802131 110.978182 
L 347.802131 110.978182 
" style="fill:none;stroke:#e6ab02;stroke-linecap:square;stroke-width:1.5;"/>
   </g>
   <g id="line2d_4">
    <path clip-path="url(#pb1f3156f67)" d="M 43.438494 110.978182 
L 245.72896 110.978182 
L 247.584836 110.068924 
L 249.440712 110.978182 
L 251.296587 109.88655 
L 253.152463 110.978182 
L 275.422973 110.978182 
L 277.278849 105.914844 
L 279.134725 110.978182 
L 280.990601 110.978182 
L 282.846477 105.825087 
L 284.702352 106.212687 
L 286.558228 110.978182 
L 288.414104 96.226486 
L 290.26998 102.587998 
L 292.125856 107.884712 
L 293.981732 110.978182 
L 295.837607 104.352873 
L 297.693483 101.382418 
L 299.549359 104.032548 
L 301.405235 110.978182 
L 308.828738 110.978182 
L 310.684614 67.818198 
L 312.54049 110.978182 
L 347.802131 110.978182 
L 347.802131 110.978182 
" style="fill:none;stroke:#a6761d;stroke-linecap:square;stroke-width:1.5;"/>
   </g>
  </g>
 </g>
 <defs>
  <clipPath id="pb1f3156f67">
   <rect height="108.72" width="334.8" x="28.220313" y="7.2"/>
  </clipPath>
 </defs>
</svg>
