<?xml version="1.0" encoding="utf-8" standalone="no"?>
<!DOCTYPE svg PUBLIC "-//W3C//DTD SVG 1.1//EN"
  "http://www.w3.org/Graphics/SVG/1.1/DTD/svg11.dtd">
<!-- Created with matplotlib (https://matplotlib.org/) -->
<svg height="216pt" version="1.1" viewBox="0 0 504 216" width="504pt" xmlns="http://www.w3.org/2000/svg" xmlns:xlink="http://www.w3.org/1999/xlink">
 <defs>
  <style type="text/css">
*{stroke-linecap:butt;stroke-linejoin:round;}
  </style>
 </defs>
 <g id="figure_1">
  <g id="patch_1">
   <path d="M 0 216 
L 504 216 
L 504 0 
L 0 0 
z
" style="fill:none;"/>
  </g>
  <g id="axes_1">
   <g id="patch_2">
    <path d="M 29.05 190.7 
L 493.2 190.7 
L 493.2 10.8 
L 29.05 10.8 
z
" style="fill:none;"/>
   </g>
   <g id="matplotlib.axis_1">
    <g id="xtick_1">
     <g id="line2d_1"/>
     <g id="text_1">
      <text style="fill:#808080;font-family:Linux Libertine O;font-size:10px;font-style:normal;font-weight:normal;text-anchor:middle;" transform="rotate(-0, 66.683784, 201.179688)" x="66.683784" y="201.179688">Feb</text>
     </g>
    </g>
    <g id="xtick_2">
     <g id="line2d_2"/>
     <g id="text_2">
      <text style="fill:#808080;font-family:Linux Libertine O;font-size:10px;font-style:normal;font-weight:normal;text-anchor:middle;" transform="rotate(-0, 183.766667, 201.179688)" x="183.766667" y="201.179688">Mar</text>
     </g>
    </g>
    <g id="xtick_3">
     <g id="line2d_3"/>
     <g id="text_3">
      <text style="fill:#808080;font-family:Linux Libertine O;font-size:10px;font-style:normal;font-weight:normal;text-anchor:middle;" transform="rotate(-0, 313.394144, 201.179688)" x="313.394144" y="201.179688">Apr</text>
     </g>
    </g>
    <g id="xtick_4">
     <g id="line2d_4"/>
     <g id="text_4">
      <text style="fill:#808080;font-family:Linux Libertine O;font-size:10px;font-style:normal;font-weight:normal;text-anchor:middle;" transform="rotate(-0, 438.84009, 201.179688)" x="438.84009" y="201.179688">May</text>
     </g>
    </g>
   </g>
   <g id="matplotlib.axis_2">
    <g id="ytick_1">
     <g id="line2d_5"/>
     <g id="text_5">
      <text style="fill:#808080;font-family:Linux Libertine O;font-size:10px;font-style:normal;font-weight:normal;text-anchor:end;" transform="rotate(-0, 25.55, 176.199844)" x="25.55" y="176.199844">−40</text>
     </g>
    </g>
    <g id="ytick_2">
     <g id="line2d_6"/>
     <g id="text_6">
      <text style="fill:#808080;font-family:Linux Libertine O;font-size:10px;font-style:normal;font-weight:normal;text-anchor:end;" transform="rotate(-0, 25.55, 140.219844)" x="25.55" y="140.219844">−20</text>
     </g>
    </g>
    <g id="ytick_3">
     <g id="line2d_7"/>
     <g id="text_7">
      <text style="fill:#808080;font-family:Linux Libertine O;font-size:10px;font-style:normal;font-weight:normal;text-anchor:end;" transform="rotate(-0, 25.55, 104.239844)" x="25.55" y="104.239844">0</text>
     </g>
    </g>
    <g id="ytick_4">
     <g id="line2d_8"/>
     <g id="text_8">
      <text style="fill:#808080;font-family:Linux Libertine O;font-size:10px;font-style:normal;font-weight:normal;text-anchor:end;" transform="rotate(-0, 25.55, 68.259844)" x="25.55" y="68.259844">20</text>
     </g>
    </g>
    <g id="ytick_5">
     <g id="line2d_9"/>
     <g id="text_9">
      <text style="fill:#808080;font-family:Linux Libertine O;font-size:10px;font-style:normal;font-weight:normal;text-anchor:end;" transform="rotate(-0, 25.55, 32.279844)" x="25.55" y="32.279844">40</text>
     </g>
    </g>
   </g>
   <g id="LineCollection_1">
    <path clip-path="url(#p5ef7176a86)" d="M 296.668018 55.775 
L 296.668018 100.75 
" style="fill:none;stroke:#909090;stroke-dasharray:1,1.65;stroke-dashoffset:0;"/>
   </g>
   <g id="LineCollection_2">
    <path clip-path="url(#p5ef7176a86)" d="M 296.668018 55.775 
L 296.668018 100.75 
" style="fill:none;stroke:#909090;stroke-dasharray:1,1.65;stroke-dashoffset:0;"/>
   </g>
   <g id="line2d_10">
    <path clip-path="url(#p5ef7176a86)" d="M 29.05 100.75 
L 493.2 100.75 
" style="fill:none;stroke:#808080;stroke-linecap:square;stroke-width:1.5;"/>
   </g>
   <g id="line2d_11">
    <path clip-path="url(#p5ef7176a86)" d="M 179.585135 95.968037 
L 183.766667 97.588776 
L 187.948198 91.579515 
L 192.12973 91.837164 
L 196.311261 87.162773 
L 200.492793 81.673778 
L 204.674324 79.722216 
L 208.855856 88.230047 
L 213.037387 92.37836 
L 217.218919 97.30865 
L 221.40045 99.676064 
L 225.581982 96.609089 
L 229.763514 90.884851 
L 233.945045 87.503144 
L 238.126577 86.009636 
L 242.308108 84.185624 
L 246.48964 87.538109 
L 250.671171 87.817441 
L 254.852703 89.648405 
L 259.034234 92.721195 
L 263.215766 95.914063 
L 267.397297 98.07067 
L 271.578829 100.646666 
L 275.76036 101.580065 
L 279.941892 98.19613 
L 284.123423 95.762463 
L 288.304955 95.599223 
L 292.486486 91.456512 
L 296.668018 92.189869 
L 300.84955 94.545951 
L 305.031081 97.70431 
L 309.212613 95.307874 
L 313.394144 95.909621 
L 317.575676 93.659371 
L 321.757207 92.177404 
L 325.938739 87.434815 
L 330.12027 84.625956 
L 334.301802 86.216899 
L 338.483333 84.255325 
L 342.664865 85.795549 
L 346.846396 90.472396 
L 351.027928 97.257085 
L 355.209459 95.900909 
L 359.390991 94.058844 
L 363.572523 95.059439 
L 367.754054 93.276159 
L 371.935586 84.237613 
L 376.117117 81.117341 
L 380.298649 82.628179 
L 384.48018 78.33855 
L 388.661712 80.253976 
L 392.843243 82.434281 
L 397.024775 88.435109 
L 401.206306 90.05886 
L 405.387838 90.002475 
L 409.569369 87.696246 
L 413.750901 90.728845 
L 417.932432 87.936817 
L 422.113964 87.690217 
L 426.295495 91.094918 
L 430.477027 90.03909 
L 434.658559 90.864612 
L 438.84009 91.769025 
L 443.021622 92.053081 
L 447.203153 88.75705 
L 451.384685 89.89677 
L 455.566216 83.977473 
L 459.747748 84.247071 
L 463.929279 81.86714 
L 468.110811 81.053225 
L 472.292342 81.832118 
L 476.473874 87.257895 
L 480.655405 83.915724 
L 484.836937 83.510842 
L 489.018468 86.025249 
L 493.2 91.833662 
" style="fill:none;stroke:#0658cf;stroke-linecap:square;stroke-width:2;"/>
   </g>
   <g id="line2d_12">
    <path clip-path="url(#p5ef7176a86)" d="M 179.585135 89.54081 
L 183.766667 88.276425 
L 187.948198 90.072977 
L 192.12973 88.526736 
L 196.311261 90.294074 
L 200.492793 96.56514 
L 204.674324 101.608828 
L 208.855856 104.184847 
L 213.037387 104.781877 
L 217.218919 100.858967 
L 221.40045 94.242061 
L 225.581982 94.02746 
L 229.763514 93.412126 
L 233.945045 95.050482 
L 238.126577 97.956938 
L 242.308108 101.7919 
L 246.48964 98.224259 
L 250.671171 97.236364 
L 254.852703 97.902439 
L 259.034234 94.441146 
L 263.215766 93.254883 
L 267.397297 95.515519 
L 271.578829 97.585012 
L 275.76036 96.339298 
L 279.941892 98.019848 
L 284.123423 97.466271 
L 288.304955 93.48461 
L 292.486486 91.692268 
L 296.668018 92.075154 
L 300.84955 92.635776 
L 305.031081 87.921596 
L 309.212613 87.080333 
L 313.394144 87.643146 
L 317.575676 86.448718 
L 321.757207 83.537071 
L 325.938739 85.791119 
L 330.12027 89.603692 
L 334.301802 87.897249 
L 338.483333 85.469025 
L 342.664865 90.247845 
L 346.846396 91.692596 
L 351.027928 91.373946 
L 355.209459 93.066517 
L 359.390991 92.715477 
L 363.572523 93.29147 
L 367.754054 93.400607 
L 371.935586 96.385471 
L 376.117117 97.147779 
L 380.298649 100.225268 
L 384.48018 95.112655 
L 388.661712 93.519951 
L 392.843243 91.524914 
L 397.024775 89.719005 
L 401.206306 86.827289 
L 405.387838 88.439191 
L 409.569369 92.187221 
L 413.750901 90.702228 
L 417.932432 91.747331 
L 422.113964 95.292603 
L 426.295495 92.073249 
L 430.477027 91.244127 
L 434.658559 89.993829 
L 438.84009 90.980408 
L 443.021622 92.55816 
L 447.203153 97.293734 
L 451.384685 95.030356 
L 455.566216 102.200569 
L 459.747748 100.520887 
L 463.929279 96.557089 
L 468.110811 97.450512 
L 472.292342 101.261862 
L 476.473874 95.510635 
L 480.655405 96.025635 
L 484.836937 97.51025 
L 489.018468 99.323923 
L 493.2 99.654865 
" style="fill:none;stroke:#ff5500;stroke-linecap:square;stroke-width:2;"/>
   </g>
   <g id="text_10">
    <text style="fill:#ff5500;font-family:Linux Libertine O;font-size:8px;font-style:normal;font-weight:normal;" transform="translate(296.668018 47.17075)">New York State legislature</text>
    <text style="fill:#ff5500;font-family:Linux Libertine O;font-size:8px;font-style:normal;font-weight:normal;" transform="translate(296.668018 55.775)">announces plastic bag ban</text>
   </g>
   <g id="text_11">
    <text style="fill:#ff5500;font-family:Linux Libertine O;font-size:8px;font-style:normal;font-weight:normal;" transform="translate(296.668018 47.17075)">New York State legislature</text>
    <text style="fill:#ff5500;font-family:Linux Libertine O;font-size:8px;font-style:normal;font-weight:normal;" transform="translate(296.668018 55.775)">announces plastic bag ban</text>
   </g>
  </g>
 </g>
 <defs>
  <clipPath id="p5ef7176a86">
   <rect height="179.9" width="464.15" x="29.05" y="10.8"/>
  </clipPath>
 </defs>
</svg>
