<?xml version="1.0" encoding="utf-8" standalone="no"?>
<!DOCTYPE svg PUBLIC "-//W3C//DTD SVG 1.1//EN"
  "http://www.w3.org/Graphics/SVG/1.1/DTD/svg11.dtd">
<!-- Created with matplotlib (https://matplotlib.org/) -->
<svg height="55.17pt" version="1.1" viewBox="0 0 500.353125 55.17" width="500.353125pt" xmlns="http://www.w3.org/2000/svg" xmlns:xlink="http://www.w3.org/1999/xlink">
 <defs>
  <style type="text/css">
*{stroke-linecap:butt;stroke-linejoin:round;}
  </style>
 </defs>
 <g id="figure_1">
  <g id="patch_1">
   <path d="M 0 55.17 
L 500.353125 55.17 
L 500.353125 0 
L 0 0 
z
" style="fill:none;"/>
  </g>
  <g id="axes_1">
   <g id="patch_2">
    <path d="M 46.753125 47.97 
L 493.153125 47.97 
L 493.153125 7.2 
L 46.753125 7.2 
z
" style="fill:none;"/>
   </g>
   <g id="patch_3">
    <path clip-path="url(#pc7597e3fe2)" d="M 46.753125 21.407727 
L 327.368715 21.407727 
L 327.368715 9.053182 
L 46.753125 9.053182 
z
" style="fill:#c55faf;stroke:#ffffff;stroke-linejoin:miter;"/>
   </g>
   <g id="patch_4">
    <path clip-path="url(#pc7597e3fe2)" d="M 46.753125 33.762273 
L 225.130853 33.762273 
L 225.130853 21.407727 
L 46.753125 21.407727 
z
" style="fill:#e93834;stroke:#ffffff;stroke-linejoin:miter;"/>
   </g>
   <g id="patch_5">
    <path clip-path="url(#pc7597e3fe2)" d="M 46.753125 46.116818 
L 217.674283 46.116818 
L 217.674283 33.762273 
L 46.753125 33.762273 
z
" style="fill:#727ecf;stroke:#ffffff;stroke-linejoin:miter;"/>
   </g>
   <g id="patch_6">
    <path clip-path="url(#pc7597e3fe2)" d="M 327.368715 21.407727 
L 356.863593 21.407727 
L 356.863593 9.053182 
L 327.368715 9.053182 
z
" style="fill:#d67c00;stroke:#ffffff;stroke-linejoin:miter;"/>
   </g>
   <g id="patch_7">
    <path clip-path="url(#pc7597e3fe2)" d="M 225.130853 33.762273 
L 252.223058 33.762273 
L 252.223058 21.407727 
L 225.130853 21.407727 
z
" style="fill:#d67c00;stroke:#ffffff;stroke-linejoin:miter;"/>
   </g>
   <g id="patch_8">
    <path clip-path="url(#pc7597e3fe2)" d="M 217.674283 46.116818 
L 254.957134 46.116818 
L 254.957134 33.762273 
L 217.674283 33.762273 
z
" style="fill:#d67c00;stroke:#ffffff;stroke-linejoin:miter;"/>
   </g>
   <g id="matplotlib.axis_1"/>
   <g id="matplotlib.axis_2">
    <g id="ytick_1">
     <g id="text_1">
      <text style="fill:#808080;font-family:Linux Libertine O;font-size:10px;font-style:normal;font-weight:normal;text-anchor:end;" transform="rotate(-0, 43.253125, 18.720298)" x="43.253125" y="18.720298">Kiss</text>
     </g>
    </g>
    <g id="ytick_2">
     <g id="text_2">
      <text style="fill:#808080;font-family:Linux Libertine O;font-size:10px;font-style:normal;font-weight:normal;text-anchor:end;" transform="rotate(-0, 43.253125, 31.074844)" x="43.253125" y="31.074844">Wright</text>
     </g>
    </g>
    <g id="ytick_3">
     <g id="text_3">
      <text style="fill:#808080;font-family:Linux Libertine O;font-size:10px;font-style:normal;font-weight:normal;text-anchor:end;" transform="rotate(-0, 43.253125, 43.429389)" x="43.253125" y="43.429389">Montroll</text>
     </g>
    </g>
   </g>
   <g id="text_4">
    <text style="fill:#808080;font-family:Linux Libertine O;font-size:10px;font-style:normal;font-weight:normal;text-anchor:start;" transform="rotate(-0, 358.723593, 18.936818)" x="358.723593" y="18.936818">43%</text>
   </g>
   <g id="text_5">
    <text style="fill:#808080;font-family:Linux Libertine O;font-size:10px;font-style:normal;font-weight:normal;text-anchor:start;" transform="rotate(-0, 254.083058, 31.291364)" x="254.083058" y="31.291364">28%</text>
   </g>
   <g id="text_6">
    <text style="fill:#808080;font-family:Linux Libertine O;font-size:10px;font-style:normal;font-weight:normal;text-anchor:start;" transform="rotate(-0, 256.817134, 43.645909)" x="256.817134" y="43.645909">29%</text>
   </g>
  </g>
 </g>
 <defs>
  <clipPath id="pc7597e3fe2">
   <rect height="40.77" width="446.4" x="46.753125" y="7.2"/>
  </clipPath>
 </defs>
</svg>
