<?xml version="1.0" encoding="utf-8" standalone="no"?>
<!DOCTYPE svg PUBLIC "-//W3C//DTD SVG 1.1//EN"
  "http://www.w3.org/Graphics/SVG/1.1/DTD/svg11.dtd">
<!-- Created with matplotlib (https://matplotlib.org/) -->
<svg height="249.699375pt" version="1.1" viewBox="0 0 282.153125 249.699375" width="282.153125pt" xmlns="http://www.w3.org/2000/svg" xmlns:xlink="http://www.w3.org/1999/xlink">
 <defs>
  <style type="text/css">
*{stroke-linecap:butt;stroke-linejoin:round;}
  </style>
 </defs>
 <g id="figure_1">
  <g id="patch_1">
   <path d="M 0 249.699375 
L 282.153125 249.699375 
L 282.153125 0 
L 0 0 
z
" style="fill:none;"/>
  </g>
  <g id="axes_1">
   <g id="patch_2">
    <path d="M 51.753125 224.64 
L 274.953125 224.64 
L 274.953125 7.2 
L 51.753125 7.2 
z
" style="fill:none;"/>
   </g>
   <g id="QuadMesh_1">
    <path clip-path="url(#pe6b00b2dd6)" d="M 51.753125 224.64 
L 96.393125 224.64 
L 96.393125 181.152 
L 51.753125 181.152 
L 51.753125 224.64 
" style="fill:#666666;stroke:#ffffff;"/>
    <path clip-path="url(#pe6b00b2dd6)" d="M 96.393125 224.64 
L 141.033125 224.64 
L 141.033125 181.152 
L 96.393125 181.152 
L 96.393125 224.64 
" style="fill:#727ecf;stroke:#ffffff;"/>
    <path clip-path="url(#pe6b00b2dd6)" d="M 141.033125 224.64 
L 185.673125 224.64 
L 185.673125 181.152 
L 141.033125 181.152 
L 141.033125 224.64 
" style="fill:#c55faf;stroke:#ffffff;"/>
    <path clip-path="url(#pe6b00b2dd6)" d="M 185.673125 224.64 
L 230.313125 224.64 
L 230.313125 181.152 
L 185.673125 181.152 
L 185.673125 224.64 
" style="fill:#c55faf;stroke:#ffffff;"/>
    <path clip-path="url(#pe6b00b2dd6)" d="M 230.313125 224.64 
L 274.953125 224.64 
L 274.953125 181.152 
L 230.313125 181.152 
L 230.313125 224.64 
" style="fill:#c55faf;stroke:#ffffff;"/>
    <path clip-path="url(#pe6b00b2dd6)" d="M 51.753125 181.152 
L 96.393125 181.152 
L 96.393125 137.664 
L 51.753125 137.664 
L 51.753125 181.152 
" style="fill:#727ecf;stroke:#ffffff;"/>
    <path clip-path="url(#pe6b00b2dd6)" d="M 96.393125 181.152 
L 141.033125 181.152 
L 141.033125 137.664 
L 96.393125 137.664 
L 96.393125 181.152 
" style="fill:#666666;stroke:#ffffff;"/>
    <path clip-path="url(#pe6b00b2dd6)" d="M 141.033125 181.152 
L 185.673125 181.152 
L 185.673125 137.664 
L 141.033125 137.664 
L 141.033125 181.152 
" style="fill:#727ecf;stroke:#ffffff;"/>
    <path clip-path="url(#pe6b00b2dd6)" d="M 185.673125 181.152 
L 230.313125 181.152 
L 230.313125 137.664 
L 185.673125 137.664 
L 185.673125 181.152 
" style="fill:#727ecf;stroke:#ffffff;"/>
    <path clip-path="url(#pe6b00b2dd6)" d="M 230.313125 181.152 
L 274.953125 181.152 
L 274.953125 137.664 
L 230.313125 137.664 
L 230.313125 181.152 
" style="fill:#727ecf;stroke:#ffffff;"/>
    <path clip-path="url(#pe6b00b2dd6)" d="M 51.753125 137.664 
L 96.393125 137.664 
L 96.393125 94.176 
L 51.753125 94.176 
L 51.753125 137.664 
" style="fill:#c55faf;stroke:#ffffff;"/>
    <path clip-path="url(#pe6b00b2dd6)" d="M 96.393125 137.664 
L 141.033125 137.664 
L 141.033125 94.176 
L 96.393125 94.176 
L 96.393125 137.664 
" style="fill:#727ecf;stroke:#ffffff;"/>
    <path clip-path="url(#pe6b00b2dd6)" d="M 141.033125 137.664 
L 185.673125 137.664 
L 185.673125 94.176 
L 141.033125 94.176 
L 141.033125 137.664 
" style="fill:#666666;stroke:#ffffff;"/>
    <path clip-path="url(#pe6b00b2dd6)" d="M 185.673125 137.664 
L 230.313125 137.664 
L 230.313125 94.176 
L 185.673125 94.176 
L 185.673125 137.664 
" style="fill:#d67c00;stroke:#ffffff;"/>
    <path clip-path="url(#pe6b00b2dd6)" d="M 230.313125 137.664 
L 274.953125 137.664 
L 274.953125 94.176 
L 230.313125 94.176 
L 230.313125 137.664 
" style="fill:#e93834;stroke:#ffffff;"/>
    <path clip-path="url(#pe6b00b2dd6)" d="M 51.753125 94.176 
L 96.393125 94.176 
L 96.393125 50.688 
L 51.753125 50.688 
L 51.753125 94.176 
" style="fill:#c55faf;stroke:#ffffff;"/>
    <path clip-path="url(#pe6b00b2dd6)" d="M 96.393125 94.176 
L 141.033125 94.176 
L 141.033125 50.688 
L 96.393125 50.688 
L 96.393125 94.176 
" style="fill:#727ecf;stroke:#ffffff;"/>
    <path clip-path="url(#pe6b00b2dd6)" d="M 141.033125 94.176 
L 185.673125 94.176 
L 185.673125 50.688 
L 141.033125 50.688 
L 141.033125 94.176 
" style="fill:#d67c00;stroke:#ffffff;"/>
    <path clip-path="url(#pe6b00b2dd6)" d="M 185.673125 94.176 
L 230.313125 94.176 
L 230.313125 50.688 
L 185.673125 50.688 
L 185.673125 94.176 
" style="fill:#666666;stroke:#ffffff;"/>
    <path clip-path="url(#pe6b00b2dd6)" d="M 230.313125 94.176 
L 274.953125 94.176 
L 274.953125 50.688 
L 230.313125 50.688 
L 230.313125 94.176 
" style="fill:#e93834;stroke:#ffffff;"/>
    <path clip-path="url(#pe6b00b2dd6)" d="M 51.753125 50.688 
L 96.393125 50.688 
L 96.393125 7.2 
L 51.753125 7.2 
L 51.753125 50.688 
" style="fill:#c55faf;stroke:#ffffff;"/>
    <path clip-path="url(#pe6b00b2dd6)" d="M 96.393125 50.688 
L 141.033125 50.688 
L 141.033125 7.2 
L 96.393125 7.2 
L 96.393125 50.688 
" style="fill:#727ecf;stroke:#ffffff;"/>
    <path clip-path="url(#pe6b00b2dd6)" d="M 141.033125 50.688 
L 185.673125 50.688 
L 185.673125 7.2 
L 141.033125 7.2 
L 141.033125 50.688 
" style="fill:#e93834;stroke:#ffffff;"/>
    <path clip-path="url(#pe6b00b2dd6)" d="M 185.673125 50.688 
L 230.313125 50.688 
L 230.313125 7.2 
L 185.673125 7.2 
L 185.673125 50.688 
" style="fill:#e93834;stroke:#ffffff;"/>
    <path clip-path="url(#pe6b00b2dd6)" d="M 230.313125 50.688 
L 274.953125 50.688 
L 274.953125 7.2 
L 230.313125 7.2 
L 230.313125 50.688 
" style="fill:#666666;stroke:#ffffff;"/>
   </g>
   <g id="matplotlib.axis_1">
    <g id="xtick_1">
     <g id="text_1">
      <text style="fill:#808080;font-family:Linux Libertine O;font-size:10px;font-style:normal;font-weight:normal;text-anchor:middle;" transform="rotate(-0, 74.073125, 240.119687)" x="74.073125" y="240.119687">Kiss</text>
     </g>
    </g>
    <g id="xtick_2">
     <g id="text_2">
      <text style="fill:#808080;font-family:Linux Libertine O;font-size:10px;font-style:normal;font-weight:normal;text-anchor:middle;" transform="rotate(-0, 118.713125, 240.119687)" x="118.713125" y="240.119687">Montroll</text>
     </g>
    </g>
    <g id="xtick_3">
     <g id="text_3">
      <text style="fill:#808080;font-family:Linux Libertine O;font-size:10px;font-style:normal;font-weight:normal;text-anchor:middle;" transform="rotate(-0, 163.353125, 240.119687)" x="163.353125" y="240.119687">Simpson</text>
     </g>
    </g>
    <g id="xtick_4">
     <g id="text_4">
      <text style="fill:#808080;font-family:Linux Libertine O;font-size:10px;font-style:normal;font-weight:normal;text-anchor:middle;" transform="rotate(-0, 207.993125, 240.119687)" x="207.993125" y="240.119687">Smith</text>
     </g>
    </g>
    <g id="xtick_5">
     <g id="text_5">
      <text style="fill:#808080;font-family:Linux Libertine O;font-size:10px;font-style:normal;font-weight:normal;text-anchor:middle;" transform="rotate(-0, 252.633125, 240.119687)" x="252.633125" y="240.119687">Wright</text>
     </g>
    </g>
   </g>
   <g id="matplotlib.axis_2">
    <g id="ytick_1">
     <g id="text_6">
      <text style="fill:#808080;font-family:Linux Libertine O;font-size:10px;font-style:normal;font-weight:normal;text-anchor:end;" transform="rotate(-0, 43.253125, 206.385844)" x="43.253125" y="206.385844">Kiss</text>
     </g>
    </g>
    <g id="ytick_2">
     <g id="text_7">
      <text style="fill:#808080;font-family:Linux Libertine O;font-size:10px;font-style:normal;font-weight:normal;text-anchor:end;" transform="rotate(-0, 43.253125, 162.897844)" x="43.253125" y="162.897844">Montroll</text>
     </g>
    </g>
    <g id="ytick_3">
     <g id="text_8">
      <text style="fill:#808080;font-family:Linux Libertine O;font-size:10px;font-style:normal;font-weight:normal;text-anchor:end;" transform="rotate(-0, 43.253125, 119.409844)" x="43.253125" y="119.409844">Simpson</text>
     </g>
    </g>
    <g id="ytick_4">
     <g id="text_9">
      <text style="fill:#808080;font-family:Linux Libertine O;font-size:10px;font-style:normal;font-weight:normal;text-anchor:end;" transform="rotate(-0, 43.253125, 75.921844)" x="43.253125" y="75.921844">Smith</text>
     </g>
    </g>
    <g id="ytick_5">
     <g id="text_10">
      <text style="fill:#808080;font-family:Linux Libertine O;font-size:10px;font-style:normal;font-weight:normal;text-anchor:end;" transform="rotate(-0, 43.253125, 32.433844)" x="43.253125" y="32.433844">Wright</text>
     </g>
    </g>
   </g>
   <g id="text_11">
    <text style="fill:#ffffff;font-family:Linux Libertine O;font-size:9px;font-style:normal;font-weight:normal;text-anchor:middle;" transform="rotate(-0, 118.713125, 200.634778)" x="118.713125" y="200.634778">Montroll</text>
   </g>
   <g id="text_12">
    <text style="fill:#ffffff;font-family:Linux Libertine O;font-size:8px;font-style:normal;font-weight:normal;text-anchor:middle;" transform="rotate(-0, 118.713125, 211.274825)" x="118.713125" y="211.274825">51%</text>
   </g>
   <g id="text_13">
    <text style="fill:#ffffff;font-family:Linux Libertine O;font-size:9px;font-style:normal;font-weight:normal;text-anchor:middle;" transform="rotate(-0, 163.353125, 200.634778)" x="163.353125" y="200.634778">Kiss</text>
   </g>
   <g id="text_14">
    <text style="fill:#ffffff;font-family:Linux Libertine O;font-size:8px;font-style:normal;font-weight:normal;text-anchor:middle;" transform="rotate(-0, 163.353125, 211.274825)" x="163.353125" y="211.274825">79%</text>
   </g>
   <g id="text_15">
    <text style="fill:#ffffff;font-family:Linux Libertine O;font-size:9px;font-style:normal;font-weight:normal;text-anchor:middle;" transform="rotate(-0, 207.993125, 200.634778)" x="207.993125" y="200.634778">Kiss</text>
   </g>
   <g id="text_16">
    <text style="fill:#ffffff;font-family:Linux Libertine O;font-size:8px;font-style:normal;font-weight:normal;text-anchor:middle;" transform="rotate(-0, 207.993125, 211.274825)" x="207.993125" y="211.274825">53%</text>
   </g>
   <g id="text_17">
    <text style="fill:#ffffff;font-family:Linux Libertine O;font-size:9px;font-style:normal;font-weight:normal;text-anchor:middle;" transform="rotate(-0, 252.633125, 200.634778)" x="252.633125" y="200.634778">Kiss</text>
   </g>
   <g id="text_18">
    <text style="fill:#ffffff;font-family:Linux Libertine O;font-size:8px;font-style:normal;font-weight:normal;text-anchor:middle;" transform="rotate(-0, 252.633125, 211.274825)" x="252.633125" y="211.274825">52%</text>
   </g>
   <g id="text_19">
    <text style="fill:#ffffff;font-family:Linux Libertine O;font-size:9px;font-style:normal;font-weight:normal;text-anchor:middle;" transform="rotate(-0, 74.073125, 157.146778)" x="74.073125" y="157.146778">Montroll</text>
   </g>
   <g id="text_20">
    <text style="fill:#ffffff;font-family:Linux Libertine O;font-size:8px;font-style:normal;font-weight:normal;text-anchor:middle;" transform="rotate(-0, 74.073125, 167.786825)" x="74.073125" y="167.786825">51%</text>
   </g>
   <g id="text_21">
    <text style="fill:#ffffff;font-family:Linux Libertine O;font-size:9px;font-style:normal;font-weight:normal;text-anchor:middle;" transform="rotate(-0, 163.353125, 157.146778)" x="163.353125" y="157.146778">Montroll</text>
   </g>
   <g id="text_22">
    <text style="fill:#ffffff;font-family:Linux Libertine O;font-size:8px;font-style:normal;font-weight:normal;text-anchor:middle;" transform="rotate(-0, 163.353125, 167.786825)" x="163.353125" y="167.786825">86%</text>
   </g>
   <g id="text_23">
    <text style="fill:#ffffff;font-family:Linux Libertine O;font-size:9px;font-style:normal;font-weight:normal;text-anchor:middle;" transform="rotate(-0, 207.993125, 157.146778)" x="207.993125" y="157.146778">Montroll</text>
   </g>
   <g id="text_24">
    <text style="fill:#ffffff;font-family:Linux Libertine O;font-size:8px;font-style:normal;font-weight:normal;text-anchor:middle;" transform="rotate(-0, 207.993125, 167.786825)" x="207.993125" y="167.786825">59%</text>
   </g>
   <g id="text_25">
    <text style="fill:#ffffff;font-family:Linux Libertine O;font-size:9px;font-style:normal;font-weight:normal;text-anchor:middle;" transform="rotate(-0, 252.633125, 157.146778)" x="252.633125" y="157.146778">Montroll</text>
   </g>
   <g id="text_26">
    <text style="fill:#ffffff;font-family:Linux Libertine O;font-size:8px;font-style:normal;font-weight:normal;text-anchor:middle;" transform="rotate(-0, 252.633125, 167.786825)" x="252.633125" y="167.786825">53%</text>
   </g>
   <g id="text_27">
    <text style="fill:#ffffff;font-family:Linux Libertine O;font-size:9px;font-style:normal;font-weight:normal;text-anchor:middle;" transform="rotate(-0, 74.073125, 113.658778)" x="74.073125" y="113.658778">Kiss</text>
   </g>
   <g id="text_28">
    <text style="fill:#ffffff;font-family:Linux Libertine O;font-size:8px;font-style:normal;font-weight:normal;text-anchor:middle;" transform="rotate(-0, 74.073125, 124.298825)" x="74.073125" y="124.298825">79%</text>
   </g>
   <g id="text_29">
    <text style="fill:#ffffff;font-family:Linux Libertine O;font-size:9px;font-style:normal;font-weight:normal;text-anchor:middle;" transform="rotate(-0, 118.713125, 113.658778)" x="118.713125" y="113.658778">Montroll</text>
   </g>
   <g id="text_30">
    <text style="fill:#ffffff;font-family:Linux Libertine O;font-size:8px;font-style:normal;font-weight:normal;text-anchor:middle;" transform="rotate(-0, 118.713125, 124.298825)" x="118.713125" y="124.298825">86%</text>
   </g>
   <g id="text_31">
    <text style="fill:#ffffff;font-family:Linux Libertine O;font-size:9px;font-style:normal;font-weight:normal;text-anchor:middle;" transform="rotate(-0, 207.993125, 113.658778)" x="207.993125" y="113.658778">Smith</text>
   </g>
   <g id="text_32">
    <text style="fill:#ffffff;font-family:Linux Libertine O;font-size:8px;font-style:normal;font-weight:normal;text-anchor:middle;" transform="rotate(-0, 207.993125, 124.298825)" x="207.993125" y="124.298825">84%</text>
   </g>
   <g id="text_33">
    <text style="fill:#ffffff;font-family:Linux Libertine O;font-size:9px;font-style:normal;font-weight:normal;text-anchor:middle;" transform="rotate(-0, 252.633125, 113.6412)" x="252.633125" y="113.6412">Wright</text>
   </g>
   <g id="text_34">
    <text style="fill:#ffffff;font-family:Linux Libertine O;font-size:8px;font-style:normal;font-weight:normal;text-anchor:middle;" transform="rotate(-0, 252.633125, 124.298825)" x="252.633125" y="124.298825">72%</text>
   </g>
   <g id="text_35">
    <text style="fill:#ffffff;font-family:Linux Libertine O;font-size:9px;font-style:normal;font-weight:normal;text-anchor:middle;" transform="rotate(-0, 74.073125, 70.170778)" x="74.073125" y="70.170778">Kiss</text>
   </g>
   <g id="text_36">
    <text style="fill:#ffffff;font-family:Linux Libertine O;font-size:8px;font-style:normal;font-weight:normal;text-anchor:middle;" transform="rotate(-0, 74.073125, 80.810825)" x="74.073125" y="80.810825">53%</text>
   </g>
   <g id="text_37">
    <text style="fill:#ffffff;font-family:Linux Libertine O;font-size:9px;font-style:normal;font-weight:normal;text-anchor:middle;" transform="rotate(-0, 118.713125, 70.170778)" x="118.713125" y="70.170778">Montroll</text>
   </g>
   <g id="text_38">
    <text style="fill:#ffffff;font-family:Linux Libertine O;font-size:8px;font-style:normal;font-weight:normal;text-anchor:middle;" transform="rotate(-0, 118.713125, 80.810825)" x="118.713125" y="80.810825">59%</text>
   </g>
   <g id="text_39">
    <text style="fill:#ffffff;font-family:Linux Libertine O;font-size:9px;font-style:normal;font-weight:normal;text-anchor:middle;" transform="rotate(-0, 163.353125, 70.170778)" x="163.353125" y="70.170778">Smith</text>
   </g>
   <g id="text_40">
    <text style="fill:#ffffff;font-family:Linux Libertine O;font-size:8px;font-style:normal;font-weight:normal;text-anchor:middle;" transform="rotate(-0, 163.353125, 80.810825)" x="163.353125" y="80.810825">84%</text>
   </g>
   <g id="text_41">
    <text style="fill:#ffffff;font-family:Linux Libertine O;font-size:9px;font-style:normal;font-weight:normal;text-anchor:middle;" transform="rotate(-0, 252.633125, 70.1532)" x="252.633125" y="70.1532">Wright</text>
   </g>
   <g id="text_42">
    <text style="fill:#ffffff;font-family:Linux Libertine O;font-size:8px;font-style:normal;font-weight:normal;text-anchor:middle;" transform="rotate(-0, 252.633125, 80.810825)" x="252.633125" y="80.810825">52%</text>
   </g>
   <g id="text_43">
    <text style="fill:#ffffff;font-family:Linux Libertine O;font-size:9px;font-style:normal;font-weight:normal;text-anchor:middle;" transform="rotate(-0, 74.073125, 26.682778)" x="74.073125" y="26.682778">Kiss</text>
   </g>
   <g id="text_44">
    <text style="fill:#ffffff;font-family:Linux Libertine O;font-size:8px;font-style:normal;font-weight:normal;text-anchor:middle;" transform="rotate(-0, 74.073125, 37.322825)" x="74.073125" y="37.322825">52%</text>
   </g>
   <g id="text_45">
    <text style="fill:#ffffff;font-family:Linux Libertine O;font-size:9px;font-style:normal;font-weight:normal;text-anchor:middle;" transform="rotate(-0, 118.713125, 26.682778)" x="118.713125" y="26.682778">Montroll</text>
   </g>
   <g id="text_46">
    <text style="fill:#ffffff;font-family:Linux Libertine O;font-size:8px;font-style:normal;font-weight:normal;text-anchor:middle;" transform="rotate(-0, 118.713125, 37.322825)" x="118.713125" y="37.322825">53%</text>
   </g>
   <g id="text_47">
    <text style="fill:#ffffff;font-family:Linux Libertine O;font-size:9px;font-style:normal;font-weight:normal;text-anchor:middle;" transform="rotate(-0, 163.353125, 26.6652)" x="163.353125" y="26.6652">Wright</text>
   </g>
   <g id="text_48">
    <text style="fill:#ffffff;font-family:Linux Libertine O;font-size:8px;font-style:normal;font-weight:normal;text-anchor:middle;" transform="rotate(-0, 163.353125, 37.322825)" x="163.353125" y="37.322825">72%</text>
   </g>
   <g id="text_49">
    <text style="fill:#ffffff;font-family:Linux Libertine O;font-size:9px;font-style:normal;font-weight:normal;text-anchor:middle;" transform="rotate(-0, 207.993125, 26.6652)" x="207.993125" y="26.6652">Wright</text>
   </g>
   <g id="text_50">
    <text style="fill:#ffffff;font-family:Linux Libertine O;font-size:8px;font-style:normal;font-weight:normal;text-anchor:middle;" transform="rotate(-0, 207.993125, 37.322825)" x="207.993125" y="37.322825">52%</text>
   </g>
  </g>
 </g>
 <defs>
  <clipPath id="pe6b00b2dd6">
   <rect height="217.44" width="223.2" x="51.753125" y="7.2"/>
  </clipPath>
 </defs>
</svg>
