<?xml version="1.0" encoding="utf-8" standalone="no"?>
<!DOCTYPE svg PUBLIC "-//W3C//DTD SVG 1.1//EN"
  "http://www.w3.org/Graphics/SVG/1.1/DTD/svg11.dtd">
<!-- Created with matplotlib (https://matplotlib.org/) -->
<svg height="140.940313pt" version="1.1" viewBox="0 0 365.570312 140.940313" width="365.570312pt" xmlns="http://www.w3.org/2000/svg" xmlns:xlink="http://www.w3.org/1999/xlink">
 <defs>
  <style type="text/css">
*{stroke-linecap:butt;stroke-linejoin:round;}
  </style>
 </defs>
 <g id="figure_1">
  <g id="patch_1">
   <path d="M -0 140.940313 
L 365.570312 140.940313 
L 365.570312 0 
L -0 0 
z
" style="fill:none;"/>
  </g>
  <g id="axes_1">
   <g id="patch_2">
    <path d="M 23.570312 115.92 
L 358.370313 115.92 
L 358.370313 7.2 
L 23.570312 7.2 
z
" style="fill:none;"/>
   </g>
   <g id="matplotlib.axis_1">
    <g id="xtick_1">
     <g id="text_1">
      <text style="fill:#808080;font-family:Linux Libertine O;font-size:10px;font-style:normal;font-weight:normal;text-anchor:middle;" transform="rotate(-0, 36.932618, 131.399687)" x="36.932618" y="131.399687">1850</text>
     </g>
    </g>
    <g id="xtick_2">
     <g id="text_2">
      <text style="fill:#808080;font-family:Linux Libertine O;font-size:10px;font-style:normal;font-weight:normal;text-anchor:middle;" transform="rotate(-0, 83.329514, 131.399687)" x="83.329514" y="131.399687">1875</text>
     </g>
    </g>
    <g id="xtick_3">
     <g id="text_3">
      <text style="fill:#808080;font-family:Linux Libertine O;font-size:10px;font-style:normal;font-weight:normal;text-anchor:middle;" transform="rotate(-0, 129.72641, 131.399687)" x="129.72641" y="131.399687">1900</text>
     </g>
    </g>
    <g id="xtick_4">
     <g id="text_4">
      <text style="fill:#808080;font-family:Linux Libertine O;font-size:10px;font-style:normal;font-weight:normal;text-anchor:middle;" transform="rotate(-0, 176.123306, 131.399687)" x="176.123306" y="131.399687">1925</text>
     </g>
    </g>
    <g id="xtick_5">
     <g id="text_5">
      <text style="fill:#808080;font-family:Linux Libertine O;font-size:10px;font-style:normal;font-weight:normal;text-anchor:middle;" transform="rotate(-0, 222.520202, 131.399687)" x="222.520202" y="131.399687">1950</text>
     </g>
    </g>
    <g id="xtick_6">
     <g id="text_6">
      <text style="fill:#808080;font-family:Linux Libertine O;font-size:10px;font-style:normal;font-weight:normal;text-anchor:middle;" transform="rotate(-0, 268.917097, 131.399687)" x="268.917097" y="131.399687">1975</text>
     </g>
    </g>
    <g id="xtick_7">
     <g id="text_7">
      <text style="fill:#808080;font-family:Linux Libertine O;font-size:10px;font-style:normal;font-weight:normal;text-anchor:middle;" transform="rotate(-0, 315.313993, 131.399687)" x="315.313993" y="131.399687">2000</text>
     </g>
    </g>
   </g>
   <g id="matplotlib.axis_2">
    <g id="ytick_1">
     <g id="text_8">
      <text style="fill:#808080;font-family:Linux Libertine O;font-size:10px;font-style:normal;font-weight:normal;text-anchor:end;" transform="rotate(-0, 25.070312, 114.468026)" x="25.070312" y="114.468026">0%</text>
     </g>
    </g>
    <g id="ytick_2">
     <g id="text_9">
      <text style="fill:#808080;font-family:Linux Libertine O;font-size:10px;font-style:normal;font-weight:normal;text-anchor:end;" transform="rotate(-0, 25.070312, 75.691226)" x="25.070312" y="75.691226">0.1%</text>
     </g>
    </g>
    <g id="ytick_3">
     <g id="text_10">
      <text style="fill:#808080;font-family:Linux Libertine O;font-size:10px;font-style:normal;font-weight:normal;text-anchor:end;" transform="rotate(-0, 25.070312, 36.914426)" x="25.070312" y="36.914426">0.2%</text>
     </g>
    </g>
   </g>
   <g id="line2d_1">
    <path clip-path="url(#p036b56eb36)" d="M 38.788494 110.978182 
L 163.132175 110.978182 
L 164.988051 102.253511 
L 166.843927 110.978182 
L 189.114437 110.978182 
L 190.970312 110.433212 
L 192.826188 110.978182 
L 196.53794 110.978182 
L 198.393816 108.593971 
L 200.249692 101.887028 
L 202.105567 83.869964 
L 203.961443 101.816144 
L 205.817319 87.306986 
L 207.673195 110.978182 
L 209.529071 96.319151 
L 211.384947 65.856087 
L 215.096698 99.373573 
L 216.952574 84.581449 
L 218.80845 36.163934 
L 220.664326 44.030938 
L 222.520202 110.978182 
L 224.376077 93.503283 
L 226.231953 110.978182 
L 228.087829 89.248398 
L 229.943705 80.166263 
L 231.799581 98.066928 
L 233.655457 80.58884 
L 237.367208 105.147961 
L 239.223084 83.579364 
L 241.07896 12.141818 
L 242.934836 100.276213 
L 244.790712 91.429482 
L 246.646587 102.412509 
L 250.358339 85.778806 
L 252.214215 97.913222 
L 254.070091 110.978182 
L 289.331732 110.978182 
L 291.187607 100.580863 
L 293.043483 110.978182 
L 343.152131 110.978182 
L 343.152131 110.978182 
" style="fill:none;stroke:#e7298a;stroke-linecap:square;stroke-width:1.5;"/>
   </g>
  </g>
 </g>
 <defs>
  <clipPath id="p036b56eb36">
   <rect height="108.72" width="334.8" x="23.570312" y="7.2"/>
  </clipPath>
 </defs>
</svg>
