<?xml version="1.0" encoding="UTF-8" standalone="no"?>
<!DOCTYPE svg PUBLIC "-//W3C//DTD SVG 1.1//EN"
 "http://www.w3.org/Graphics/SVG/1.1/DTD/svg11.dtd">
<!-- Generated by graphviz version 2.40.1 (20161225.0304)
 -->
<!-- Title: menu Pages: 1 -->
<svg width="296pt" height="162pt"
 viewBox="0.00 0.00 296.00 161.50" xmlns="http://www.w3.org/2000/svg" xmlns:xlink="http://www.w3.org/1999/xlink">
<g id="graph0" class="graph" transform="scale(1 1) rotate(0) translate(4 157.5)">
<title>menu</title>
<polygon fill="#ffffff" stroke="transparent" points="-4,4 -4,-157.5 292,-157.5 292,4 -4,4"/>
<!-- Dish -->
<g id="node1" class="node">
<title>Dish</title>
<polygon fill="none" stroke="#000000" points="123.5,-.5 123.5,-57.5 177.5,-57.5 177.5,-.5 123.5,-.5"/>
<text text-anchor="middle" x="150.5" y="-45.5" font-family="Linux Libertine O" font-size="10.00" fill="#000000">Dish.csv</text>
<polyline fill="none" stroke="#000000" points="123.5,-38.5 177.5,-38.5 "/>
<text text-anchor="middle" x="150.5" y="-26.5" font-family="Linux Libertine O" font-size="10.00" fill="#000000">id</text>
<polyline fill="none" stroke="#000000" points="123.5,-19.5 177.5,-19.5 "/>
<text text-anchor="middle" x="150.5" y="-7.5" font-family="Linux Libertine O" font-size="10.00" fill="#000000">name</text>
</g>
<!-- Menu -->
<g id="node2" class="node">
<title>Menu</title>
<polygon fill="none" stroke="#000000" points="224,-38.5 224,-133.5 288,-133.5 288,-38.5 224,-38.5"/>
<text text-anchor="middle" x="256" y="-121.5" font-family="Linux Libertine O" font-size="10.00" fill="#000000">Menu.csv</text>
<polyline fill="none" stroke="#000000" points="224,-114.5 288,-114.5 "/>
<text text-anchor="middle" x="256" y="-102.5" font-family="Linux Libertine O" font-size="10.00" fill="#000000">id</text>
<polyline fill="none" stroke="#000000" points="224,-95.5 288,-95.5 "/>
<text text-anchor="middle" x="256" y="-83.5" font-family="Linux Libertine O" font-size="10.00" fill="#000000">date</text>
<polyline fill="none" stroke="#000000" points="224,-76.5 288,-76.5 "/>
<text text-anchor="middle" x="256" y="-64.5" font-family="Linux Libertine O" font-size="10.00" fill="#000000">page_count</text>
<polyline fill="none" stroke="#000000" points="224,-57.5 288,-57.5 "/>
<text text-anchor="middle" x="256" y="-45.5" font-family="Linux Libertine O" font-size="10.00" fill="#000000">dish_count</text>
</g>
<!-- MenuItem -->
<g id="node3" class="node">
<title>MenuItem</title>
<polygon fill="none" stroke="#000000" points="0,-38.5 0,-133.5 77,-133.5 77,-38.5 0,-38.5"/>
<text text-anchor="middle" x="38.5" y="-121.5" font-family="Linux Libertine O" font-size="10.00" fill="#000000">MenuItem.csv</text>
<polyline fill="none" stroke="#000000" points="0,-114.5 77,-114.5 "/>
<text text-anchor="middle" x="38.5" y="-102.5" font-family="Linux Libertine O" font-size="10.00" fill="#000000">id</text>
<polyline fill="none" stroke="#000000" points="0,-95.5 77,-95.5 "/>
<text text-anchor="middle" x="38.5" y="-83.5" font-family="Linux Libertine O" font-size="10.00" fill="#000000">menu_page_id</text>
<polyline fill="none" stroke="#000000" points="0,-76.5 77,-76.5 "/>
<text text-anchor="middle" x="38.5" y="-64.5" font-family="Linux Libertine O" font-size="10.00" fill="#000000">dish_id</text>
<polyline fill="none" stroke="#000000" points="0,-57.5 77,-57.5 "/>
<text text-anchor="middle" x="38.5" y="-45.5" font-family="Linux Libertine O" font-size="10.00" fill="#000000">price</text>
</g>
<!-- MenuItem&#45;&gt;Dish -->
<g id="edge2" class="edge">
<title>MenuItem:did&#45;&gt;Dish:id</title>
<path fill="none" stroke="#000000" d="M77,-67C99.728,-67 98.1129,-39.444 113.6141,-31.2633"/>
<polygon fill="#000000" stroke="#000000" points="114.5333,-34.6435 123.5,-29 112.9711,-27.82 114.5333,-34.6435"/>
</g>
<!-- MenuPage -->
<g id="node4" class="node">
<title>MenuPage</title>
<polygon fill="none" stroke="#000000" points="113,-77 113,-153 188,-153 188,-77 113,-77"/>
<text text-anchor="middle" x="150.5" y="-141" font-family="Linux Libertine O" font-size="10.00" fill="#000000">MenuPage.csv</text>
<polyline fill="none" stroke="#000000" points="113,-134 188,-134 "/>
<text text-anchor="middle" x="150.5" y="-122" font-family="Linux Libertine O" font-size="10.00" fill="#000000">id</text>
<polyline fill="none" stroke="#000000" points="113,-115 188,-115 "/>
<text text-anchor="middle" x="150.5" y="-103" font-family="Linux Libertine O" font-size="10.00" fill="#000000">menu_id</text>
<polyline fill="none" stroke="#000000" points="113,-96 188,-96 "/>
<text text-anchor="middle" x="150.5" y="-84" font-family="Linux Libertine O" font-size="10.00" fill="#000000">page_number</text>
</g>
<!-- MenuItem&#45;&gt;MenuPage -->
<g id="edge1" class="edge">
<title>MenuItem:mpid&#45;&gt;MenuPage:id</title>
<path fill="none" stroke="#000000" d="M77,-86C96.3504,-86 92.3055,-112.2436 103.2482,-121.6749"/>
<polygon fill="#000000" stroke="#000000" points="102.4055,-125.0853 113,-125 104.6647,-118.4599 102.4055,-125.0853"/>
</g>
<!-- MenuPage&#45;&gt;Menu -->
<g id="edge3" class="edge">
<title>MenuPage:mid&#45;&gt;Menu:id</title>
<path fill="none" stroke="#000000" d="M188,-105C200,-105 205.25,-105 213.875,-105"/>
<polygon fill="#000000" stroke="#000000" points="214,-108.5001 224,-105 214,-101.5001 214,-108.5001"/>
</g>
</g>
</svg>
