<svg height="79.2" viewBox="0 0 148.1 59.4" width="197.5" xmlns="http://www.w3.org/2000/svg">
    <defs>
        <style>
            *{stroke-linecap:butt;stroke-linejoin:round}
        </style>
    </defs>
    <g id="figure_1">
        <path d="M0 59.4h148.1V0H0z" fill="none" id="patch_1"/>
        <g id="axes_1">
            <path d="M24.5 34.4h111.6V7.2H24.5z" fill="none" id="patch_2"/>
            <path clip-path="url(#p4212d0b27a)" d="M24.5 31.7H61v-11H24.5z" fill="#727ecf" stroke="#fff" id="patch_3"/>
            <path clip-path="url(#p4212d0b27a)" d="M24.5 20.8H73V9.9H24.5z" fill="#727ecf" stroke="#fff" id="patch_4"/>
            <path clip-path="url(#p4212d0b27a)" d="M61 31.7h66v-11H61z" fill="#e93834" stroke="#fff" id="patch_5"/>
            <path clip-path="url(#p4212d0b27a)" d="M73 20.8h54V9.9H73z" fill="#e93834" stroke="#fff" id="patch_6"/>
            <path clip-path="url(#p4212d0b27a)" d="M127 31.7h2.2v-11H127z" fill="#e6ab02" stroke="#fff" id="patch_7"/>
            <path clip-path="url(#p4212d0b27a)" d="M127 20.8h3.2V9.9H127z" fill="#e6ab02" stroke="#fff" id="patch_8"/>
            <path clip-path="url(#p4212d0b27a)" d="M129.2 31.7h.5v-11h-.5z" fill="#76a254" stroke="#fff" id="patch_9"/>
            <path clip-path="url(#p4212d0b27a)" d="M130.2 20.8h.2V9.9h-.2z" fill="#76a254" stroke="#fff" id="patch_10"/>
            <path clip-path="url(#p4212d0b27a)" d="M24.5 31.7h0v-11h0z" fill="#d67c00" stroke="#fff" id="patch_11"/>
            <path clip-path="url(#p4212d0b27a)" d="M130.4 20.8h.3V9.9h-.3z" fill="#d67c00" stroke="#fff" id="patch_12"/>
            <path clip-path="url(#p4212d0b27a)" d="M129.7 31.7h1v-11h-1z" fill="#888" stroke="#fff" id="patch_13"/>
            <path clip-path="url(#p4212d0b27a)" d="M130.7 20.8h0V9.9h0z" fill="#888" stroke="#fff" id="patch_14"/>
            <g id="matplotlib.axis_1">
                <g id="xtick_1">
                    <text x="24.5" y="49.9" fill="gray" font-family="Linux Libertine O" font-size="10" font-weight="400" text-anchor="middle" id="text_1">
                        0%
                    </text>
                </g>
                <g id="xtick_2">
                    <text x="77.6" y="49.9" fill="gray" font-family="Linux Libertine O" font-size="10" font-weight="400" text-anchor="middle" id="text_2">
                        50%
                    </text>
                </g>
                <g id="xtick_3">
                    <text x="130.8" y="49.9" fill="gray" font-family="Linux Libertine O" font-size="10" font-weight="400" text-anchor="middle" id="text_3">
                        100%
                    </text>
                </g>
            </g>
            <g id="matplotlib.axis_2">
                <g id="ytick_1">
                    <text x="21" y="29.7" fill="gray" font-family="Linux Libertine O" font-size="10" font-weight="400" text-anchor="end" id="text_4">
                        AL
                    </text>
                </g>
                <g id="ytick_2">
                    <text x="21" y="18.8" fill="gray" font-family="Linux Libertine O" font-size="10" font-weight="400" text-anchor="end" id="text_5">
                        GA
                    </text>
                </g>
            </g>
        </g>
    </g>
    <defs>
        <clipPath id="p4212d0b27a">
            <path d="M24.5 7.2h111.6v27.2H24.5z"/>
        </clipPath>
    </defs>
</svg>
