<svg height="249.5" viewBox="0 0 482.9 187.1" width="643.9" xmlns="http://www.w3.org/2000/svg">
    <defs>
        <style>
            *{stroke-linecap:butt;stroke-linejoin:round}
        </style>
    </defs>
    <g id="figure_1">
        <path d="M0 187.1h482.9V0H0z" fill="none" id="patch_1"/>
        <g id="axes_1">
            <path d="M29.3 162.1h446.4V7.2H29.3z" fill="none" id="patch_2"/>
            <path clip-path="url(#pb960b935a5)" d="M29.3 160.1h191.5v-8H29.3z" fill="#e93834" stroke="#fff" id="patch_3"/>
            <path clip-path="url(#pb960b935a5)" d="M29.3 152.2h195.6v-8H29.3z" fill="#e93834" stroke="#fff" id="patch_4"/>
            <path clip-path="url(#pb960b935a5)" d="M29.3 144.2h155.9v-7.9H29.3z" fill="#e93834" stroke="#fff" id="patch_5"/>
            <path clip-path="url(#pb960b935a5)" d="M29.3 136.3h204v-8h-204z" fill="#e93834" stroke="#fff" id="patch_6"/>
            <path clip-path="url(#pb960b935a5)" d="M29.3 128.4h235.2v-8H29.3z" fill="#e93834" stroke="#fff" id="patch_7"/>
            <path clip-path="url(#pb960b935a5)" d="M29.3 120.4h170v-8h-170z" fill="#e93834" stroke="#fff" id="patch_8"/>
            <path clip-path="url(#pb960b935a5)" d="M29.3 112.5h184.2v-8H29.3z" fill="#e93834" stroke="#fff" id="patch_9"/>
            <path clip-path="url(#pb960b935a5)" d="M29.3 104.5h192.5v-8H29.3z" fill="#e93834" stroke="#fff" id="patch_10"/>
            <path clip-path="url(#pb960b935a5)" d="M29.3 96.6h140.8v-8H29.3z" fill="#e93834" stroke="#fff" id="patch_11"/>
            <path clip-path="url(#pb960b935a5)" d="M29.3 88.6h231.4v-8H29.3z" fill="#e93834" stroke="#fff" id="patch_12"/>
            <path clip-path="url(#pb960b935a5)" d="M29.3 80.7h224v-8h-224z" fill="#e93834" stroke="#fff" id="patch_13"/>
            <path clip-path="url(#pb960b935a5)" d="M29.3 72.7h247v-7.9h-247z" fill="#e93834" stroke="#fff" id="patch_14"/>
            <path clip-path="url(#pb960b935a5)" d="M29.3 64.8h235.6v-8H29.3z" fill="#e93834" stroke="#fff" id="patch_15"/>
            <path clip-path="url(#pb960b935a5)" d="M29.3 56.9h255v-8h-255z" fill="#e93834" stroke="#fff" id="patch_16"/>
            <path clip-path="url(#pb960b935a5)" d="M29.3 49h173.5v-8H29.3z" fill="#e93834" stroke="#fff" id="patch_17"/>
            <path clip-path="url(#pb960b935a5)" d="M29.3 41h130.3v-8H29.3z" fill="#e93834" stroke="#fff" id="patch_18"/>
            <path clip-path="url(#pb960b935a5)" d="M29.3 33h120.5v-8H29.3z" fill="#e93834" stroke="#fff" id="patch_19"/>
            <path clip-path="url(#pb960b935a5)" d="M29.3 25h221v-7.9h-221z" fill="#e93834" stroke="#fff" id="patch_20"/>
            <path clip-path="url(#pb960b935a5)" d="M29.3 17.1h227.9v-8H29.3z" fill="#e93834" stroke="#fff" id="patch_21"/>
            <path clip-path="url(#pb960b935a5)" d="M220.8 160.1h123.8v-8H220.8z" fill="#727ecf" stroke="#fff" id="patch_22"/>
            <path clip-path="url(#pb960b935a5)" d="M224.9 152.2h127.5v-8H225z" fill="#727ecf" stroke="#fff" id="patch_23"/>
            <path clip-path="url(#pb960b935a5)" d="M185.2 144.2h164.4v-7.9H185.2z" fill="#727ecf" stroke="#fff" id="patch_24"/>
            <path clip-path="url(#pb960b935a5)" d="M233.4 136.3h127.5v-8H233.4z" fill="#727ecf" stroke="#fff" id="patch_25"/>
            <path clip-path="url(#pb960b935a5)" d="M264.5 128.4h156v-8h-156z" fill="#727ecf" stroke="#fff" id="patch_26"/>
            <path clip-path="url(#pb960b935a5)" d="M199.4 120.4H409v-8H199.4z" fill="#727ecf" stroke="#fff" id="patch_27"/>
            <path clip-path="url(#pb960b935a5)" d="M213.5 112.5h195.6v-8H213.5z" fill="#727ecf" stroke="#fff" id="patch_28"/>
            <path clip-path="url(#pb960b935a5)" d="M221.8 104.5h183.8v-8H221.8z" fill="#727ecf" stroke="#fff" id="patch_29"/>
            <path clip-path="url(#pb960b935a5)" d="M170 96.6h215.5v-8H170.1z" fill="#727ecf" stroke="#fff" id="patch_30"/>
            <path clip-path="url(#pb960b935a5)" d="M260.7 88.6h141.7v-8H260.7z" fill="#727ecf" stroke="#fff" id="patch_31"/>
            <path clip-path="url(#pb960b935a5)" d="M253.4 80.7h158v-8h-158z" fill="#727ecf" stroke="#fff" id="patch_32"/>
            <path clip-path="url(#pb960b935a5)" d="M276.3 72.7H400v-7.9H276.3z" fill="#727ecf" stroke="#fff" id="patch_33"/>
            <path clip-path="url(#pb960b935a5)" d="M264.9 64.8h126.3v-8H265z" fill="#727ecf" stroke="#fff" id="patch_34"/>
            <path clip-path="url(#pb960b935a5)" d="M284.4 56.9h112.2v-8H284.4z" fill="#727ecf" stroke="#fff" id="patch_35"/>
            <path clip-path="url(#pb960b935a5)" d="M202.8 49h183.6v-8H202.8z" fill="#727ecf" stroke="#fff" id="patch_36"/>
            <path clip-path="url(#pb960b935a5)" d="M159.6 41h229.7v-8H159.6z" fill="#727ecf" stroke="#fff" id="patch_37"/>
            <path clip-path="url(#pb960b935a5)" d="M149.8 33h227.6v-8H149.8z" fill="#727ecf" stroke="#fff" id="patch_38"/>
            <path clip-path="url(#pb960b935a5)" d="M250.2 25h134v-7.9h-134z" fill="#727ecf" stroke="#fff" id="patch_39"/>
            <path clip-path="url(#pb960b935a5)" d="M257.2 17.1h129.2v-8H257.2z" fill="#727ecf" stroke="#fff" id="patch_40"/>
            <path clip-path="url(#pb960b935a5)" d="M344.6 160.1h64.8v-8h-64.8z" fill="#b9bfe7" stroke="#fff" id="patch_41"/>
            <path clip-path="url(#pb960b935a5)" d="M352.4 152.2H412v-8h-59.5z" fill="#b9bfe7" stroke="#fff" id="patch_42"/>
            <path clip-path="url(#pb960b935a5)" d="M349.6 144.2h62.3v-7.9h-62.3z" fill="#b9bfe7" stroke="#fff" id="patch_43"/>
            <path clip-path="url(#pb960b935a5)" d="M361 136.3h59.4v-8H361z" fill="#b9bfe7" stroke="#fff" id="patch_44"/>
            <path clip-path="url(#pb960b935a5)" d="M29.3 128.4h0v-8h0z" fill="#b9bfe7" stroke="#fff" id="patch_45"/>
            <path clip-path="url(#pb960b935a5)" d="M29.3 120.4h0v-8h0z" fill="#b9bfe7" stroke="#fff" id="patch_46"/>
            <path clip-path="url(#pb960b935a5)" d="M29.3 112.5h0v-8h0z" fill="#b9bfe7" stroke="#fff" id="patch_47"/>
            <path clip-path="url(#pb960b935a5)" d="M29.3 104.5h0v-8h0z" fill="#b9bfe7" stroke="#fff" id="patch_48"/>
            <path clip-path="url(#pb960b935a5)" d="M29.3 96.6h0v-8h0z" fill="#b9bfe7" stroke="#fff" id="patch_49"/>
            <path clip-path="url(#pb960b935a5)" d="M29.3 88.6h0v-8h0z" fill="#b9bfe7" stroke="#fff" id="patch_50"/>
            <path clip-path="url(#pb960b935a5)" d="M29.3 80.7h0v-8h0z" fill="#b9bfe7" stroke="#fff" id="patch_51"/>
            <path clip-path="url(#pb960b935a5)" d="M29.3 72.7h0v-7.9h0z" fill="#b9bfe7" stroke="#fff" id="patch_52"/>
            <path clip-path="url(#pb960b935a5)" d="M29.3 64.8h0v-8h0z" fill="#b9bfe7" stroke="#fff" id="patch_53"/>
            <path clip-path="url(#pb960b935a5)" d="M29.3 56.9h0v-8h0z" fill="#b9bfe7" stroke="#fff" id="patch_54"/>
            <path clip-path="url(#pb960b935a5)" d="M29.3 49h0v-8h0z" fill="#b9bfe7" stroke="#fff" id="patch_55"/>
            <path clip-path="url(#pb960b935a5)" d="M29.3 41h0v-8h0z" fill="#b9bfe7" stroke="#fff" id="patch_56"/>
            <path clip-path="url(#pb960b935a5)" d="M29.3 33h0v-8h0z" fill="#b9bfe7" stroke="#fff" id="patch_57"/>
            <path clip-path="url(#pb960b935a5)" d="M29.3 25h0v-7.9h0z" fill="#b9bfe7" stroke="#fff" id="patch_58"/>
            <path clip-path="url(#pb960b935a5)" d="M29.3 17.1h0v-8h0z" fill="#b9bfe7" stroke="#fff" id="patch_59"/>
            <path clip-path="url(#pb960b935a5)" d="M409.4 160.1h28.1v-8h-28.1z" fill="#e6ab02" stroke="#fff" id="patch_60"/>
            <path clip-path="url(#pb960b935a5)" d="M412 152.2h28.3v-8h-28.4z" fill="#e6ab02" stroke="#fff" id="patch_61"/>
            <path clip-path="url(#pb960b935a5)" d="M412 144.2h25.4v-7.9H412z" fill="#e6ab02" stroke="#fff" id="patch_62"/>
            <path clip-path="url(#pb960b935a5)" d="M420.4 136.3h17v-8h-17z" fill="#e6ab02" stroke="#fff" id="patch_63"/>
            <path clip-path="url(#pb960b935a5)" d="M420.4 128.4h28.4v-8h-28.4z" fill="#e6ab02" stroke="#fff" id="patch_64"/>
            <path clip-path="url(#pb960b935a5)" d="M409 120.4h34.1v-8h-34z" fill="#e6ab02" stroke="#fff" id="patch_65"/>
            <path clip-path="url(#pb960b935a5)" d="M409 112.5h37v-8h-37z" fill="#e6ab02" stroke="#fff" id="patch_66"/>
            <path clip-path="url(#pb960b935a5)" d="M405.6 104.5h46v-8h-46z" fill="#e6ab02" stroke="#fff" id="patch_67"/>
            <path clip-path="url(#pb960b935a5)" d="M385.5 96.6h54.6v-8h-54.6z" fill="#e6ab02" stroke="#fff" id="patch_68"/>
            <path clip-path="url(#pb960b935a5)" d="M402.4 88.6h46.3v-8h-46.3z" fill="#e6ab02" stroke="#fff" id="patch_69"/>
            <path clip-path="url(#pb960b935a5)" d="M411.4 80.7h40.2v-8h-40.2z" fill="#e6ab02" stroke="#fff" id="patch_70"/>
            <path clip-path="url(#pb960b935a5)" d="M399.9 72.7h54.5v-7.9H400z" fill="#e6ab02" stroke="#fff" id="patch_71"/>
            <path clip-path="url(#pb960b935a5)" d="M391.2 64.8h63.2v-8h-63.2z" fill="#e6ab02" stroke="#fff" id="patch_72"/>
            <path clip-path="url(#pb960b935a5)" d="M396.6 56.9h57.8v-8h-57.8z" fill="#e6ab02" stroke="#fff" id="patch_73"/>
            <path clip-path="url(#pb960b935a5)" d="M386.4 49h68v-8h-68z" fill="#e6ab02" stroke="#fff" id="patch_74"/>
            <path clip-path="url(#pb960b935a5)" d="M389.3 41h65.1v-8h-65.1z" fill="#e6ab02" stroke="#fff" id="patch_75"/>
            <path clip-path="url(#pb960b935a5)" d="M377.4 33h77v-8h-77z" fill="#e6ab02" stroke="#fff" id="patch_76"/>
            <path clip-path="url(#pb960b935a5)" d="M384.1 25h70.3v-7.9h-70.3z" fill="#e6ab02" stroke="#fff" id="patch_77"/>
            <path clip-path="url(#pb960b935a5)" d="M386.4 17.1h68v-8h-68z" fill="#e6ab02" stroke="#fff" id="patch_78"/>
            <path clip-path="url(#pb960b935a5)" d="M29.3 160.1h0v-8h0z" fill="#d67c00" stroke="#fff" id="patch_79"/>
            <path clip-path="url(#pb960b935a5)" d="M29.3 152.2h0v-8h0z" fill="#d67c00" stroke="#fff" id="patch_80"/>
            <path clip-path="url(#pb960b935a5)" d="M437.4 144.2h2.9v-7.9h-2.9z" fill="#d67c00" stroke="#fff" id="patch_81"/>
            <path clip-path="url(#pb960b935a5)" d="M437.4 136.3h2.9v-8h-2.9z" fill="#d67c00" stroke="#fff" id="patch_82"/>
            <path clip-path="url(#pb960b935a5)" d="M29.3 128.4h0v-8h0z" fill="#d67c00" stroke="#fff" id="patch_83"/>
            <path clip-path="url(#pb960b935a5)" d="M443.1 120.4h2.8v-8h-2.8z" fill="#d67c00" stroke="#fff" id="patch_84"/>
            <path clip-path="url(#pb960b935a5)" d="M29.3 112.5h0v-8h0z" fill="#d67c00" stroke="#fff" id="patch_85"/>
            <path clip-path="url(#pb960b935a5)" d="M29.3 104.5h0v-8h0z" fill="#d67c00" stroke="#fff" id="patch_86"/>
            <path clip-path="url(#pb960b935a5)" d="M29.3 96.6h0v-8h0z" fill="#d67c00" stroke="#fff" id="patch_87"/>
            <path clip-path="url(#pb960b935a5)" d="M29.3 88.6h0v-8h0z" fill="#d67c00" stroke="#fff" id="patch_88"/>
            <path clip-path="url(#pb960b935a5)" d="M29.3 80.7h0v-8h0z" fill="#d67c00" stroke="#fff" id="patch_89"/>
            <path clip-path="url(#pb960b935a5)" d="M29.3 72.7h0v-7.9h0z" fill="#d67c00" stroke="#fff" id="patch_90"/>
            <path clip-path="url(#pb960b935a5)" d="M29.3 64.8h0v-8h0z" fill="#d67c00" stroke="#fff" id="patch_91"/>
            <path clip-path="url(#pb960b935a5)" d="M29.3 56.9h0v-8h0z" fill="#d67c00" stroke="#fff" id="patch_92"/>
            <path clip-path="url(#pb960b935a5)" d="M29.3 49h0v-8h0z" fill="#d67c00" stroke="#fff" id="patch_93"/>
            <path clip-path="url(#pb960b935a5)" d="M29.3 41h0v-8h0z" fill="#d67c00" stroke="#fff" id="patch_94"/>
            <path clip-path="url(#pb960b935a5)" d="M29.3 33h0v-8h0z" fill="#d67c00" stroke="#fff" id="patch_95"/>
            <path clip-path="url(#pb960b935a5)" d="M29.3 25h0v-7.9h0z" fill="#d67c00" stroke="#fff" id="patch_96"/>
            <path clip-path="url(#pb960b935a5)" d="M29.3 17.1h0v-8h0z" fill="#d67c00" stroke="#fff" id="patch_97"/>
            <path clip-path="url(#pb960b935a5)" d="M437.5 160.1h2.9v-8h-2.9z" fill="#76a254" stroke="#fff" id="patch_98"/>
            <path clip-path="url(#pb960b935a5)" d="M440.3 152.2h2.8v-8h-2.8z" fill="#76a254" stroke="#fff" id="patch_99"/>
            <path clip-path="url(#pb960b935a5)" d="M440.3 144.2h2.8v-7.9h-2.8z" fill="#76a254" stroke="#fff" id="patch_100"/>
            <path clip-path="url(#pb960b935a5)" d="M440.3 136.3h2.8v-8h-2.8z" fill="#76a254" stroke="#fff" id="patch_101"/>
            <path clip-path="url(#pb960b935a5)" d="M29.3 128.4h0v-8h0z" fill="#76a254" stroke="#fff" id="patch_102"/>
            <path clip-path="url(#pb960b935a5)" d="M29.3 120.4h0v-8h0z" fill="#76a254" stroke="#fff" id="patch_103"/>
            <path clip-path="url(#pb960b935a5)" d="M29.3 112.5h0v-8h0z" fill="#76a254" stroke="#fff" id="patch_104"/>
            <path clip-path="url(#pb960b935a5)" d="M29.3 104.5h0v-8h0z" fill="#76a254" stroke="#fff" id="patch_105"/>
            <path clip-path="url(#pb960b935a5)" d="M29.3 96.6h0v-8h0z" fill="#76a254" stroke="#fff" id="patch_106"/>
            <path clip-path="url(#pb960b935a5)" d="M29.3 88.6h0v-8h0z" fill="#76a254" stroke="#fff" id="patch_107"/>
            <path clip-path="url(#pb960b935a5)" d="M29.3 80.7h0v-8h0z" fill="#76a254" stroke="#fff" id="patch_108"/>
            <path clip-path="url(#pb960b935a5)" d="M29.3 72.7h0v-7.9h0z" fill="#76a254" stroke="#fff" id="patch_109"/>
            <path clip-path="url(#pb960b935a5)" d="M29.3 64.8h0v-8h0z" fill="#76a254" stroke="#fff" id="patch_110"/>
            <path clip-path="url(#pb960b935a5)" d="M29.3 56.9h0v-8h0z" fill="#76a254" stroke="#fff" id="patch_111"/>
            <path clip-path="url(#pb960b935a5)" d="M29.3 49h0v-8h0z" fill="#76a254" stroke="#fff" id="patch_112"/>
            <path clip-path="url(#pb960b935a5)" d="M29.3 41h0v-8h0z" fill="#76a254" stroke="#fff" id="patch_113"/>
            <path clip-path="url(#pb960b935a5)" d="M29.3 33h0v-8h0z" fill="#76a254" stroke="#fff" id="patch_114"/>
            <path clip-path="url(#pb960b935a5)" d="M29.3 25h0v-7.9h0z" fill="#76a254" stroke="#fff" id="patch_115"/>
            <path clip-path="url(#pb960b935a5)" d="M29.3 17.1h0v-8h0z" fill="#76a254" stroke="#fff" id="patch_116"/>
            <path clip-path="url(#pb960b935a5)" d="M440.4 160.1h14v-8h-14z" fill="#888" stroke="#fff" id="patch_117"/>
            <path clip-path="url(#pb960b935a5)" d="M443.1 152.2h11.3v-8h-11.3z" fill="#888" stroke="#fff" id="patch_118"/>
            <path clip-path="url(#pb960b935a5)" d="M443.1 144.2h11.3v-7.9h-11.3z" fill="#888" stroke="#fff" id="patch_119"/>
            <path clip-path="url(#pb960b935a5)" d="M443.1 136.3h11.3v-8h-11.3z" fill="#888" stroke="#fff" id="patch_120"/>
            <path clip-path="url(#pb960b935a5)" d="M448.8 128.4h5.6v-8h-5.6z" fill="#888" stroke="#fff" id="patch_121"/>
            <path clip-path="url(#pb960b935a5)" d="M29.3 120.4h0v-8h0z" fill="#888" stroke="#fff" id="patch_122"/>
            <path clip-path="url(#pb960b935a5)" d="M29.3 112.5h0v-8h0z" fill="#888" stroke="#fff" id="patch_123"/>
            <path clip-path="url(#pb960b935a5)" d="M29.3 104.5h0v-8h0z" fill="#888" stroke="#fff" id="patch_124"/>
            <path clip-path="url(#pb960b935a5)" d="M29.3 96.6h0v-8h0z" fill="#888" stroke="#fff" id="patch_125"/>
            <path clip-path="url(#pb960b935a5)" d="M29.3 88.6h0v-8h0z" fill="#888" stroke="#fff" id="patch_126"/>
            <path clip-path="url(#pb960b935a5)" d="M29.3 80.7h0v-8h0z" fill="#888" stroke="#fff" id="patch_127"/>
            <path clip-path="url(#pb960b935a5)" d="M29.3 72.7h0v-7.9h0z" fill="#888" stroke="#fff" id="patch_128"/>
            <path clip-path="url(#pb960b935a5)" d="M29.3 64.8h0v-8h0z" fill="#888" stroke="#fff" id="patch_129"/>
            <path clip-path="url(#pb960b935a5)" d="M29.3 56.9h0v-8h0z" fill="#888" stroke="#fff" id="patch_130"/>
            <path clip-path="url(#pb960b935a5)" d="M29.3 49h0v-8h0z" fill="#888" stroke="#fff" id="patch_131"/>
            <path clip-path="url(#pb960b935a5)" d="M29.3 41h0v-8h0z" fill="#888" stroke="#fff" id="patch_132"/>
            <path clip-path="url(#pb960b935a5)" d="M29.3 33h0v-8h0z" fill="#888" stroke="#fff" id="patch_133"/>
            <path clip-path="url(#pb960b935a5)" d="M29.3 25h0v-7.9h0z" fill="#888" stroke="#fff" id="patch_134"/>
            <path clip-path="url(#pb960b935a5)" d="M29.3 17.1h0v-8h0z" fill="#888" stroke="#fff" id="patch_135"/>
            <path clip-path="url(#pb960b935a5)" d="M29.3 160.1h0v-8h0z" fill="#888" stroke="#fff" id="patch_136"/>
            <path clip-path="url(#pb960b935a5)" d="M29.3 152.2h0v-8h0z" fill="#888" stroke="#fff" id="patch_137"/>
            <path clip-path="url(#pb960b935a5)" d="M29.3 144.2h0v-7.9h0z" fill="#888" stroke="#fff" id="patch_138"/>
            <path clip-path="url(#pb960b935a5)" d="M29.3 136.3h0v-8h0z" fill="#888" stroke="#fff" id="patch_139"/>
            <path clip-path="url(#pb960b935a5)" d="M29.3 128.4h0v-8h0z" fill="#888" stroke="#fff" id="patch_140"/>
            <path clip-path="url(#pb960b935a5)" d="M446 120.4h8.4v-8H446z" fill="#888" stroke="#fff" id="patch_141"/>
            <path clip-path="url(#pb960b935a5)" d="M446 112.5h8.4v-8H446z" fill="#888" stroke="#fff" id="patch_142"/>
            <path clip-path="url(#pb960b935a5)" d="M451.6 104.5h2.8v-8h-2.8z" fill="#888" stroke="#fff" id="patch_143"/>
            <path clip-path="url(#pb960b935a5)" d="M440 96.6h14.4v-8h-14.3z" fill="#888" stroke="#fff" id="patch_144"/>
            <path clip-path="url(#pb960b935a5)" d="M448.7 88.6h5.7v-8h-5.7z" fill="#888" stroke="#fff" id="patch_145"/>
            <path clip-path="url(#pb960b935a5)" d="M451.6 80.7h2.8v-8h-2.8z" fill="#888" stroke="#fff" id="patch_146"/>
            <path clip-path="url(#pb960b935a5)" d="M29.3 72.7h0v-7.9h0z" fill="#888" stroke="#fff" id="patch_147"/>
            <path clip-path="url(#pb960b935a5)" d="M29.3 64.8h0v-8h0z" fill="#888" stroke="#fff" id="patch_148"/>
            <path clip-path="url(#pb960b935a5)" d="M29.3 56.9h0v-8h0z" fill="#888" stroke="#fff" id="patch_149"/>
            <path clip-path="url(#pb960b935a5)" d="M29.3 49h0v-8h0z" fill="#888" stroke="#fff" id="patch_150"/>
            <path clip-path="url(#pb960b935a5)" d="M29.3 41h0v-8h0z" fill="#888" stroke="#fff" id="patch_151"/>
            <path clip-path="url(#pb960b935a5)" d="M29.3 33h0v-8h0z" fill="#888" stroke="#fff" id="patch_152"/>
            <path clip-path="url(#pb960b935a5)" d="M29.3 25h0v-7.9h0z" fill="#888" stroke="#fff" id="patch_153"/>
            <path clip-path="url(#pb960b935a5)" d="M29.3 17.1h0v-8h0z" fill="#888" stroke="#fff" id="patch_154"/>
            <g id="matplotlib.axis_1">
                <g id="xtick_1">
                    <text x="29.3" y="177.6" fill="gray" font-family="Linux Libertine O" font-size="10" font-weight="400" text-anchor="middle" id="text_1">
                        0%
                    </text>
                </g>
                <g id="xtick_2">
                    <text x="114.3" y="177.6" fill="gray" font-family="Linux Libertine O" font-size="10" font-weight="400" text-anchor="middle" id="text_2">
                        20%
                    </text>
                </g>
                <g id="xtick_3">
                    <text x="199.4" y="177.6" fill="gray" font-family="Linux Libertine O" font-size="10" font-weight="400" text-anchor="middle" id="text_3">
                        40%
                    </text>
                </g>
                <g id="xtick_4">
                    <text x="284.4" y="177.6" fill="gray" font-family="Linux Libertine O" font-size="10" font-weight="400" text-anchor="middle" id="text_4">
                        60%
                    </text>
                </g>
                <g id="xtick_5">
                    <text x="369.4" y="177.6" fill="gray" font-family="Linux Libertine O" font-size="10" font-weight="400" text-anchor="middle" id="text_5">
                        80%
                    </text>
                </g>
                <g id="xtick_6">
                    <text x="454.4" y="177.6" fill="gray" font-family="Linux Libertine O" font-size="10" font-weight="400" text-anchor="middle" id="text_6">
                        100%
                    </text>
                </g>
            </g>
            <g id="matplotlib.axis_2">
                <g id="ytick_1">
                    <text x="25.8" y="159.7" fill="gray" font-family="Linux Libertine O" font-size="10" font-weight="400" text-anchor="end" id="text_7">
                        2019
                    </text>
                </g>
                <g id="ytick_2">
                    <text x="25.8" y="151.7" fill="gray" font-family="Linux Libertine O" font-size="10" font-weight="400" text-anchor="end" id="text_8">
                        2016
                    </text>
                </g>
                <g id="ytick_3">
                    <text x="25.8" y="143.8" fill="gray" font-family="Linux Libertine O" font-size="10" font-weight="400" text-anchor="end" id="text_9">
                        2013
                    </text>
                </g>
                <g id="ytick_4">
                    <text x="25.8" y="135.8" fill="gray" font-family="Linux Libertine O" font-size="10" font-weight="400" text-anchor="end" id="text_10">
                        2010
                    </text>
                </g>
                <g id="ytick_5">
                    <text x="25.8" y="127.9" fill="gray" font-family="Linux Libertine O" font-size="10" font-weight="400" text-anchor="end" id="text_11">
                        2007
                    </text>
                </g>
                <g id="ytick_6">
                    <text x="25.8" y="119.9" fill="gray" font-family="Linux Libertine O" font-size="10" font-weight="400" text-anchor="end" id="text_12">
                        2004
                    </text>
                </g>
                <g id="ytick_7">
                    <text x="25.8" y="112" fill="gray" font-family="Linux Libertine O" font-size="10" font-weight="400" text-anchor="end" id="text_13">
                        2001
                    </text>
                </g>
                <g id="ytick_8">
                    <text x="25.8" y="104" fill="gray" font-family="Linux Libertine O" font-size="10" font-weight="400" text-anchor="end" id="text_14">
                        1998
                    </text>
                </g>
                <g id="ytick_9">
                    <text x="25.8" y="96.1" fill="gray" font-family="Linux Libertine O" font-size="10" font-weight="400" text-anchor="end" id="text_15">
                        1996
                    </text>
                </g>
                <g id="ytick_10">
                    <text x="25.8" y="88.2" fill="gray" font-family="Linux Libertine O" font-size="10" font-weight="400" text-anchor="end" id="text_16">
                        1993
                    </text>
                </g>
                <g id="ytick_11">
                    <text x="25.8" y="80.2" fill="gray" font-family="Linux Libertine O" font-size="10" font-weight="400" text-anchor="end" id="text_17">
                        1990
                    </text>
                </g>
                <g id="ytick_12">
                    <text x="25.8" y="72.3" fill="gray" font-family="Linux Libertine O" font-size="10" font-weight="400" text-anchor="end" id="text_18">
                        1987
                    </text>
                </g>
                <g id="ytick_13">
                    <text x="25.8" y="64.3" fill="gray" font-family="Linux Libertine O" font-size="10" font-weight="400" text-anchor="end" id="text_19">
                        1984
                    </text>
                </g>
                <g id="ytick_14">
                    <text x="25.8" y="56.4" fill="gray" font-family="Linux Libertine O" font-size="10" font-weight="400" text-anchor="end" id="text_20">
                        1983
                    </text>
                </g>
                <g id="ytick_15">
                    <text x="25.8" y="48.4" fill="gray" font-family="Linux Libertine O" font-size="10" font-weight="400" text-anchor="end" id="text_21">
                        1980
                    </text>
                </g>
                <g id="ytick_16">
                    <text x="25.8" y="40.5" fill="gray" font-family="Linux Libertine O" font-size="10" font-weight="400" text-anchor="end" id="text_22">
                        1977
                    </text>
                </g>
                <g id="ytick_17">
                    <text x="25.8" y="32.5" fill="gray" font-family="Linux Libertine O" font-size="10" font-weight="400" text-anchor="end" id="text_23">
                        1975
                    </text>
                </g>
                <g id="ytick_18">
                    <text x="25.8" y="24.6" fill="gray" font-family="Linux Libertine O" font-size="10" font-weight="400" text-anchor="end" id="text_24">
                        1974
                    </text>
                </g>
                <g id="ytick_19">
                    <text x="25.8" y="16.6" fill="gray" font-family="Linux Libertine O" font-size="10" font-weight="400" text-anchor="end" id="text_25">
                        1972
                    </text>
                </g>
            </g>
        </g>
    </g>
    <defs>
        <clipPath id="pb960b935a5">
            <path d="M29.3 7.2h446.4v154.9H29.3z"/>
        </clipPath>
    </defs>
</svg>
